<?xml version="1.0" encoding="UTF-8" standalone="no"?>
<!-- Created with Inkscape (http://www.inkscape.org/) -->

<svg
   version="1.1"
   id="svg1"
   width="3658.8"
   height="2379.0392"
   viewBox="0 0 365.88001 237.90392"
   sodipodi:docname="hw_delay.pdf"
   xmlns:inkscape="http://www.inkscape.org/namespaces/inkscape"
   xmlns:sodipodi="http://sodipodi.sourceforge.net/DTD/sodipodi-0.dtd"
   xmlns="http://www.w3.org/2000/svg"
   xmlns:svg="http://www.w3.org/2000/svg">
  <defs
     id="defs1" />
  <sodipodi:namedview
     id="namedview1"
     pagecolor="#505050"
     bordercolor="#eeeeee"
     borderopacity="1"
     inkscape:showpageshadow="0"
     inkscape:pageopacity="0"
     inkscape:pagecheckerboard="0"
     inkscape:deskcolor="#d1d1d1" />
  <g
     id="g1"
     inkscape:groupmode="layer"
     inkscape:label="1"
     transform="translate(0.49523317,0.18367576)">
    <path
       id="path1"
       d="m 65.281,82.363 c 0.781,-0.004 1.457,21.36 1.508,47.684 0.051,26.324 -0.539,47.691 -1.32,47.691 -0.781,0 -1.457,-21.363 -1.512,-47.683 C 63.906,103.73 64.5,82.363 65.281,82.363 Z"
       style="fill:#1b1f23;fill-opacity:1;fill-rule:nonzero;stroke:#f6f8fa;stroke-width:0.75;stroke-linecap:round;stroke-linejoin:round;stroke-dasharray:none;stroke-opacity:1;paint-order:stroke fill markers"
       transform="scale(1.3333333)" />
    <path
       id="path2"
       d="m 207.949,79.387 c 0.781,0 1.383,21.511 1.344,48.015 -0.039,26.504 -0.703,48.012 -1.484,48.012 -0.782,-0.004 -1.387,-21.512 -1.348,-48.016 0.039,-26.503 0.707,-48.011 1.488,-48.011 z"
       style="fill:#1b1f23;fill-opacity:1;fill-rule:nonzero;stroke:#f6f8fa;stroke-width:0.75;stroke-linecap:round;stroke-linejoin:round;stroke-dasharray:none;stroke-opacity:1;paint-order:stroke fill markers"
       transform="scale(1.3333333)" />
    <path
       id="path3"
       d="m 84.488,87.117 c -0.004,-0.781 23.035,-1.519 51.426,-1.652 28.387,-0.129 51.43,0.398 51.434,1.18 0.004,0.781 -23.032,1.519 -51.422,1.652 -28.391,0.129 -51.434,-0.399 -51.438,-1.18 z"
       style="fill:#1b1f23;fill-opacity:1;fill-rule:nonzero;stroke:#f6f8fa;stroke-width:0.75;stroke-linecap:round;stroke-linejoin:round;stroke-dasharray:none;stroke-opacity:1;paint-order:stroke fill markers"
       transform="scale(1.3333333)" />
    <path
       id="path4"
       d="m 181.801,80.371 c 0.207,-0.613 5.328,-0.906 11.015,3.383 0.688,0.34 1.403,1.258 1.461,2.808 -0.339,1.297 -1.078,2.071 -1.738,2.352 -0.141,0.09 -0.285,0.18 -0.434,0.266 -2.082,1.242 -4.484,1.906 -6.148,2.449 -4.957,1.676 -8.215,3.062 -8.519,2.578 -0.305,-0.48 2.734,-2.883 7.597,-4.977 1.664,-0.73 4.078,-1.527 5.617,-2.468 0.114,-0.071 0.227,-0.141 0.336,-0.215 0.367,-0.395 0.696,-0.469 0.512,-0.348 0.199,0.227 -0.102,0.141 -0.398,-0.332 -4.278,-3.801 -9.504,-4.883 -9.301,-5.496 z"
       style="fill:#1b1f23;fill-opacity:1;fill-rule:nonzero;stroke:#f6f8fa;stroke-width:0.75;stroke-linecap:round;stroke-linejoin:round;stroke-dasharray:none;stroke-opacity:1;paint-order:stroke fill markers"
       transform="scale(1.3333333)" />
    <path
       id="path5"
       d="m 93.148,78.727 c 0.301,0.589 -3.726,2.832 -8.418,6.253 -0.781,0.743 -1.726,1.309 -2.062,1.758 -0.129,0.172 -0.164,0.324 -0.074,0.469 -0.262,0.527 0.996,1.328 1.918,2.332 3.554,3.121 6.207,5.43 5.859,5.895 -0.344,0.464 -3.43,-0.918 -7.476,-3.872 -1.083,-0.609 -2.774,-1.871 -3.122,-4.296 0.075,-0.684 0.258,-1.297 0.528,-1.84 0.707,-1.434 1.937,-2.274 2.871,-2.715 5.269,-3.426 9.672,-4.578 9.976,-3.984 z"
       style="fill:#1b1f23;fill-opacity:1;fill-rule:nonzero;stroke:#f6f8fa;stroke-width:0.75;stroke-linecap:round;stroke-linejoin:round;stroke-dasharray:none;stroke-opacity:1;paint-order:stroke fill markers"
       transform="scale(1.3333333)" />
    <path
       id="path6"
       d="m 214.562,84.727 c 0.043,-0.782 11.872,-0.786 26.407,-0.012 14.531,0.773 26.293,2.031 26.254,2.812 -0.043,0.782 -11.871,0.785 -26.407,0.012 -14.531,-0.773 -26.293,-2.031 -26.254,-2.812 z"
       style="fill:#1b1f23;fill-opacity:1;fill-rule:nonzero;stroke:#f6f8fa;stroke-width:0.75;stroke-linecap:round;stroke-linejoin:round;stroke-dasharray:none;stroke-opacity:1;paint-order:stroke fill markers"
       transform="scale(1.3333333)" />
    <path
       id="path7"
       d="m 261.613,78.75 c 0.375,-0.473 3.535,1.246 7.852,4.074 1.152,0.653 3.035,1.699 4.023,3.879 0.016,0.039 0.028,0.082 0.039,0.121 0.266,0.91 0.137,1.817 -0.312,2.551 -0.649,0.988 -1.461,1.594 -2.141,1.984 -5.125,3.231 -9.367,3.809 -9.621,3.215 -0.254,-0.594 3.77,-2.316 8.102,-5.469 0.554,-0.441 1.082,-0.804 1.246,-1.175 0.047,-0.082 0.078,-0.211 0.043,-0.231 0,0 -0.004,0 -0.004,0 -0.18,-0.898 -1.719,-1.699 -2.91,-2.722 -4.024,-3.122 -6.692,-5.758 -6.317,-6.227 z"
       style="fill:#1b1f23;fill-opacity:1;fill-rule:nonzero;stroke:#f6f8fa;stroke-width:0.75;stroke-linecap:round;stroke-linejoin:round;stroke-dasharray:none;stroke-opacity:1;paint-order:stroke fill markers"
       transform="scale(1.3333333)" />
    <path
       id="path8"
       d="m 0.445,89.121 c -2.652,-0.715 6.809,-1.598 21.114,-1.969 14.308,-0.375 28.07,-0.097 30.722,0.618 2.653,0.714 -6.808,1.597 -21.113,1.972 -14.309,0.371 -28.07,0.094 -30.723,-0.621 z"
       style="fill:#1b1f23;fill-opacity:1;fill-rule:nonzero;stroke:#f6f8fa;stroke-width:0.75;stroke-linecap:round;stroke-linejoin:round;stroke-dasharray:none;stroke-opacity:1;paint-order:stroke fill markers"
       transform="scale(1.3333333)" />
    <path
       id="path9"
       d="m 46.426,79.602 c -0.039,-0.797 3.316,0.671 8.168,3.343 0.972,0.453 2.426,1.125 3.547,2.442 0.281,0.332 0.539,0.699 0.765,1.113 0.391,0.922 0.34,1.883 -0.066,2.688 -0.57,1.031 -1.332,1.695 -1.981,2.14 -4.531,3.371 -8.578,4.356 -9.257,4.027 -0.766,-0.367 3.207,-2.433 7.566,-6.156 0.52,-0.48 1.02,-0.883 1.156,-1.269 0.008,-0.024 0.02,-0.051 0.024,-0.078 0.023,-0.079 0.023,-0.153 -0.008,-0.153 -0.246,-0.883 -1.832,-1.554 -3.11,-2.492 -4.031,-2.656 -6.761,-4.785 -6.804,-5.605 z"
       style="fill:#1b1f23;fill-opacity:1;fill-rule:nonzero;stroke:#f6f8fa;stroke-width:0.75;stroke-linecap:round;stroke-linejoin:round;stroke-dasharray:none;stroke-opacity:1;paint-order:stroke fill markers"
       transform="scale(1.3333333)" />
    <path
       id="path10"
       d="m 128.137,73.707 c -0.137,-0.473 1.043,-0.754 2.867,-0.848 0.762,-0.097 1.793,-0.047 1.988,-0.406 -0.051,0.195 -0.203,0.07 -0.215,-0.047 -0.179,-0.398 -0.597,-0.75 -1.129,-1.176 -1.046,-0.566 -2.515,-1.296 -2.843,-0.656 -0.035,0.02 -0.071,0.039 -0.102,0.063 -1.219,0.851 -1.144,2.945 -0.371,3.914 2.078,3.035 6.148,2.16 6.324,2.683 0.172,0.524 -4.277,3.192 -8.265,-1.07 -1.668,-1.969 -1.981,-5.398 0.504,-7.672 0.066,-0.058 0.132,-0.121 0.203,-0.176 2.437,-1.429 4.918,-0.449 6.203,0.844 0.726,0.582 1.355,1.363 1.734,2.32 0.422,0.95 0.09,2.059 -0.808,2.821 -1.426,0.707 -2.68,0.41 -3.336,0.226 -1.657,-0.277 -2.743,-0.785 -2.754,-0.82 z"
       style="fill:#1b1f23;fill-opacity:1;fill-rule:nonzero;stroke:#f6f8fa;stroke-width:0.75;stroke-linecap:round;stroke-linejoin:round;stroke-dasharray:none;stroke-opacity:1;paint-order:stroke fill markers"
       transform="scale(1.3333333)" />
    <path
       id="path11"
       d="m 135.516,63.098 c 0.425,0.261 0.332,1.578 0.601,4.175 0.227,1.391 0.535,2.981 1.063,4.649 0.058,0.191 0.121,0.379 0.183,0.566 0.668,1.629 0.938,2.703 1.75,3.242 0.434,1.192 2.617,-0.55 2.996,-0.238 0.375,0.313 -0.261,3.613 -4.179,2.266 -1.653,-0.903 -2.692,-2.539 -3.231,-4.332 -0.078,-0.215 -0.152,-0.434 -0.222,-0.653 -0.61,-1.941 -0.793,-3.8 -0.735,-5.367 -0.023,-2.968 1.211,-4.656 1.774,-4.308 z"
       style="fill:#1b1f23;fill-opacity:1;fill-rule:nonzero;stroke:#f6f8fa;stroke-width:0.75;stroke-linecap:round;stroke-linejoin:round;stroke-dasharray:none;stroke-opacity:1;paint-order:stroke fill markers"
       transform="scale(1.3333333)" />
    <path
       id="path12"
       d="m 146.535,71.336 c -0.043,0.371 -1.582,0.277 -3.183,1.023 -0.375,0.215 -0.782,0.453 -0.719,0.645 -0.266,0.258 0.332,0.832 0.918,1.582 0.664,0.43 1.535,0.93 1.781,0.586 0.102,-0.008 0.199,-0.024 0.293,-0.047 1.238,-0.34 1.715,-2.504 2.238,-4.07 0.145,0.043 0.274,0.109 0.407,0.175 0.312,0.165 0.613,0.329 0.906,0.489 0.047,0.586 0.129,1.129 0.238,1.633 0.609,2.429 1.949,3.492 1.77,3.894 -0.082,0.188 -2.481,0.277 -3.84,-3.215 -0.25,-0.59 -0.453,-1.242 -0.602,-1.945 0.238,-0.211 0.492,-0.43 0.762,-0.652 0.121,-0.09 0.246,-0.184 0.367,-0.274 0.547,1.731 0.891,4.426 -0.91,6.207 -0.125,0.125 -0.262,0.246 -0.41,0.356 -2.051,0.746 -3.875,-0.063 -4.852,-1.192 -1.293,-1.035 -1.797,-2.886 -1.14,-4.527 0.652,-1.031 1.566,-1.418 2.269,-1.504 2.543,-0.41 3.754,0.465 3.707,0.836 z"
       style="fill:#1b1f23;fill-opacity:1;fill-rule:nonzero;stroke:#f6f8fa;stroke-width:0.75;stroke-linecap:round;stroke-linejoin:round;stroke-dasharray:none;stroke-opacity:1;paint-order:stroke fill markers"
       transform="scale(1.3333333)" />
    <path
       id="path13"
       d="m 151.883,70.363 c 0.457,0.047 0.535,4.754 3.047,4.184 1.363,0.367 2.523,-1.387 3.316,-3.266 0.02,-0.011 0.043,-0.023 0.063,-0.035 0.097,0.066 0.23,0.141 0.351,0.211 0.297,0.176 0.602,0.359 0.906,0.543 -0.031,0.559 -0.058,1.121 -0.089,1.707 -0.02,0.418 -0.039,0.84 -0.059,1.262 -0.055,1.222 -0.094,2.375 -0.117,3.515 0.051,1.825 -0.719,3.637 -2.219,4.766 -1.297,0.852 -2.766,0.926 -3.937,0.551 -1.188,-0.242 -2.11,-1.348 -2.211,-2.578 0.597,-3.512 3.121,-2.797 3.261,-2.5 0.145,0.297 -2.226,1.445 -1.515,2.453 -0.071,0.207 0.453,0.308 1.011,0.527 0.633,0.098 1.422,-0.051 1.922,-0.492 0.66,-0.426 0.875,-1.5 0.922,-2.727 -0.019,-1.183 0,-2.394 0.055,-3.64 0.019,-0.434 0.043,-0.864 0.07,-1.289 0.035,-0.598 0.078,-1.18 0.129,-1.762 0.332,-0.16 0.664,-0.32 0.992,-0.481 0.133,-0.062 0.25,-0.136 0.403,-0.195 0.027,0.012 0.046,0.024 0.066,0.035 0.766,3.231 -1.246,5.711 -3.582,5.637 -5.59,-1.519 -3.246,-6.477 -2.785,-6.426 z"
       style="fill:#1b1f23;fill-opacity:1;fill-rule:nonzero;stroke:#f6f8fa;stroke-width:0.75;stroke-linecap:round;stroke-linejoin:round;stroke-dasharray:none;stroke-opacity:1;paint-order:stroke fill markers"
       transform="scale(1.3333333)" />
    <path
       id="path14"
       d="m 68.746,76.922 c -0.527,-0.102 -0.23,-1.61 1.625,-3.02 0.649,-0.679 1.676,-1.332 1.441,-1.648 0.407,0.773 0.231,1.031 0.153,0.762 -0.403,-0.063 -0.883,0.007 -1.453,0.121 -0.907,0.308 -2.008,0.738 -2.184,1.258 -0.023,0.078 -0.035,0.148 -0.019,0.23 -0.329,0.406 0.546,1.191 1.261,1.711 1.2,0.559 2.227,0.859 2.973,0.539 1.547,0.23 2.117,-3.18 2.496,-2.977 0.375,0.207 2.023,2.102 -1.508,4.829 -1.504,0.789 -3.488,0.8 -5.203,-0.086 -1.539,-0.598 -3.047,-2.203 -2.848,-4.532 0.082,-0.273 0.184,-0.539 0.305,-0.781 0.895,-1.808 2.684,-2.656 4.203,-2.789 0.797,-0.141 1.653,-0.148 2.512,0.047 0.676,-0.16 1.469,0.59 1.742,2.016 -0.605,1.836 -2.062,2.484 -2.765,2.761 -1.805,1.157 -2.379,1.621 -2.731,1.559 z"
       style="fill:#1b1f23;fill-opacity:1;fill-rule:nonzero;stroke:#f6f8fa;stroke-width:0.75;stroke-linecap:round;stroke-linejoin:round;stroke-dasharray:none;stroke-opacity:1;paint-order:stroke fill markers"
       transform="scale(1.3333333)" />
    <path
       id="path15"
       d="m 71.199,68.488 c 0.442,-0.547 3.113,1.321 6.336,2.469 0.621,-0.078 0.242,0.168 -0.32,0.223 -0.102,0.156 -0.188,0.281 -0.262,0.386 -0.262,0.352 -0.363,0.383 -0.203,0.223 -0.078,-0.875 -0.535,-1.887 -0.797,-2.934 -0.644,-2.48 -0.363,-4.242 0.27,-4.253 0.355,-0.008 1.152,1.445 2.097,3.472 0.383,0.746 1.032,1.922 1.278,3.34 0.218,0.246 0.156,0.766 -0.313,1.457 -0.133,0.195 -0.297,0.406 -0.5,0.625 -1.344,0.453 -2.168,0.289 -2.363,-0.023 -4.051,-1.801 -5.66,-4.434 -5.223,-4.985 z"
       style="fill:#1b1f23;fill-opacity:1;fill-rule:nonzero;stroke:#f6f8fa;stroke-width:0.75;stroke-linecap:round;stroke-linejoin:round;stroke-dasharray:none;stroke-opacity:1;paint-order:stroke fill markers"
       transform="scale(1.3333333)" />
    <path
       id="path16"
       d="m 79.176,65.68 c -0.36,-0.313 0.781,-1.825 1.629,-4.102 0.297,0.949 0.097,1.391 0.175,1.078 -0.386,-0.015 -0.828,0.098 -1.285,0.285 -0.347,0.211 -0.691,0.411 -0.636,0.543 -0.086,0.067 -0.075,0.192 -0.008,0.371 0.105,0.262 0.332,0.637 0.527,1.043 1.063,1.231 1.695,2.184 2.5,2.075 1.422,0.535 2.559,-2.071 3.016,-1.926 0.457,0.141 1.269,3.16 -2.817,4.156 -2.062,0.129 -4,-1.035 -5.047,-2.765 -0.445,-0.489 -0.824,-1.172 -0.964,-2.008 -0.098,-0.563 -0.086,-1.176 0.078,-1.821 0.515,-1.183 1.445,-1.867 2.347,-2.125 0.856,-0.308 1.77,-0.379 2.637,-0.23 0.871,-0.215 1.606,0.742 1.59,2.308 -1.609,2.567 -3.387,3.43 -3.742,3.118 z"
       style="fill:#1b1f23;fill-opacity:1;fill-rule:nonzero;stroke:#f6f8fa;stroke-width:0.75;stroke-linecap:round;stroke-linejoin:round;stroke-dasharray:none;stroke-opacity:1;paint-order:stroke fill markers"
       transform="scale(1.3333333)" />
    <path
       id="path17"
       d="m 81.152,58.352 c 0.461,-0.61 2.571,0.046 4.625,1.66 2.067,1.625 3.141,3.504 2.578,4.054 -0.543,0.536 -2.472,-0.398 -4.402,-1.914 -1.945,-1.523 -3.273,-3.179 -2.801,-3.8 z"
       style="fill:#1b1f23;fill-opacity:1;fill-rule:nonzero;stroke:#f6f8fa;stroke-width:0.75;stroke-linecap:round;stroke-linejoin:round;stroke-dasharray:none;stroke-opacity:1;paint-order:stroke fill markers"
       transform="scale(1.3333333)" />
    <path
       id="path18"
       d="m 84.613,60.613 c -0.468,0.075 -1.355,-0.808 -1.285,-2.91 -0.023,-0.617 0.258,-1.422 1.227,-2.113 1.425,-0.582 2.789,-0.41 3.746,0.043 0.168,0.086 0.32,0.172 0.449,0.262 1.363,0.535 2.199,1.132 2.926,1.332 0.234,0.027 0.359,0.175 0.371,0.187 0.437,0.156 0.765,-0.82 1.117,-0.82 0.352,0.008 1.207,0.594 0.176,2.105 -0.512,0.504 -1.25,0.824 -1.942,0.746 -1.425,-0.035 -2.566,-0.519 -3.761,-1.011 -0.18,-0.039 -0.352,-0.082 -0.512,-0.137 -0.859,-0.281 -1.254,-0.645 -1.289,-0.461 0.035,-0.191 -0.027,-0.016 -0.215,0.242 -0.512,1.168 -0.539,2.453 -1.008,2.535 z"
       style="fill:#1b1f23;fill-opacity:1;fill-rule:nonzero;stroke:#f6f8fa;stroke-width:0.75;stroke-linecap:round;stroke-linejoin:round;stroke-dasharray:none;stroke-opacity:1;paint-order:stroke fill markers"
       transform="scale(1.3333333)" />
    <path
       id="path19"
       d="m 83.633,46.902 c 0.422,-0.445 1.746,0.536 3.539,2.039 1.148,0.965 2.465,2.188 3.906,3.414 0.152,0.129 0.301,0.254 0.449,0.379 0.676,0.559 1.239,1.016 1.84,1.387 0.535,0.266 0.793,0.504 0.985,0.488 -0.067,0.149 0.097,0.043 0.238,-0.062 0.734,-0.914 0.762,-2.25 1.164,-2.281 0.398,-0.036 1.281,0.863 0.738,3.015 -0.195,0.692 -0.812,1.418 -1.969,1.645 -0.984,0.066 -1.855,-0.18 -2.484,-0.547 -0.863,-0.418 -1.637,-0.945 -2.371,-1.547 -0.168,-0.133 -0.336,-0.27 -0.504,-0.41 -1.559,-1.332 -2.828,-2.781 -3.726,-3.961 -1.446,-1.859 -2.028,-3.324 -1.805,-3.559 z"
       style="fill:#1b1f23;fill-opacity:1;fill-rule:nonzero;stroke:#f6f8fa;stroke-width:0.75;stroke-linecap:round;stroke-linejoin:round;stroke-dasharray:none;stroke-opacity:1;paint-order:stroke fill markers"
       transform="scale(1.3333333)" />
    <path
       id="path20"
       d="m 84.953,54.035 c -0.566,-0.535 0.231,-2.199 1.781,-3.719 1.551,-1.523 3.27,-2.324 3.84,-1.789 0.567,0.535 -0.226,2.203 -1.777,3.719 -1.551,1.524 -3.274,2.324 -3.844,1.789 z"
       style="fill:#1b1f23;fill-opacity:1;fill-rule:nonzero;stroke:#f6f8fa;stroke-width:0.75;stroke-linecap:round;stroke-linejoin:round;stroke-dasharray:none;stroke-opacity:1;paint-order:stroke fill markers"
       transform="scale(1.3333333)" />
    <path
       id="path21"
       d="m 207.422,75.535 c -0.512,-0.105 -0.207,-1.648 1.629,-3.074 0.64,-0.688 1.66,-1.344 1.433,-1.672 0.391,0.793 0.215,1.059 0.145,0.777 -0.399,-0.066 -0.871,0 -1.434,0.11 -0.894,0.308 -1.98,0.742 -2.156,1.269 -0.027,0.078 -0.035,0.153 -0.023,0.231 -0.325,0.418 0.527,1.23 1.222,1.769 1.172,0.582 2.18,0.899 2.914,0.582 1.516,0.25 2.114,-3.234 2.485,-3.023 0.367,0.215 1.968,2.172 -1.532,4.93 -1.488,0.789 -3.433,0.781 -5.109,-0.145 -1.508,-0.625 -2.973,-2.281 -2.754,-4.664 0.086,-0.281 0.192,-0.547 0.313,-0.801 0.898,-1.844 2.664,-2.691 4.156,-2.812 0.785,-0.137 1.625,-0.133 2.465,0.07 0.668,-0.148 1.437,0.621 1.695,2.09 -0.617,1.871 -2.055,2.519 -2.75,2.797 -1.785,1.164 -2.355,1.636 -2.699,1.566 z"
       style="fill:#1b1f23;fill-opacity:1;fill-rule:nonzero;stroke:#f6f8fa;stroke-width:0.75;stroke-linecap:round;stroke-linejoin:round;stroke-dasharray:none;stroke-opacity:1;paint-order:stroke fill markers"
       transform="scale(1.3333333)" />
    <path
       id="path22"
       d="m 209.504,67.438 c 0.437,-0.559 3.043,1.378 6.195,2.585 0.613,-0.07 0.235,0.176 -0.316,0.227 -0.098,0.16 -0.184,0.289 -0.258,0.391 -0.266,0.363 -0.363,0.394 -0.203,0.23 -0.07,-0.898 -0.512,-1.937 -0.75,-3.012 -0.606,-2.543 -0.317,-4.347 0.308,-4.355 0.348,0 1.118,1.496 2.024,3.578 0.363,0.77 0.988,1.977 1.215,3.434 0.215,0.254 0.152,0.785 -0.317,1.488 -0.132,0.199 -0.3,0.414 -0.5,0.633 -1.324,0.453 -2.132,0.277 -2.32,-0.047 -3.961,-1.883 -5.516,-4.598 -5.078,-5.152 z"
       style="fill:#1b1f23;fill-opacity:1;fill-rule:nonzero;stroke:#f6f8fa;stroke-width:0.75;stroke-linecap:round;stroke-linejoin:round;stroke-dasharray:none;stroke-opacity:1;paint-order:stroke fill markers"
       transform="scale(1.3333333)" />
    <path
       id="path23"
       d="m 217.367,64.637 c -0.347,-0.325 0.793,-1.86 1.645,-4.18 0.281,0.973 0.078,1.426 0.164,1.105 -0.383,-0.019 -0.817,0.09 -1.266,0.278 -0.348,0.211 -0.683,0.414 -0.633,0.551 -0.086,0.066 -0.078,0.191 -0.011,0.379 0.101,0.269 0.316,0.652 0.507,1.074 1.028,1.269 1.641,2.25 2.43,2.148 1.391,0.563 2.539,-2.09 2.985,-1.941 0.445,0.148 1.214,3.246 -2.809,4.226 -2.031,0.114 -3.922,-1.097 -4.93,-2.882 -0.429,-0.504 -0.797,-1.207 -0.929,-2.067 -0.086,-0.578 -0.067,-1.207 0.097,-1.863 0.524,-1.207 1.442,-1.895 2.328,-2.153 0.844,-0.304 1.743,-0.371 2.594,-0.207 0.856,-0.21 1.57,0.778 1.539,2.379 -1.613,2.614 -3.363,3.477 -3.711,3.153 z"
       style="fill:#1b1f23;fill-opacity:1;fill-rule:nonzero;stroke:#f6f8fa;stroke-width:0.75;stroke-linecap:round;stroke-linejoin:round;stroke-dasharray:none;stroke-opacity:1;paint-order:stroke fill markers"
       transform="scale(1.3333333)" />
    <path
       id="path25"
       d="m 222.762,59.504 c -0.465,0.074 -1.324,-0.84 -1.235,-2.992 -0.015,-0.629 0.274,-1.45 1.231,-2.153 1.402,-0.578 2.746,-0.39 3.68,0.086 0.164,0.086 0.312,0.176 0.437,0.27 1.332,0.566 2.148,1.183 2.859,1.394 0.227,0.032 0.352,0.18 0.368,0.2 0.425,0.16 0.753,-0.84 1.101,-0.829 0.348,0.008 1.176,0.614 0.149,2.153 -0.508,0.512 -1.235,0.832 -1.911,0.746 -1.402,-0.051 -2.519,-0.559 -3.687,-1.074 -0.176,-0.039 -0.344,-0.09 -0.5,-0.145 -0.844,-0.297 -1.227,-0.676 -1.262,-0.488 0.043,-0.192 -0.027,-0.016 -0.215,0.25 -0.515,1.187 -0.554,2.508 -1.015,2.582 z"
       style="fill:#1b1f23;fill-opacity:1;fill-rule:nonzero;stroke:#f6f8fa;stroke-width:0.75;stroke-linecap:round;stroke-linejoin:round;stroke-dasharray:none;stroke-opacity:1;paint-order:stroke fill markers"
       transform="scale(1.3333333)" />
    <path
       id="path24"
       d="m 219.387,57.152 c 0.461,-0.617 2.523,0.078 4.523,1.75 2.016,1.684 3.051,3.618 2.492,4.176 -0.543,0.543 -2.425,-0.433 -4.304,-2 -1.899,-1.582 -3.184,-3.293 -2.711,-3.926 z"
       style="fill:#1b1f23;fill-opacity:1;fill-rule:nonzero;stroke:#f6f8fa;stroke-width:0.75;stroke-linecap:round;stroke-linejoin:round;stroke-dasharray:none;stroke-opacity:1;paint-order:stroke fill markers"
       transform="scale(1.3333333)" />
    <path
       id="path26"
       d="m 221.941,45.457 c 0.426,-0.453 1.711,0.566 3.457,2.121 1.122,1 2.399,2.266 3.801,3.535 0.145,0.133 0.293,0.266 0.438,0.395 0.656,0.578 1.207,1.051 1.793,1.437 0.519,0.278 0.773,0.524 0.961,0.512 -0.071,0.148 0.093,0.047 0.23,-0.062 0.738,-0.93 0.777,-2.297 1.172,-2.325 0.391,-0.027 1.246,0.895 0.691,3.094 -0.199,0.711 -0.812,1.445 -1.949,1.668 -0.969,0.055 -1.82,-0.207 -2.437,-0.586 -0.84,-0.437 -1.594,-0.988 -2.313,-1.605 -0.164,-0.141 -0.324,-0.286 -0.488,-0.43 -1.512,-1.379 -2.746,-2.879 -3.617,-4.09 -1.403,-1.922 -1.957,-3.426 -1.739,-3.664 z"
       style="fill:#1b1f23;fill-opacity:1;fill-rule:nonzero;stroke:#f6f8fa;stroke-width:0.75;stroke-linecap:round;stroke-linejoin:round;stroke-dasharray:none;stroke-opacity:1;paint-order:stroke fill markers"
       transform="scale(1.3333333)" />
    <path
       id="path27"
       d="m 223.168,52.773 c -0.551,-0.55 0.246,-2.25 1.785,-3.793 1.539,-1.539 3.238,-2.343 3.789,-1.789 0.555,0.551 -0.246,2.25 -1.785,3.789 -1.539,1.543 -3.238,2.348 -3.789,1.793 z"
       style="fill:#1b1f23;fill-opacity:1;fill-rule:nonzero;stroke:#f6f8fa;stroke-width:0.75;stroke-linecap:round;stroke-linejoin:round;stroke-dasharray:none;stroke-opacity:1;paint-order:stroke fill markers"
       transform="scale(1.3333333)" />
    <path
       id="path28"
       d="m 241.543,41.305 c 0.031,0.535 -3.625,0.57 -4.234,2.804 0.015,0.059 0.089,0.301 0.105,0.391 0.77,0.949 1.102,2.07 1.438,1.855 -0.086,0.051 -0.161,0.083 -0.219,0.098 -0.305,0.082 -0.219,-0.219 0.078,-0.398 0.34,-0.602 0.586,-1.434 0.863,-2.215 0.067,-0.469 0.297,-1.36 1.102,-2.25 0.886,-0.578 1.433,-0.598 1.59,-0.481 0.625,-0.015 1.211,0.024 1.687,0.071 1.809,0.14 2.91,0.562 2.949,0.761 0.094,0.485 -1.074,0.782 -2.867,1.114 -0.441,0.082 -1.035,0.179 -1.512,0.285 -0.48,0.211 -0.55,0.09 -0.171,-0.031 -0.071,-0.036 0.062,0.433 -0.247,1.265 -0.179,0.785 -0.417,1.766 -0.902,2.762 -0.164,0.726 -0.879,1.461 -2.144,1.699 -0.258,0.047 -0.539,0.078 -0.836,0.078 -2.063,-0.758 -2.852,-2.371 -3.141,-3.32 -0.562,-0.961 -0.473,-2.078 0.102,-2.957 3.046,-3.867 6.328,-2.063 6.359,-1.531 z"
       style="fill:#1b1f23;fill-opacity:1;fill-rule:nonzero;stroke:#f6f8fa;stroke-width:0.75;stroke-linecap:round;stroke-linejoin:round;stroke-dasharray:none;stroke-opacity:1;paint-order:stroke fill markers"
       transform="scale(1.3333333)" />
    <path
       id="path29"
       d="m 252.234,46.484 c -0.25,0.25 -1.574,-0.574 -3.714,-1.976 -1.872,-1.223 -5.602,-3.625 -7.868,-7.164 0.082,-0.399 0.2,-0.797 0.352,-1.192 1.324,-3.425 4.633,-5.222 7.426,-4.031 1.371,0.973 1.703,2.527 1.355,3.746 -1.363,3.703 -4.082,3.539 -4.285,3.176 -0.199,-0.363 2.211,-1.57 2.254,-3.668 0.047,-0.406 -0.219,-1.027 -0.621,-1.141 -0.887,-1.062 -2.473,0.395 -3.574,2.149 -0.133,0.215 -0.254,0.426 -0.364,0.629 1.446,2.332 5.032,4.836 6.539,6.172 1.899,1.683 2.782,3.019 2.5,3.3 z"
       style="fill:#1b1f23;fill-opacity:1;fill-rule:nonzero;stroke:#f6f8fa;stroke-width:0.75;stroke-linecap:round;stroke-linejoin:round;stroke-dasharray:none;stroke-opacity:1;paint-order:stroke fill markers"
       transform="scale(1.3333333)" />
    <path
       id="path30"
       d="m 257.855,40.57 c -0.21,0.332 -1.793,-0.211 -3.906,-2.043 -2.082,-1.804 -4.422,-4.953 -7.09,-7.754 -0.136,-0.144 -0.273,-0.285 -0.41,-0.421 0.551,-1.903 1.485,-3.739 3.035,-4.997 1.106,-0.722 2.563,-0.667 3.696,0.114 4,4.34 -0.848,7.199 -1.246,6.894 -0.395,-0.308 2.046,-4.543 -0.207,-4.996 -0.075,-0.144 -0.485,0.024 -0.832,0.219 -0.907,0.293 -1.461,1.156 -2.176,2.281 0.152,0.133 0.301,0.266 0.449,0.403 2.172,2 5.379,6.144 6.25,7.16 1.492,1.742 2.648,2.808 2.437,3.14 z"
       style="fill:#1b1f23;fill-opacity:1;fill-rule:nonzero;stroke:#f6f8fa;stroke-width:0.75;stroke-linecap:round;stroke-linejoin:round;stroke-dasharray:none;stroke-opacity:1;paint-order:stroke fill markers"
       transform="scale(1.3333333)" />
    <path
       id="path31"
       d="m 246.785,14.617 c 0.766,-0.152 2.219,4.824 6.5,8.574 0.891,0.782 1.805,1.43 2.719,1.961 0.617,0.344 1.098,0.61 1.57,0.723 0.41,-0.121 0.328,0.18 0.047,0.301 0.031,0.379 -0.141,0.418 -0.117,-0.121 -0.473,-1.469 -1.274,-2.485 -1.016,-2.746 0.262,-0.258 1.438,0.07 2.7,1.843 0.398,0.317 0.73,1.082 0.203,2.36 -0.809,0.761 -1.692,0.996 -2.196,0.761 -0.879,-0.101 -1.687,-0.382 -2.429,-0.75 -1.145,-0.543 -2.278,-1.273 -3.34,-2.199 -5.621,-4.898 -5.114,-10.609 -4.641,-10.707 z"
       style="fill:#1b1f23;fill-opacity:1;fill-rule:nonzero;stroke:#f6f8fa;stroke-width:0.75;stroke-linecap:round;stroke-linejoin:round;stroke-dasharray:none;stroke-opacity:1;paint-order:stroke fill markers"
       transform="scale(1.3333333)" />
    <path
       id="path32"
       d="m 257.168,21.34 c -0.066,-1.313 0.789,-1.625 1.762,-0.945 0.976,0.671 1.879,2.125 2.121,3.187 0.246,1.055 -0.219,1.895 -1.504,1.309 -1.277,-0.582 -2.32,-2.227 -2.379,-3.551 z"
       style="fill:#1b1f23;fill-opacity:1;fill-rule:nonzero;stroke:#f6f8fa;stroke-width:0.75;stroke-linecap:round;stroke-linejoin:round;stroke-dasharray:none;stroke-opacity:1;paint-order:stroke fill markers"
       transform="scale(1.3333333)" />
    <path
       id="path33"
       d="m 253.359,17.391 c 0.043,-0.852 0.75,-1.407 1.598,-1.203 0.809,0.191 1.453,0.996 1.477,1.812 0,0.043 -0.004,0.086 -0.004,0.125 -0.063,0.902 -0.84,1.359 -1.637,1.156 -0.035,-0.011 -0.074,-0.023 -0.109,-0.035 -0.789,-0.246 -1.368,-1.043 -1.325,-1.855 z"
       style="fill:#1b1f23;fill-opacity:1;fill-rule:nonzero;stroke:#f6f8fa;stroke-width:0.75;stroke-linecap:round;stroke-linejoin:round;stroke-dasharray:none;stroke-opacity:1;paint-order:stroke fill markers"
       transform="scale(1.3333333)" />
    <path
       id="path34"
       d="m 2.277,175.734 c 0.004,-1.043 60.157,-1.765 134.27,-1.613 74.117,0.152 134.265,1.121 134.262,2.16 0,1.043 -60.153,1.766 -134.27,1.614 C 62.426,177.742 2.273,176.773 2.277,175.734 Z"
       style="fill:#1b1f23;fill-opacity:1;fill-rule:nonzero;stroke:#f6f8fa;stroke-width:0.75;stroke-linecap:round;stroke-linejoin:round;stroke-dasharray:none;stroke-opacity:1;paint-order:stroke fill markers"
       transform="scale(1.3333333)" />
    <path
       id="path35"
       d="m 123.141,71.422 c -0.258,0.293 -1.27,-0.313 -2.297,-0.18 -0.336,0.024 -0.719,0.266 -0.996,0.617 -0.114,0.164 -0.184,0.407 -0.168,0.61 -0.016,0.23 0.07,0.519 0.191,0.871 0.285,0.668 0.754,1.351 1.328,1.66 0.203,0.07 0.313,0.148 0.25,0.094 -0.101,0.047 -0.117,0.023 -0.082,-0.008 0.008,-0.008 0.024,-0.016 0.035,-0.024 0.231,-0.187 0.371,-0.703 0.578,-1.308 0.301,-1.082 0.415,-2.328 0.504,-3.457 0.071,-1.094 0.297,-2.359 0.391,-3.051 0.344,-2.742 0.832,-4.461 1.375,-4.461 0.543,0 1.035,1.719 1.379,4.461 0.113,0.992 0.113,2.055 0.195,3.051 0.09,1.246 0.09,2.738 -0.238,4.316 -0.148,0.86 -0.52,1.899 -1.328,2.914 -0.121,0.153 -0.258,0.293 -0.406,0.422 -0.567,0.492 -1.321,0.813 -2.2,0.903 -1.035,0 -1.871,-0.297 -2.464,-0.739 -1.458,-1.008 -2.286,-2.445 -2.59,-3.836 -0.2,-0.773 -0.207,-1.609 -0.012,-2.429 0.242,-0.926 0.789,-1.66 1.457,-2.149 1.086,-0.785 2.34,-0.832 3.273,-0.515 1.942,0.816 2.082,1.945 1.825,2.238 z"
       style="fill:#1b1f23;fill-opacity:1;fill-rule:nonzero;stroke:#f6f8fa;stroke-width:0.75;stroke-linecap:round;stroke-linejoin:round;stroke-dasharray:none;stroke-opacity:1;paint-order:stroke fill markers"
       transform="scale(1.3333333)" />
    <path
       id="path36"
       d="m 267.793,9.449 c 0.023,0.391 -1.117,0.676 -1.75,1.496 -0.223,0.258 -0.32,0.7 -0.27,1.145 0.039,0.195 0.161,0.414 0.317,0.547 0.148,0.175 0.414,0.316 0.75,0.48 0.676,0.27 1.488,0.422 2.113,0.235 0.192,-0.094 0.324,-0.118 0.242,-0.11 -0.039,0.102 -0.066,0.098 -0.062,0.051 0,-0.012 0.004,-0.027 0.008,-0.043 0.031,-0.293 -0.235,-0.758 -0.52,-1.332 -0.551,-0.977 -1.351,-1.938 -2.09,-2.801 -0.722,-0.82 -1.457,-1.875 -1.883,-2.429 -1.695,-2.18 -2.566,-3.743 -2.183,-4.126 0.383,-0.386 1.945,0.481 4.129,2.176 0.785,0.621 1.535,1.371 2.297,2.016 0.945,0.816 2.004,1.871 2.886,3.219 0.504,0.711 0.977,1.711 1.125,3 0.024,0.191 0.024,0.386 0.012,0.586 -0.051,0.746 -0.359,1.507 -0.914,2.195 -0.73,0.73 -1.531,1.113 -2.266,1.219 -1.742,0.32 -3.343,-0.11 -4.543,-0.875 -0.687,-0.407 -1.285,-0.993 -1.726,-1.707 -0.485,-0.829 -0.617,-1.735 -0.492,-2.551 0.211,-1.324 1.062,-2.246 1.945,-2.68 1.953,-0.797 2.848,-0.101 2.875,0.289 z"
       style="fill:#1b1f23;fill-opacity:1;fill-rule:nonzero;stroke:#f6f8fa;stroke-width:0.75;stroke-linecap:round;stroke-linejoin:round;stroke-dasharray:none;stroke-opacity:1;paint-order:stroke fill markers"
       transform="scale(1.3333333)" />
    <path
       id="path37"
       d="m 75.785,156.148 c -0.008,-1.039 9.774,-1.933 21.828,-1.992 12.055,-0.058 21.84,0.739 21.848,1.778 0.004,1.043 -9.777,1.937 -21.832,1.996 -12.055,0.058 -21.84,-0.739 -21.844,-1.782 z"
       style="fill:#1b1f23;fill-opacity:1;fill-rule:nonzero;stroke:#f6f8fa;stroke-width:0.75;stroke-linecap:round;stroke-linejoin:round;stroke-dasharray:none;stroke-opacity:1;paint-order:stroke fill markers"
       transform="scale(1.3333333)" />
    <path
       id="path38"
       d="m 117.707,147.5 c 0.613,-0.734 4.934,1.816 10.148,5.672 0.43,0.305 0.977,0.691 1.54,1.215 0.14,0.133 0.281,0.269 0.421,0.418 0.176,0.074 0.442,0.5 0.715,1.281 0.078,0.957 -0.183,1.676 -0.742,2.117 -1.012,0.664 -1.699,0.817 -1.934,0.781 -0.828,0.192 -1.527,0.348 -2.222,0.543 -4.305,1.188 -7.25,3.114 -7.758,2.504 -0.383,-0.461 1.52,-3.726 6.609,-5.812 0.801,-0.324 1.606,-0.582 2.434,-0.821 0.605,-0.261 0.785,-0.179 0.461,-0.078 -0.399,0.309 -0.563,0.817 -0.527,1.567 0.203,0.468 0.242,0.64 0.199,0.48 -0.063,-0.07 -0.137,-0.144 -0.215,-0.215 -0.324,-0.297 -0.77,-0.613 -1.262,-1.015 -5.082,-4.063 -8.484,-7.907 -7.867,-8.637 z"
       style="fill:#1b1f23;fill-opacity:1;fill-rule:nonzero;stroke:#f6f8fa;stroke-width:0.75;stroke-linecap:round;stroke-linejoin:round;stroke-dasharray:none;stroke-opacity:1;paint-order:stroke fill markers"
       transform="scale(1.3333333)" />
    <path
       id="path39"
       d="m 138.504,112.133 c 1.043,0.015 1.684,12.949 1.434,28.871 -0.247,15.918 -1.293,28.824 -2.336,28.808 -1.043,-0.015 -1.684,-12.949 -1.438,-28.867 0.25,-15.922 1.297,-28.828 2.34,-28.812 z"
       style="fill:#1b1f23;fill-opacity:1;fill-rule:nonzero;stroke:#f6f8fa;stroke-width:0.75;stroke-linecap:round;stroke-linejoin:round;stroke-dasharray:none;stroke-opacity:1;paint-order:stroke fill markers"
       transform="scale(1.3333333)" />
    <path
       id="path40"
       d="m 90.211,134.398 c 1.125,-0.035 1.863,1.997 1.457,4.375 -0.356,2.11 -1.406,3.735 -2.336,3.735 -1.125,0 -1.797,-2.035 -1.394,-4.371 0.355,-2.067 1.347,-3.711 2.273,-3.739 z"
       style="fill:#1b1f23;fill-opacity:1;fill-rule:nonzero;stroke:#f6f8fa;stroke-width:0.75;stroke-linecap:round;stroke-linejoin:round;stroke-dasharray:none;stroke-opacity:1;paint-order:stroke fill markers"
       transform="scale(1.3333333)" />
    <path
       id="path41"
       d="m 90.406,131.801 c -1.004,0.269 -2.172,-0.985 -2.027,-2.606 0.144,-1.691 1.422,-2.484 2.375,-2.211 1.016,0.289 1.508,1.571 1.371,2.602 -0.109,0.863 -0.793,1.961 -1.719,2.215 z"
       style="fill:#1b1f23;fill-opacity:1;fill-rule:nonzero;stroke:#f6f8fa;stroke-width:0.75;stroke-linecap:round;stroke-linejoin:round;stroke-dasharray:none;stroke-opacity:1;paint-order:stroke fill markers"
       transform="scale(1.3333333)" />
    <path
       id="path42"
       d="m 100.355,121.727 c 0.899,0.531 -1.253,5.324 -2.464,11.281 -0.11,0.535 -0.203,1.062 -0.289,1.582 -0.27,2.039 -0.481,3.32 -0.122,4.547 0.137,0.543 0.332,0.976 0.598,1.301 0.613,0.839 1.664,1.171 1.652,1.601 -0.011,0.43 -1.023,1.141 -2.921,0.301 -0.778,-0.375 -1.551,-1.051 -2.067,-2.02 -0.957,-1.828 -1.18,-4.011 -0.84,-6.258 0.075,-0.593 0.172,-1.195 0.293,-1.804 1.43,-7.012 5.395,-10.981 6.16,-10.531 z"
       style="fill:#1b1f23;fill-opacity:1;fill-rule:nonzero;stroke:#f6f8fa;stroke-width:0.75;stroke-linecap:round;stroke-linejoin:round;stroke-dasharray:none;stroke-opacity:1;paint-order:stroke fill markers"
       transform="scale(1.3333333)" />
    <path
       id="path44"
       d="m 104.289,124.051 c 0.637,0.265 0.328,2.5 -0.152,5.629 -0.223,1.504 -0.535,3.386 -0.629,5.136 -0.016,0.235 -0.024,0.465 -0.031,0.692 0.085,1.762 -0.012,2.902 0.57,3.597 0.164,0.34 0.562,0.629 0.945,0.817 1.254,0.601 2.656,0.504 2.797,0.988 0.141,0.488 -0.758,1.61 -3.234,1.582 -0.895,-0.031 -1.957,-0.355 -2.887,-1.219 -1.496,-1.585 -2.098,-3.753 -1.953,-5.824 0,-0.281 0.012,-0.566 0.027,-0.847 0.129,-2.196 0.656,-4.176 1.235,-5.743 1.183,-3.254 2.675,-5.074 3.312,-4.808 z"
       style="fill:#1b1f23;fill-opacity:1;fill-rule:nonzero;stroke:#f6f8fa;stroke-width:0.75;stroke-linecap:round;stroke-linejoin:round;stroke-dasharray:none;stroke-opacity:1;paint-order:stroke fill markers"
       transform="scale(1.3333333)" />
    <path
       id="path43"
       d="m 92.344,130.332 c 0,-1.039 3.113,-1.887 6.945,-1.887 3.836,0 6.949,0.848 6.949,1.887 0,1.043 -3.113,1.887 -6.949,1.887 -3.832,0 -6.945,-0.844 -6.945,-1.887 z"
       style="fill:#1b1f23;fill-opacity:1;fill-rule:nonzero;stroke:#f6f8fa;stroke-width:0.75;stroke-linecap:round;stroke-linejoin:round;stroke-dasharray:none;stroke-opacity:1;paint-order:stroke fill markers"
       transform="scale(1.3333333)" />
    <path
       id="path45"
       d="m 107.477,136.543 c -0.11,-0.566 1.019,-0.938 2.804,-1.133 0.711,-0.121 1.594,-0.195 1.875,-0.531 0.563,-0.555 1.156,-0.754 0.75,-0.582 0.121,0.73 0.055,1.031 0.231,0.973 -0.137,-0.063 -0.399,-0.051 -0.692,-0.02 -0.195,0.09 -0.363,0.113 -0.289,0.094 0.004,-0.004 0.012,-0.004 0.024,-0.008 -0.973,1.941 -1.797,3.367 -1.157,4.184 0.075,0.355 0.528,0.687 0.946,0.878 1.422,0.625 3.015,0.215 3.219,0.676 0.203,0.465 -0.731,1.922 -3.61,1.895 -1.043,-0.028 -2.301,-0.481 -3.246,-1.692 -1.52,-2.48 -1.148,-5.73 0.707,-8.035 0.063,-0.082 0.125,-0.16 0.191,-0.234 0.793,-0.93 1.77,-1.391 2.688,-1.457 0.93,-0.145 1.918,0.015 2.832,0.472 1.016,0.356 1.629,1.516 1.543,3.098 -0.809,1.817 -2.012,2.418 -2.754,2.527 -1.48,0.532 -2.687,0.313 -3.426,0.09 -1.59,-0.371 -2.593,-0.965 -2.636,-1.195 z"
       style="fill:#1b1f23;fill-opacity:1;fill-rule:nonzero;stroke:#f6f8fa;stroke-width:0.75;stroke-linecap:round;stroke-linejoin:round;stroke-dasharray:none;stroke-opacity:1;paint-order:stroke fill markers"
       transform="scale(1.3333333)" />
    <path
       id="path46"
       d="m 118.457,132.414 c 1.039,0 1.887,2.313 1.887,5.164 0,2.848 -0.848,5.16 -1.887,5.16 -1.043,0 -1.887,-2.312 -1.887,-5.16 0,-2.851 0.844,-5.164 1.887,-5.164 z"
       style="fill:#1b1f23;fill-opacity:1;fill-rule:nonzero;stroke:#f6f8fa;stroke-width:0.75;stroke-linecap:round;stroke-linejoin:round;stroke-dasharray:none;stroke-opacity:1;paint-order:stroke fill markers"
       transform="scale(1.3333333)" />
    <path
       id="path47"
       d="m 119.145,135.793 c -0.352,-0.383 -0.461,-0.949 -0.059,-1.574 0.394,-0.61 1.238,-1.141 2.309,-1.133 0.046,0 0.093,0 0.14,0.004 0.848,0.035 1.305,0.348 1.621,0.699 0.278,0.301 0.59,0.805 0.664,1.258 0.082,0.519 -0.14,0.992 -0.699,1.348 -0.555,0.355 -1.242,0.472 -1.715,0.46 -0.011,0.004 -0.027,0.004 -0.043,0.004 -0.304,-0.004 -0.621,-0.148 -1.004,-0.32 -0.328,-0.152 -0.902,-0.402 -1.214,-0.746 z"
       style="fill:#1b1f23;fill-opacity:1;fill-rule:nonzero;stroke:#f6f8fa;stroke-width:0.75;stroke-linecap:round;stroke-linejoin:round;stroke-dasharray:none;stroke-opacity:1;paint-order:stroke fill markers"
       transform="scale(1.3333333)" />
    <path
       id="path48"
       d="m 84.438,134.973 c 0.339,0.078 0.89,1.3 1.3,3.05 0.258,1.004 0.59,2.457 0.758,3.981 0.113,0.973 0.172,2.121 0.004,3.351 -0.043,0.313 -0.102,0.622 -0.172,0.934 -0.273,1.441 -1.187,2.773 -2.562,3.617 -0.797,0.489 -1.84,0.637 -2.895,0.41 -0.98,-0.316 -1.594,-0.91 -1.93,-1.515 -1.355,-2.324 -0.031,-3.867 0.477,-3.727 0.512,0.137 0.742,1.403 1.676,2.094 0.199,0.102 0.394,0.176 0.429,0.078 0.028,0 0.176,-0.176 0.446,-0.332 0.308,-0.164 0.469,-0.734 0.691,-1.465 0.047,-0.191 0.082,-0.39 0.11,-0.601 0.109,-0.801 0.105,-1.762 0.125,-2.653 0.011,-1.539 -0.008,-2.691 0.113,-3.965 0.176,-2.128 0.816,-3.402 1.43,-3.257 z"
       style="fill:#1b1f23;fill-opacity:1;fill-rule:nonzero;stroke:#f6f8fa;stroke-width:0.75;stroke-linecap:round;stroke-linejoin:round;stroke-dasharray:none;stroke-opacity:1;paint-order:stroke fill markers"
       transform="scale(1.3333333)" />
    <path
       id="path49"
       d="m 83.957,127.941 c 0.914,0.348 1.535,1.325 1.504,2.075 -0.035,0.941 -0.848,1.898 -1.91,1.898 -1.039,0 -1.961,-0.844 -1.86,-2.137 0.106,-1.293 1.293,-2.203 2.266,-1.836 z"
       style="fill:#1b1f23;fill-opacity:1;fill-rule:nonzero;stroke:#f6f8fa;stroke-width:0.75;stroke-linecap:round;stroke-linejoin:round;stroke-dasharray:none;stroke-opacity:1;paint-order:stroke fill markers"
       transform="scale(1.3333333)" />
    <path
       id="path50"
       d="m 97.668,44.602 c -0.426,-0.633 -0.66,-1.118 -0.484,-1.465 0.168,-0.336 0.777,-0.539 1.8,-0.219 1.036,0.324 2.024,1.039 2.828,1.859 0.864,0.84 1.532,1.793 1.891,2.59 0.684,1.512 0.109,2.309 -1.66,1.391 -0.844,-0.438 -1.695,-1.153 -2.461,-1.895 -0.809,-0.75 -1.508,-1.656 -1.914,-2.261 z"
       style="fill:#1b1f23;fill-opacity:1;fill-rule:nonzero;stroke:#f6f8fa;stroke-width:0.75;stroke-linecap:round;stroke-linejoin:round;stroke-dasharray:none;stroke-opacity:1;paint-order:stroke fill markers"
       transform="scale(1.3333333)" />
    <path
       id="path51"
       d="m 102.254,44.949 c -0.192,0.446 -0.418,0.875 -0.766,1.035 -0.347,0.168 -0.894,0.059 -1.383,-0.652 -0.484,-0.715 -0.648,-1.664 -0.539,-2.484 0.02,-0.856 0.313,-1.77 0.864,-2.403 1.191,-1.363 1.851,-0.16 2.078,0.676 0.144,0.524 0.246,1.195 0.164,1.938 0.004,0.785 -0.203,1.398 -0.418,1.89 z"
       style="fill:#1b1f23;fill-opacity:1;fill-rule:nonzero;stroke:#f6f8fa;stroke-width:0.75;stroke-linecap:round;stroke-linejoin:round;stroke-dasharray:none;stroke-opacity:1;paint-order:stroke fill markers"
       transform="scale(1.3333333)" />
    <path
       id="path52"
       d="m 107.586,41.262 c -1.777,1.746 -2.832,2.254 -3.129,1.996 -0.379,-0.328 0.258,-1.414 1.492,-3.43 0.457,-0.746 0.926,-1.566 1.121,-2.418 0.024,0.86 0.172,1.317 0.594,1.406 0.129,0.028 0.102,0.075 -0.09,0.059 -0.465,0.043 -0.953,0.207 -1.433,0.441 -0.446,0.278 -0.836,0.524 -0.868,0.754 -0.203,0.133 0.036,0.649 0.266,1.211 0.367,0.504 0.633,0.934 0.895,0.949 0.207,0.145 0.671,0.02 1.148,-0.128 0.359,-0.141 0.695,-0.317 1.012,-0.508 1.738,-1.071 2.578,-2.078 2.91,-1.86 0.332,0.215 0.332,1.664 -1.637,3.582 -0.308,0.297 -0.66,0.59 -1.062,0.86 -0.707,0.492 -1.719,0.847 -2.973,0.691 -1.352,-0.324 -2.363,-1.14 -2.906,-2.097 -0.711,-0.946 -1.051,-2.348 -0.516,-3.879 0.57,-1.129 1.477,-1.856 2.395,-2.219 0.824,-0.375 1.734,-0.582 2.664,-0.59 0.277,-0.031 0.719,0.02 1.277,0.215 0.672,0.187 1.024,0.891 0.961,2 -0.582,1.273 -1.391,2.242 -2.121,2.965 z"
       style="fill:#1b1f23;fill-opacity:1;fill-rule:nonzero;stroke:#f6f8fa;stroke-width:0.75;stroke-linecap:round;stroke-linejoin:round;stroke-dasharray:none;stroke-opacity:1;paint-order:stroke fill markers"
       transform="scale(1.3333333)" />
    <path
       id="path53"
       d="m 114.285,36.816 c 0.074,-0.023 0.074,-0.343 0.094,-0.644 -0.145,-1.676 -0.883,-2.734 -0.617,-2.922 0.265,-0.184 1.465,0.188 2.418,2.465 0.261,0.527 0.402,1.383 -0.172,2.371 -0.008,0.012 -0.016,0.023 -0.02,0.039 -0.586,0.668 -1.355,1.035 -2.07,1.066 -0.813,0.086 -1.609,0.004 -2.352,-0.203 -1.414,-0.308 -3.019,-1.148 -4.004,-2.832 -0.433,-0.832 -0.511,-1.816 -0.156,-2.773 0.535,-1.168 1.387,-1.953 2.227,-2.418 0.949,-0.473 1.805,-0.52 2.41,-0.297 0.82,0.219 1.48,0.555 2.008,0.898 1.558,0.969 2.836,2.145 3.894,3.204 0.918,0.91 1.743,1.816 2.434,2.628 0.34,0.403 0.648,0.782 0.914,1.122 0.48,0.609 0.871,1.152 1.129,1.546 0.43,0.641 0.57,1.055 0.469,1.18 -0.137,0.172 -0.575,0.051 -1.301,-0.375 -0.453,-0.266 -0.969,-0.625 -1.617,-1.113 -0.407,-0.305 -0.844,-0.645 -1.328,-1.035 -0.946,-0.754 -1.602,-1.293 -2.547,-2.047 -1.153,-0.91 -2.387,-1.91 -3.66,-2.617 -0.458,-0.243 -0.836,-0.45 -1.153,-0.504 -0.199,0.035 -0.199,-0.047 0.051,-0.09 -0.539,0.406 -1,0.707 -1.059,0.996 -0.066,0.086 -0.054,0.293 0.008,0.441 0.199,0.664 1.184,1.188 2.125,1.61 0.5,0.179 0.938,0.308 1.328,0.312 0.293,-0.047 0.512,0 0.496,-0.023 0.02,0.015 0.036,0.019 0.051,0.015 z"
       style="fill:#1b1f23;fill-opacity:1;fill-rule:nonzero;stroke:#f6f8fa;stroke-width:0.75;stroke-linecap:round;stroke-linejoin:round;stroke-dasharray:none;stroke-opacity:1;paint-order:stroke fill markers"
       transform="scale(1.3333333)" />
    <path
       id="path54"
       d="m 126.09,25.191 c -0.801,0.946 -1.875,1.332 -2.211,1.457 -0.477,0.176 -0.785,0.25 -0.93,0.125 -0.148,-0.125 -0.137,-0.476 0.188,-1.023 0.312,-0.531 1.058,-1.176 1.218,-1.77 0.024,-0.085 0.032,-0.168 0.016,-0.25 0.012,0.215 -0.141,0.368 -0.164,0.243 -0.191,-0.125 -0.484,-0.188 -0.828,-0.243 -0.324,-0.003 -0.59,-0.007 -0.652,0.082 0.039,-0.062 0.023,0.059 0.011,0.114 0.008,0.785 -0.086,1.453 0.184,1.539 0.016,0.187 0.519,0.234 1.043,0.285 1.012,-0.008 1.996,-0.375 2.824,-0.805 1.695,-0.879 2.383,-1.691 2.777,-1.422 0.329,0.219 0.27,1.579 -1.586,3.223 -0.886,0.785 -2.144,1.488 -3.707,1.75 -1.078,0.219 -2.418,-0.008 -3.585,-1 -1.133,-1.332 -1.321,-2.859 -1.004,-4.023 0.152,-0.981 0.808,-1.821 1.82,-2.297 0.934,-0.332 1.797,-0.321 2.484,-0.114 0.719,0.165 1.407,0.528 1.973,1.055 0.617,0.461 0.871,1.344 0.641,2.324 -0.161,0.293 -0.336,0.539 -0.512,0.75 z"
       style="fill:#1b1f23;fill-opacity:1;fill-rule:nonzero;stroke:#f6f8fa;stroke-width:0.75;stroke-linecap:round;stroke-linejoin:round;stroke-dasharray:none;stroke-opacity:1;paint-order:stroke fill markers"
       transform="scale(1.3333333)" />
    <path
       id="path55"
       d="m 265.188,18.801 c -0.801,0.945 -1.876,1.332 -2.208,1.457 -0.476,0.176 -0.785,0.25 -0.933,0.125 -0.149,-0.125 -0.137,-0.477 0.187,-1.024 0.313,-0.531 1.059,-1.175 1.223,-1.769 0.023,-0.086 0.027,-0.168 0.012,-0.25 0.015,0.215 -0.141,0.367 -0.164,0.242 -0.188,-0.125 -0.481,-0.187 -0.828,-0.242 -0.325,-0.004 -0.59,-0.008 -0.649,0.082 0.035,-0.063 0.02,0.058 0.012,0.113 0.004,0.785 -0.09,1.453 0.183,1.539 0.012,0.188 0.516,0.235 1.039,0.285 1.012,-0.007 1.997,-0.375 2.825,-0.804 1.699,-0.879 2.383,-1.692 2.781,-1.422 0.324,0.219 0.27,1.578 -1.59,3.222 -0.887,0.786 -2.144,1.489 -3.707,1.75 -1.074,0.219 -2.418,-0.007 -3.582,-1 -1.133,-1.332 -1.32,-2.859 -1.008,-4.023 0.153,-0.98 0.809,-1.82 1.824,-2.297 0.93,-0.332 1.793,-0.32 2.481,-0.113 0.719,0.164 1.406,0.527 1.973,1.055 0.617,0.461 0.871,1.343 0.64,2.324 -0.16,0.293 -0.336,0.539 -0.511,0.75 z"
       style="fill:#1b1f23;fill-opacity:1;fill-rule:nonzero;stroke:#f6f8fa;stroke-width:0.75;stroke-linecap:round;stroke-linejoin:round;stroke-dasharray:none;stroke-opacity:1;paint-order:stroke fill markers"
       transform="scale(1.3333333)" />
    <path
       id="path56"
       d="m 141.277,5.648 c 0.02,0.301 -0.902,0.528 -1.406,1.161 -0.18,0.199 -0.258,0.543 -0.215,0.886 0.028,0.153 0.125,0.325 0.25,0.426 0.121,0.137 0.336,0.246 0.606,0.371 0.539,0.211 1.195,0.328 1.695,0.184 0.156,-0.074 0.262,-0.094 0.195,-0.086 -0.031,0.078 -0.05,0.074 -0.05,0.039 0,-0.008 0.003,-0.024 0.007,-0.031 0.024,-0.231 -0.191,-0.59 -0.418,-1.036 C 141.5,6.805 140.855,6.059 140.262,5.395 139.68,4.754 139.09,3.938 138.75,3.508 c -1.363,-1.692 -2.066,-2.903 -1.758,-3.199 0.309,-0.297 1.567,0.375 3.32,1.687 0.629,0.481 1.235,1.063 1.848,1.563 0.758,0.636 1.606,1.453 2.317,2.496 0.406,0.55 0.785,1.324 0.906,2.324 0.015,0.152 0.019,0.305 0.008,0.457 -0.043,0.578 -0.289,1.168 -0.735,1.699 -0.59,0.57 -1.23,0.863 -1.82,0.949 -1.398,0.246 -2.688,-0.086 -3.652,-0.679 -0.551,-0.317 -1.032,-0.77 -1.387,-1.325 -0.391,-0.64 -0.496,-1.343 -0.395,-1.976 0.168,-1.027 0.856,-1.742 1.567,-2.078 1.566,-0.621 2.285,-0.078 2.308,0.222 z"
       style="fill:#1b1f23;fill-opacity:1;fill-rule:nonzero;stroke:#f6f8fa;stroke-width:0.75;stroke-linecap:round;stroke-linejoin:round;stroke-dasharray:none;stroke-opacity:1;paint-order:stroke fill markers"
       transform="scale(1.3333333)" />
    <path
       id="path57"
       d="m 138.781,13.484 c -0.648,0.778 -1.519,1.102 -1.789,1.204 -0.387,0.148 -0.64,0.207 -0.762,0.109 -0.125,-0.106 -0.121,-0.395 0.137,-0.844 0.25,-0.437 0.848,-0.973 0.977,-1.457 0.019,-0.074 0.023,-0.141 0.011,-0.211 0.008,0.176 -0.117,0.277 -0.136,0.188 -0.149,-0.098 -0.383,-0.149 -0.653,-0.192 -0.257,-0.004 -0.461,-0.008 -0.496,0.063 0.039,-0.059 0.035,0.043 0.02,0.094 0.004,0.656 -0.074,1.21 0.148,1.285 0,0.144 0.395,0.187 0.805,0.226 0.812,-0.004 1.602,-0.304 2.266,-0.66 1.379,-0.73 1.933,-1.398 2.265,-1.18 0.274,0.18 0.246,1.293 -1.258,2.657 -0.714,0.648 -1.734,1.23 -3.011,1.449 -0.887,0.183 -1.989,-0.012 -2.93,-0.836 -0.922,-1.102 -1.066,-2.356 -0.813,-3.305 0.114,-0.797 0.645,-1.492 1.481,-1.898 0.762,-0.281 1.473,-0.27 2.035,-0.098 0.59,0.137 1.152,0.438 1.61,0.879 0.5,0.387 0.703,1.109 0.515,1.906 -0.133,0.242 -0.277,0.446 -0.422,0.621 z"
       style="fill:#1b1f23;fill-opacity:1;fill-rule:nonzero;stroke:#f6f8fa;stroke-width:0.75;stroke-linecap:round;stroke-linejoin:round;stroke-dasharray:none;stroke-opacity:1;paint-order:stroke fill markers"
       transform="scale(1.3333333)" />
    <path
       id="path58"
       d="m 124.82,17.547 c 0.879,-1.692 1.809,-1.727 2.118,-1.488 0.312,0.242 -0.114,1.211 -0.055,2.183 0.004,0.059 0.012,0.117 0.023,0.172 0.094,0.031 0.125,0.027 -0.023,-0.262 0.043,0.024 0.297,-0.062 0.765,-0.027 0.497,-0.02 1.059,-0.078 1.696,-0.109 0.527,-0.039 1.179,-0.051 1.937,0.078 0.281,0.031 0.66,0.16 1.098,0.414 0.433,0.262 0.746,0.691 0.91,1.25 0.074,1.461 -0.453,2.246 -0.894,2.515 -0.438,0.497 -0.895,0.895 -1.325,1.215 -1.242,0.914 -2.082,1.055 -2.324,0.797 -0.293,-0.312 0.035,-1.051 0.746,-2.277 0.219,-0.375 0.461,-0.789 0.672,-1.203 0.152,-0.606 0.383,-0.715 0.215,-0.379 0.09,0.265 0.191,0.437 0.351,0.531 0.11,0.051 0.106,0.082 0,0.051 -0.3,-0.051 -0.726,-0.016 -1.281,-0.012 -0.59,0.012 -1.222,0.027 -1.91,-0.031 -0.543,0 -1.285,-0.156 -2.059,-0.602 -0.902,-0.742 -1.089,-1.629 -0.871,-2.336 0.063,-0.175 0.137,-0.336 0.211,-0.48 z"
       style="fill:#1b1f23;fill-opacity:1;fill-rule:nonzero;stroke:#f6f8fa;stroke-width:0.75;stroke-linecap:round;stroke-linejoin:round;stroke-dasharray:none;stroke-opacity:1;paint-order:stroke fill markers"
       transform="scale(1.3333333)" />
    <path
       id="path59"
       d="m 128.016,12.688 c -1.227,-1.778 -0.575,-2.352 1.386,-1.348 1.996,1.023 4.571,3.254 5.758,5.098 1.207,1.874 0.426,2.328 -1.433,1.3 -1.891,-1.043 -4.508,-3.308 -5.711,-5.05 z"
       style="fill:#1b1f23;fill-opacity:1;fill-rule:nonzero;stroke:#f6f8fa;stroke-width:0.75;stroke-linecap:round;stroke-linejoin:round;stroke-dasharray:none;stroke-opacity:1;paint-order:stroke fill markers"
       transform="scale(1.3333333)" />
    <path
       id="path60"
       d="m 130.258,16.176 c -1.012,0.594 -2.121,0.484 -1.828,-1.16 0.273,-1.5 1.843,-3.211 3.179,-3.75 1.309,-0.528 2.079,0.066 1.602,1.464 -0.465,1.375 -1.813,2.778 -2.953,3.446 z"
       style="fill:#1b1f23;fill-opacity:1;fill-rule:nonzero;stroke:#f6f8fa;stroke-width:0.75;stroke-linecap:round;stroke-linejoin:round;stroke-dasharray:none;stroke-opacity:1;paint-order:stroke fill markers"
       transform="scale(1.3333333)" />
    <path
       id="path61"
       d="m 113.031,28.273 c 0.496,-0.242 2.067,0.719 3.965,1.618 0.512,0.203 1.008,0.402 1.348,0.39 0.179,-0.062 0.218,-0.019 0.023,0.016 0.028,-0.004 0.055,-0.016 0.078,-0.039 0.285,-0.25 0.282,-1.387 0.078,-1.711 -0.468,-0.688 -1.324,-1.328 -1.804,-1.942 -0.496,-0.632 -0.621,-1.132 -0.399,-1.406 0.215,-0.258 0.735,-0.297 1.43,-0.211 0.617,0.078 1.812,0.313 3.059,1.125 1.765,1.34 2.738,4.188 0.707,6.602 -0.164,0.195 -0.344,0.383 -0.543,0.558 -1.168,0.801 -2.371,0.965 -3.344,0.711 -1.152,-0.277 -1.992,-0.785 -2.578,-1.285 -2.551,-1.996 -2.625,-4.133 -2.02,-4.426 z"
       style="fill:#1b1f23;fill-opacity:1;fill-rule:nonzero;stroke:#f6f8fa;stroke-width:0.75;stroke-linecap:round;stroke-linejoin:round;stroke-dasharray:none;stroke-opacity:1;paint-order:stroke fill markers"
       transform="scale(1.3333333)"
       inkscape:export-filename="hw_delay.svg"
       inkscape:export-xdpi="300"
       inkscape:export-ydpi="300" />
  </g>
</svg>
