<?xml version="1.0" encoding="UTF-8" standalone="no"?>
<!-- Created with Inkscape (http://www.inkscape.org/) -->

<svg
   version="1.1"
   id="svg1"
   width="4430.343"
   height="2776.7114"
   viewBox="0 0 443.0343 277.67114"
   sodipodi:docname="hw_interface.pdf"
   xmlns:inkscape="http://www.inkscape.org/namespaces/inkscape"
   xmlns:sodipodi="http://sodipodi.sourceforge.net/DTD/sodipodi-0.dtd"
   xmlns="http://www.w3.org/2000/svg"
   xmlns:svg="http://www.w3.org/2000/svg">
  <defs
     id="defs1" />
  <sodipodi:namedview
     id="namedview1"
     pagecolor="#505050"
     bordercolor="#eeeeee"
     borderopacity="1"
     inkscape:showpageshadow="0"
     inkscape:pageopacity="0"
     inkscape:pagecheckerboard="0"
     inkscape:deskcolor="#d1d1d1" />
  <g
     id="g1"
     inkscape:groupmode="layer"
     inkscape:label="1"
     transform="translate(0.49829075,0.4993448)">
    <path
       id="path1"
       d="m 116.004,14.07 c 0.773,0.059 0.832,8.571 1.851,19.11 1.024,10.539 1.668,19.25 0.895,19.34 -0.777,0.093 -2.691,-8.379 -3.711,-19.067 -1.027,-10.691 0.18,-19.441 0.965,-19.383 z"
       style="fill:#1b1f23;fill-opacity:1;fill-rule:nonzero;stroke:#f6f8fa;stroke-width:0.75;stroke-linecap:round;stroke-linejoin:round;stroke-dasharray:none;stroke-opacity:1;paint-order:stroke fill markers"
       transform="scale(1.3333333)" />
    <path
       id="path2"
       d="m 116.004,14.07 c -0.152,-0.765 10.191,-4.136 23.609,-6.093 0.485,-0.071 0.969,-0.137 1.446,-0.2 12.945,-1.652 23.039,1.254 22.937,1.996 -0.109,0.747 -10.266,-0.882 -22.566,0.805 -0.465,0.063 -0.934,0.129 -1.41,0.199 -13.09,1.903 -23.875,4.063 -24.016,3.293 z"
       style="fill:#1b1f23;fill-opacity:1;fill-rule:nonzero;stroke:#f6f8fa;stroke-width:0.75;stroke-linecap:round;stroke-linejoin:round;stroke-dasharray:none;stroke-opacity:1;paint-order:stroke fill markers"
       transform="scale(1.3333333)" />
    <path
       id="path3"
       d="m 118.996,55.105 c -0.219,-0.75 10.027,-4.328 23.203,-4.875 13.184,-0.546 23.809,1.106 23.762,1.887 -0.043,0.778 -10.727,0.426 -23.645,0.942 -12.918,0.519 -23.105,2.796 -23.32,2.046 z"
       style="fill:#1b1f23;fill-opacity:1;fill-rule:nonzero;stroke:#f6f8fa;stroke-width:0.75;stroke-linecap:round;stroke-linejoin:round;stroke-dasharray:none;stroke-opacity:1;paint-order:stroke fill markers"
       transform="scale(1.3333333)" />
    <path
       id="path4"
       d="m 164.844,13.23 c 0.41,-0.144 0.949,1.239 1.367,3.641 0.312,1.754 0.547,3.817 0.73,6.43 0.243,3.379 0.375,7.222 0.375,11.492 0,1.59 -0.015,3.145 -0.046,4.637 -0.102,5.164 -0.348,9.343 -0.723,12.508 -0.067,0.527 -0.121,0.996 -0.203,1.449 -0.262,0.117 -0.512,0.242 -0.75,0.375 -0.032,0.027 -0.055,0.054 -0.086,0.078 -0.043,0 -0.07,-0.024 -0.09,-0.043 -0.039,-0.047 -0.074,-0.09 -0.113,-0.137 -0.141,-0.176 -0.258,-0.344 -0.356,-0.5 0.153,-1.258 0.363,-1.945 0.571,-1.945 0.21,0 0.402,0.699 0.605,1.922 -0.098,0.148 -0.199,0.301 -0.324,0.457 -0.039,0.043 -0.067,0.078 -0.094,0.121 -0.023,0.015 -0.043,0.031 -0.062,0.047 -0.008,-0.047 -0.024,-0.078 -0.051,-0.11 -0.207,-0.101 -0.446,-0.218 -0.699,-0.347 -0.02,-0.43 -0.051,-0.907 -0.079,-1.426 -0.14,-2.801 -0.269,-7.672 -0.308,-12.465 -0.012,-1.492 -0.02,-3.031 -0.02,-4.621 -0.004,-3.863 0.024,-8.441 0.059,-11.418 0.023,-2.531 0.051,-4.695 0.074,-6.371 0.004,-2.434 -0.055,-3.676 0.223,-3.774 z"
       style="fill:#1b1f23;fill-opacity:1;fill-rule:nonzero;stroke:#f6f8fa;stroke-width:0.75;stroke-linecap:round;stroke-linejoin:round;stroke-dasharray:none;stroke-opacity:1;paint-order:stroke fill markers"
       transform="scale(1.3333333)" />
    <path
       id="path5"
       d="m 177.648,116.152 c 0.782,0.055 0.836,8.567 1.86,19.11 1.019,10.539 1.668,19.246 0.89,19.34 -0.773,0.089 -2.683,-8.379 -3.71,-19.071 -1.024,-10.691 0.187,-19.437 0.96,-19.379 z"
       style="fill:#1b1f23;fill-opacity:1;fill-rule:nonzero;stroke:#f6f8fa;stroke-width:0.75;stroke-linecap:round;stroke-linejoin:round;stroke-dasharray:none;stroke-opacity:1;paint-order:stroke fill markers"
       transform="scale(1.3333333)" />
    <path
       id="path6"
       d="m 177.648,116.152 c -0.144,-0.769 10.196,-4.136 23.614,-6.097 0.488,-0.071 0.968,-0.137 1.449,-0.2 12.937,-1.652 23.043,1.254 22.93,2 -0.102,0.747 -10.258,-0.886 -22.559,0.801 -0.469,0.067 -0.937,0.133 -1.41,0.199 -13.098,1.907 -23.871,4.063 -24.024,3.297 z"
       style="fill:#1b1f23;fill-opacity:1;fill-rule:nonzero;stroke:#f6f8fa;stroke-width:0.75;stroke-linecap:round;stroke-linejoin:round;stroke-dasharray:none;stroke-opacity:1;paint-order:stroke fill markers"
       transform="scale(1.3333333)" />
    <path
       id="path7"
       d="m 180.645,157.184 c -0.215,-0.75 10.031,-4.329 23.207,-4.875 13.175,-0.543 23.8,1.105 23.757,1.886 -0.047,0.782 -10.722,0.426 -23.64,0.946 -12.918,0.515 -23.11,2.797 -23.324,2.043 z"
       style="fill:#1b1f23;fill-opacity:1;fill-rule:nonzero;stroke:#f6f8fa;stroke-width:0.75;stroke-linecap:round;stroke-linejoin:round;stroke-dasharray:none;stroke-opacity:1;paint-order:stroke fill markers"
       transform="scale(1.3333333)" />
    <path
       id="path8"
       d="m 226.5,115.309 c 0.402,-0.145 0.938,1.238 1.355,3.64 0.321,1.758 0.551,3.817 0.739,6.43 0.246,3.379 0.375,7.226 0.375,11.492 0,1.594 -0.02,3.145 -0.047,4.641 -0.11,5.16 -0.356,9.34 -0.731,12.504 -0.054,0.527 -0.121,0.996 -0.191,1.449 -0.273,0.117 -0.523,0.246 -0.754,0.379 -0.031,0.023 -0.062,0.051 -0.09,0.074 -0.047,0 -0.062,-0.023 -0.09,-0.043 -0.043,-0.047 -0.078,-0.09 -0.109,-0.133 -0.145,-0.18 -0.262,-0.347 -0.359,-0.504 0.16,-1.258 0.367,-1.941 0.578,-1.941 0.207,0 0.39,0.695 0.594,1.918 -0.09,0.148 -0.2,0.301 -0.325,0.461 -0.027,0.039 -0.058,0.074 -0.093,0.117 -0.016,0.016 -0.043,0.035 -0.051,0.047 -0.008,-0.047 -0.035,-0.078 -0.051,-0.11 -0.211,-0.097 -0.449,-0.214 -0.703,-0.347 -0.027,-0.43 -0.051,-0.903 -0.078,-1.422 -0.149,-2.805 -0.278,-7.676 -0.313,-12.469 -0.015,-1.492 -0.019,-3.031 -0.019,-4.621 0,-3.863 0.031,-8.441 0.054,-11.418 0.028,-2.531 0.059,-4.695 0.079,-6.371 0,-2.434 -0.051,-3.672 0.23,-3.773 z"
       style="fill:#1b1f23;fill-opacity:1;fill-rule:nonzero;stroke:#f6f8fa;stroke-width:0.75;stroke-linecap:round;stroke-linejoin:round;stroke-dasharray:none;stroke-opacity:1;paint-order:stroke fill markers"
       transform="scale(1.3333333)" />
    <path
       id="path9"
       d="m 75.344,118.766 c 0.785,0.058 0.836,8.57 1.855,19.109 1.024,10.539 1.676,19.25 0.895,19.34 -0.778,0.094 -2.688,-8.379 -3.707,-19.067 -1.028,-10.691 0.179,-19.441 0.957,-19.382 z"
       style="fill:#1b1f23;fill-opacity:1;fill-rule:nonzero;stroke:#f6f8fa;stroke-width:0.75;stroke-linecap:round;stroke-linejoin:round;stroke-dasharray:none;stroke-opacity:1;paint-order:stroke fill markers"
       transform="scale(1.3333333)" />
    <path
       id="path10"
       d="m 75.344,118.766 c -0.145,-0.766 10.199,-4.137 23.617,-6.094 0.48,-0.07 0.969,-0.137 1.441,-0.199 12.942,-1.653 23.043,1.25 22.942,1.996 -0.114,0.746 -10.262,-0.883 -22.571,0.804 -0.464,0.063 -0.929,0.129 -1.402,0.2 -13.101,1.902 -23.875,4.062 -24.027,3.293 z"
       style="fill:#1b1f23;fill-opacity:1;fill-rule:nonzero;stroke:#f6f8fa;stroke-width:0.75;stroke-linecap:round;stroke-linejoin:round;stroke-dasharray:none;stroke-opacity:1;paint-order:stroke fill markers"
       transform="scale(1.3333333)" />
    <path
       id="path11"
       d="m 78.344,159.801 c -0.215,-0.75 10.031,-4.328 23.207,-4.875 13.176,-0.547 23.797,1.105 23.754,1.886 -0.043,0.778 -10.719,0.426 -23.637,0.942 -12.918,0.519 -23.113,2.797 -23.324,2.047 z"
       style="fill:#1b1f23;fill-opacity:1;fill-rule:nonzero;stroke:#f6f8fa;stroke-width:0.75;stroke-linecap:round;stroke-linejoin:round;stroke-dasharray:none;stroke-opacity:1;paint-order:stroke fill markers"
       transform="scale(1.3333333)" />
    <path
       id="path12"
       d="m 124.191,117.926 c 0.407,-0.149 0.946,1.238 1.364,3.64 0.32,1.754 0.547,3.817 0.738,6.426 0.238,3.383 0.371,7.227 0.375,11.496 0,1.59 -0.023,3.145 -0.047,4.637 -0.109,5.164 -0.359,9.344 -0.73,12.508 -0.059,0.527 -0.125,0.992 -0.2,1.449 -0.265,0.117 -0.515,0.242 -0.753,0.375 -0.024,0.027 -0.051,0.051 -0.086,0.078 -0.043,-0.004 -0.063,-0.023 -0.09,-0.043 -0.039,-0.047 -0.078,-0.094 -0.114,-0.137 -0.136,-0.175 -0.257,-0.343 -0.347,-0.5 0.148,-1.257 0.363,-1.945 0.57,-1.945 0.203,0 0.391,0.699 0.598,1.922 -0.09,0.148 -0.203,0.301 -0.328,0.457 -0.032,0.043 -0.055,0.078 -0.09,0.117 -0.024,0.016 -0.043,0.035 -0.055,0.051 -0.012,-0.047 -0.031,-0.078 -0.055,-0.109 -0.211,-0.102 -0.445,-0.219 -0.695,-0.348 -0.027,-0.434 -0.058,-0.906 -0.082,-1.426 -0.144,-2.801 -0.273,-7.672 -0.312,-12.465 -0.008,-1.492 -0.016,-3.035 -0.016,-4.621 0,-3.863 0.023,-8.441 0.055,-11.422 0.027,-2.527 0.054,-4.691 0.078,-6.367 0,-2.433 -0.051,-3.676 0.222,-3.773 z"
       style="fill:#1b1f23;fill-opacity:1;fill-rule:nonzero;stroke:#f6f8fa;stroke-width:0.75;stroke-linecap:round;stroke-linejoin:round;stroke-dasharray:none;stroke-opacity:1;paint-order:stroke fill markers"
       transform="scale(1.3333333)" />
    <path
       id="path13"
       d="m 117.539,109.016 c -0.492,-0.309 3.367,-5.918 4.887,-14.7 0.562,-3.164 0.558,-6.336 0.523,-10.211 0.008,0.473 -0.008,-0.875 -0.004,-0.402 -0.054,-3.937 0.211,-7.5 1.235,-10.875 2.82,-9.055 8.121,-13.332 8.566,-12.98 0.445,0.351 -4.008,5.34 -6.094,13.675 -0.789,3.063 -0.914,6.293 -0.875,10.145 0,0.137 0.004,0.273 0.004,0.406 0.051,3.879 -0.058,7.336 -0.812,10.75 -2.137,9.446 -6.942,14.5 -7.43,14.192 z"
       style="fill:#1b1f23;fill-opacity:1;stroke:#f6f8fa;stroke-width:0.75;stroke-linecap:round;stroke-linejoin:round;stroke-miterlimit:4;stroke-dasharray:6, 0.75;stroke-dashoffset:0;stroke-opacity:1;paint-order:stroke fill markers"
       transform="scale(1.3333333)" />
    <path
       id="path14"
       d="m 155.488,58.496 c 0.258,-0.289 7.356,4.09 11.414,15.5 1.371,3.852 2.254,7.887 3.032,12.457 0.273,1.594 0.523,3.207 0.757,4.727 0.918,5.625 1.371,9.531 3.457,13.187 0.997,1.77 2.274,3.051 3.606,3.867 3.387,2.129 6.336,1.907 6.336,2.231 0,0.324 -2.863,1.293 -7.152,-0.723 -1.684,-0.812 -3.372,-2.211 -4.672,-4.234 -2.528,-3.965 -3.348,-8.375 -4.25,-13.895 -0.223,-1.32 -0.559,-3.383 -0.789,-4.703 -0.766,-4.543 -1.52,-8.383 -2.707,-12.109 -3.301,-10.422 -9.399,-15.879 -9.032,-16.305 z"
       style="fill:#1b1f23;fill-opacity:1;stroke:#f6f8fa;stroke-width:0.75;stroke-linecap:round;stroke-linejoin:round;stroke-miterlimit:4;stroke-dasharray:6, 0.75;stroke-dashoffset:0;stroke-opacity:1;paint-order:stroke fill markers"
       transform="scale(1.3333333)" />
    <path
       id="path15"
       d="m 120.414,41.789 c -0.32,-0.105 0.031,-3.84 2.516,-8.176 0.125,-0.379 0.488,-0.98 1.324,-1.301 0.582,0.032 0.984,0.239 1.203,0.497 0.109,0.14 0.172,0.289 0.176,0.437 0.562,1.52 0.496,3.168 0.5,4.328 0.047,3.512 -0.137,5.91 -0.414,5.922 -0.274,0.016 -0.555,-2.41 -0.832,-5.863 -0.106,-1.211 -0.082,-2.781 -0.539,-3.891 -0.067,-0.035 -0.098,-0.078 -0.098,-0.113 -0.012,-0.067 0.098,-0.102 0.32,0.019 -0.058,-0.113 -0.152,0.274 -0.476,0.653 -2.41,3.922 -3.364,7.594 -3.68,7.488 z"
       style="fill:#1b1f23;fill-opacity:1;fill-rule:nonzero;stroke:#f6f8fa;stroke-width:0.75;stroke-linecap:round;stroke-linejoin:round;stroke-dasharray:none;stroke-opacity:1;paint-order:stroke fill markers"
       transform="scale(1.3333333)" />
    <path
       id="path16"
       d="m 128.07,40.098 c 0.262,-0.028 1.246,2.535 0.887,6.644 0.141,0.196 0.063,0.762 -0.691,1.297 -0.911,-0.094 -1.305,-0.504 -1.172,-0.754 -0.496,-1.027 -0.696,-2.133 -0.805,-3.273 -0.07,-0.563 -0.113,-1.16 -0.101,-1.774 0.019,-0.75 0.121,-1.488 0.359,-2.203 0.351,-1.234 1.34,-2.281 2.668,-2.453 1.101,-0.043 2.023,0.496 2.59,1.156 0.633,0.563 0.789,1.617 0.199,2.332 -2.356,1.711 -3.856,-0.129 -3.813,-0.308 0.047,-0.176 2.266,0.941 3.161,-0.387 0.234,-0.039 -0.09,-0.453 -0.364,-0.871 -0.441,-0.414 -1.086,-0.75 -1.679,-0.66 -0.629,-0.024 -1.133,0.746 -1.473,1.617 -0.188,0.551 -0.262,1.152 -0.27,1.801 -0.007,0.531 0.028,1.078 0.075,1.609 0.121,1.106 0.242,2.051 0.613,2.875 0.785,0.344 -0.32,0.125 -0.363,0.106 -0.118,0.207 -0.422,0.25 -0.129,-0.254 0.582,-3.696 0.054,-6.473 0.308,-6.5 z"
       style="fill:#1b1f23;fill-opacity:1;fill-rule:nonzero;stroke:#f6f8fa;stroke-width:0.75;stroke-linecap:round;stroke-linejoin:round;stroke-dasharray:none;stroke-opacity:1;paint-order:stroke fill markers"
       transform="scale(1.3333333)" />
    <path
       id="path17"
       d="m 133.418,40.184 c 0.258,-0.028 1.246,2.535 0.883,6.64 0.14,0.199 0.062,0.766 -0.692,1.301 -0.91,-0.098 -1.308,-0.508 -1.171,-0.754 -0.497,-1.031 -0.692,-2.133 -0.805,-3.273 -0.074,-0.563 -0.117,-1.164 -0.102,-1.778 0.02,-0.75 0.121,-1.488 0.356,-2.203 0.359,-1.234 1.34,-2.277 2.668,-2.449 1.109,-0.047 2.031,0.492 2.59,1.156 0.636,0.559 0.789,1.614 0.199,2.332 -2.348,1.707 -3.848,-0.129 -3.805,-0.308 0.047,-0.18 2.262,0.937 3.156,-0.387 0.235,-0.039 -0.09,-0.457 -0.363,-0.871 -0.445,-0.418 -1.082,-0.75 -1.68,-0.664 -0.629,-0.02 -1.136,0.75 -1.472,1.617 -0.184,0.555 -0.258,1.156 -0.266,1.805 -0.012,0.527 0.024,1.074 0.07,1.605 0.118,1.109 0.239,2.055 0.61,2.875 0.789,0.344 -0.317,0.125 -0.36,0.106 -0.113,0.207 -0.425,0.25 -0.129,-0.254 0.579,-3.696 0.059,-6.473 0.313,-6.496 z"
       style="fill:#1b1f23;fill-opacity:1;fill-rule:nonzero;stroke:#f6f8fa;stroke-width:0.75;stroke-linecap:round;stroke-linejoin:round;stroke-dasharray:none;stroke-opacity:1;paint-order:stroke fill markers"
       transform="scale(1.3333333)" />
    <path
       id="path18"
       d="m 143.219,41.406 c 0.105,-0.011 0.195,0.106 0.031,0.297 0,0.024 0,0.047 0.004,0.07 0.008,0.016 0.008,0.016 0.008,0.016 0.019,-0.027 0.004,-0.074 0,-0.117 0,-0.094 -0.012,-0.184 -0.028,-0.293 -0.058,-0.531 -0.214,-1.281 -0.246,-2.137 0.032,-0.289 0.114,-0.629 0.285,-0.969 0.235,-0.457 0.602,-0.859 1.11,-1.125 2.426,-0.558 2.668,1.497 2.441,1.7 -0.23,0.203 -1.597,-1.18 -1.906,-0.504 -0.156,0.035 -0.246,0.215 -0.359,0.511 -0.09,0.235 -0.161,0.457 -0.27,0.723 -0.449,0.734 -0.734,1.414 -0.891,1.902 -0.023,0.094 -0.054,0.192 -0.078,0.27 -0.011,0.039 -0.008,0.082 -0.043,0.105 -0.015,-0.039 -0.019,-0.066 -0.023,-0.089 -0.207,-0.231 -0.145,-0.352 -0.035,-0.36 z"
       style="fill:#1b1f23;fill-opacity:1;fill-rule:nonzero;stroke:#f6f8fa;stroke-width:0.75;stroke-linecap:round;stroke-linejoin:round;stroke-dasharray:none;stroke-opacity:1;paint-order:stroke fill markers"
       transform="scale(1.3333333)" />
    <path
       id="path20"
       d="m 141.695,38.051 c -0.14,0.179 -2.371,-0.899 -2.8,0.679 -0.344,0.911 -1.036,2.243 -0.508,2.79 0.054,0.289 0.625,0.292 1.168,0.23 0.007,0 0.015,0 0.027,0 0.672,-0.18 1.262,-0.551 1.527,-1.047 0.563,-0.562 0.391,-1.492 0.11,-2.043 -0.039,-0.09 -0.09,-0.23 -0.149,-0.211 -0.043,0.016 0.032,0.094 0.071,0.141 0.207,0.258 0.539,0.562 0.765,0.801 0.949,1.433 1.551,1.828 1.551,2.015 0,0.364 -1.32,0.203 -2.359,-1.5 -0.125,-0.336 -0.258,-0.754 -0.297,-1.246 -0.008,-0.086 -0.047,-0.207 0.023,-0.269 0.094,-0.071 0.184,0.019 0.262,0.05 0.84,0.598 1.559,1.723 1.191,2.895 -0.484,0.894 -1.363,1.527 -2.375,1.75 -0.015,0.004 -0.023,0.008 -0.039,0.012 -0.902,0.269 -1.984,0 -2.633,-0.891 -0.757,-1.629 0.129,-3.191 0.692,-3.992 1.762,-2.563 3.914,-0.344 3.773,-0.164 z"
       style="fill:#1b1f23;fill-opacity:1;fill-rule:nonzero;stroke:#f6f8fa;stroke-width:0.75;stroke-linecap:round;stroke-linejoin:round;stroke-dasharray:none;stroke-opacity:1;paint-order:stroke fill markers"
       transform="scale(1.3333333)" />
    <path
       id="path21"
       d="m 150.664,37.613 c -0.141,0.18 -2.367,-0.894 -2.801,0.684 -0.343,0.906 -1.031,2.238 -0.511,2.789 0.054,0.285 0.625,0.293 1.171,0.23 0.008,0 0.02,0 0.028,-0.004 0.668,-0.179 1.261,-0.546 1.523,-1.042 0.563,-0.563 0.395,-1.493 0.11,-2.047 -0.043,-0.09 -0.09,-0.231 -0.141,-0.211 -0.043,0.019 0.027,0.097 0.066,0.144 0.203,0.254 0.532,0.559 0.77,0.797 0.945,1.438 1.547,1.832 1.547,2.02 0,0.363 -1.321,0.199 -2.36,-1.504 -0.128,-0.332 -0.261,-0.754 -0.3,-1.246 -0.004,-0.086 -0.047,-0.207 0.031,-0.266 0.09,-0.07 0.176,0.02 0.254,0.051 0.84,0.597 1.562,1.722 1.199,2.89 -0.488,0.899 -1.371,1.528 -2.375,1.754 -0.02,0.004 -0.031,0.008 -0.039,0.012 -0.91,0.27 -1.992,0 -2.637,-0.894 -0.758,-1.629 0.133,-3.188 0.688,-3.989 1.765,-2.562 3.914,-0.347 3.777,-0.168 z"
       style="fill:#1b1f23;fill-opacity:1;fill-rule:nonzero;stroke:#f6f8fa;stroke-width:0.75;stroke-linecap:round;stroke-linejoin:round;stroke-dasharray:none;stroke-opacity:1;paint-order:stroke fill markers"
       transform="scale(1.3333333)" />
    <path
       id="path22"
       d="m 154.688,30.121 c 0.152,0.07 -0.122,0.922 -0.559,2.223 -0.414,1.254 -0.973,3.144 -0.992,5.109 -0.016,1.078 0.129,2.039 0.414,2.91 0.332,0.774 0.5,1.34 0.949,1.418 0.699,0.492 1.445,-0.937 1.594,-0.863 0.14,0.078 0.254,1.77 -1.77,1.691 -0.883,-0.203 -1.523,-0.968 -1.797,-1.879 -0.382,-0.976 -0.589,-2.082 -0.586,-3.289 0.008,-2.234 0.75,-4.187 1.407,-5.433 0.664,-1.266 1.191,-1.957 1.34,-1.887 z"
       style="fill:#1b1f23;fill-opacity:1;fill-rule:nonzero;stroke:#f6f8fa;stroke-width:0.75;stroke-linecap:round;stroke-linejoin:round;stroke-dasharray:none;stroke-opacity:1;paint-order:stroke fill markers"
       transform="scale(1.3333333)" />
    <path
       id="path23"
       d="m 149.719,33.582 c 0.347,-0.41 1.562,0.148 3.219,0.195 1.648,0.043 3.218,-0.16 3.421,0.344 0.161,0.41 -1.129,1.738 -3.511,1.59 -2.43,-0.149 -3.461,-1.738 -3.129,-2.129 z"
       style="fill:#1b1f23;fill-opacity:1;fill-rule:nonzero;stroke:#f6f8fa;stroke-width:0.75;stroke-linecap:round;stroke-linejoin:round;stroke-dasharray:none;stroke-opacity:1;paint-order:stroke fill markers"
       transform="scale(1.3333333)" />
    <path
       id="path24"
       d="m 154.43,38.004 c 0.289,-0.012 0.371,1.762 1.621,2.383 0.344,0.218 0.875,0.289 1.332,0.133 0.039,-0.016 0.078,-0.032 0.117,-0.047 0.438,-0.203 0.777,-0.618 0.801,-0.981 0.293,-1.172 -1.125,-2.195 -0.965,-2.418 0.16,-0.222 2.043,0.055 2.211,2.461 -0.027,0.895 -0.559,1.785 -1.496,2.195 -0.074,0.032 -0.153,0.063 -0.231,0.09 -0.906,0.309 -1.843,0.106 -2.508,-0.394 -1.882,-1.59 -1.167,-3.406 -0.882,-3.422 z"
       style="fill:#1b1f23;fill-opacity:1;fill-rule:nonzero;stroke:#f6f8fa;stroke-width:0.75;stroke-linecap:round;stroke-linejoin:round;stroke-dasharray:none;stroke-opacity:1;paint-order:stroke fill markers"
       transform="scale(1.3333333)" />
    <path
       id="path25"
       d="m 121.426,38.191 c 0.117,-0.3 1.094,-0.336 2.164,-0.3 1.164,0.035 2.18,0.261 2.18,0.679 0,0.379 -0.958,0.758 -2.239,0.696 -1.347,-0.063 -2.258,-0.692 -2.105,-1.075 z"
       style="fill:#1b1f23;fill-opacity:1;fill-rule:nonzero;stroke:#f6f8fa;stroke-width:0.75;stroke-linecap:round;stroke-linejoin:round;stroke-dasharray:none;stroke-opacity:1;paint-order:stroke fill markers"
       transform="scale(1.3333333)" />
    <path
       id="path26"
       d="m 79.219,144.977 c -0.324,-0.106 0.031,-3.84 2.511,-8.176 0.129,-0.379 0.489,-0.977 1.325,-1.301 0.582,0.035 0.992,0.238 1.207,0.5 0.113,0.137 0.168,0.285 0.172,0.434 0.57,1.519 0.496,3.168 0.5,4.332 0.05,3.511 -0.133,5.906 -0.411,5.922 -0.269,0.011 -0.554,-2.411 -0.832,-5.864 -0.101,-1.215 -0.082,-2.785 -0.539,-3.89 -0.062,-0.039 -0.101,-0.082 -0.101,-0.118 -0.004,-0.066 0.097,-0.101 0.328,0.02 -0.063,-0.109 -0.16,0.277 -0.484,0.656 -2.407,3.918 -3.364,7.59 -3.676,7.485 z"
       style="fill:#1b1f23;fill-opacity:1;fill-rule:nonzero;stroke:#f6f8fa;stroke-width:0.75;stroke-linecap:round;stroke-linejoin:round;stroke-dasharray:none;stroke-opacity:1;paint-order:stroke fill markers"
       transform="scale(1.3333333)" />
    <path
       id="path27"
       d="m 86.879,143.289 c 0.258,-0.027 1.242,2.531 0.883,6.641 0.14,0.199 0.062,0.765 -0.692,1.297 -0.906,-0.094 -1.308,-0.504 -1.172,-0.75 -0.496,-1.032 -0.691,-2.133 -0.804,-3.278 -0.074,-0.562 -0.117,-1.16 -0.098,-1.773 0.016,-0.75 0.117,-1.488 0.352,-2.203 0.359,-1.235 1.34,-2.282 2.668,-2.45 1.109,-0.046 2.031,0.493 2.589,1.157 0.641,0.558 0.79,1.613 0.2,2.332 -2.348,1.707 -3.848,-0.129 -3.805,-0.309 0.047,-0.18 2.262,0.938 3.156,-0.387 0.231,-0.039 -0.09,-0.457 -0.363,-0.875 -0.445,-0.414 -1.082,-0.746 -1.68,-0.66 -0.629,-0.019 -1.136,0.75 -1.476,1.617 -0.18,0.555 -0.254,1.157 -0.262,1.805 -0.012,0.527 0.023,1.074 0.07,1.606 0.117,1.105 0.239,2.054 0.606,2.875 0.793,0.343 -0.313,0.125 -0.356,0.105 -0.113,0.207 -0.425,0.25 -0.129,-0.254 0.579,-3.695 0.059,-6.473 0.313,-6.496 z"
       style="fill:#1b1f23;fill-opacity:1;fill-rule:nonzero;stroke:#f6f8fa;stroke-width:0.75;stroke-linecap:round;stroke-linejoin:round;stroke-dasharray:none;stroke-opacity:1;paint-order:stroke fill markers"
       transform="scale(1.3333333)" />
    <path
       id="path28"
       d="m 92.219,143.371 c 0.258,-0.027 1.246,2.535 0.883,6.641 0.148,0.199 0.07,0.765 -0.684,1.3 -0.91,-0.093 -1.313,-0.503 -1.172,-0.753 -0.496,-1.028 -0.695,-2.133 -0.812,-3.274 -0.071,-0.562 -0.114,-1.164 -0.094,-1.777 0.012,-0.746 0.121,-1.485 0.351,-2.199 0.36,-1.235 1.34,-2.282 2.668,-2.454 1.11,-0.043 2.028,0.497 2.59,1.157 0.641,0.562 0.789,1.617 0.199,2.332 -2.347,1.707 -3.847,-0.129 -3.804,-0.309 0.043,-0.18 2.258,0.942 3.16,-0.387 0.226,-0.039 -0.09,-0.453 -0.367,-0.871 -0.446,-0.414 -1.086,-0.75 -1.676,-0.664 -0.629,-0.019 -1.141,0.75 -1.481,1.621 -0.179,0.551 -0.257,1.153 -0.261,1.801 -0.008,0.531 0.027,1.078 0.074,1.61 0.113,1.105 0.234,2.05 0.602,2.875 0.789,0.339 -0.313,0.121 -0.352,0.105 -0.117,0.207 -0.434,0.25 -0.129,-0.254 0.574,-3.699 0.055,-6.473 0.305,-6.5 z"
       style="fill:#1b1f23;fill-opacity:1;fill-rule:nonzero;stroke:#f6f8fa;stroke-width:0.75;stroke-linecap:round;stroke-linejoin:round;stroke-dasharray:none;stroke-opacity:1;paint-order:stroke fill markers"
       transform="scale(1.3333333)" />
    <path
       id="path29"
       d="m 102.023,144.594 c 0.11,-0.008 0.196,0.105 0.028,0.301 0,0.019 0,0.043 0.004,0.066 0.011,0.019 0.011,0.019 0.011,0.019 0.024,-0.031 0.004,-0.074 0,-0.121 -0.007,-0.089 -0.015,-0.183 -0.023,-0.289 -0.066,-0.531 -0.219,-1.285 -0.246,-2.14 0.027,-0.289 0.109,-0.629 0.285,-0.965 0.227,-0.461 0.598,-0.863 1.102,-1.125 2.429,-0.559 2.671,1.496 2.449,1.699 -0.235,0.203 -1.602,-1.184 -1.914,-0.504 -0.157,0.031 -0.25,0.215 -0.356,0.508 -0.09,0.234 -0.156,0.461 -0.273,0.723 -0.449,0.734 -0.731,1.414 -0.883,1.906 -0.027,0.09 -0.062,0.191 -0.078,0.266 -0.02,0.042 -0.008,0.085 -0.043,0.109 -0.024,-0.043 -0.027,-0.07 -0.031,-0.094 -0.207,-0.23 -0.137,-0.351 -0.032,-0.359 z"
       style="fill:#1b1f23;fill-opacity:1;fill-rule:nonzero;stroke:#f6f8fa;stroke-width:0.75;stroke-linecap:round;stroke-linejoin:round;stroke-dasharray:none;stroke-opacity:1;paint-order:stroke fill markers"
       transform="scale(1.3333333)" />
    <path
       id="path31"
       d="m 100.5,141.238 c -0.141,0.18 -2.367,-0.898 -2.801,0.684 -0.344,0.906 -1.031,2.238 -0.511,2.789 0.058,0.285 0.624,0.289 1.171,0.23 0.012,0 0.02,-0.003 0.028,-0.003 0.668,-0.18 1.261,-0.551 1.531,-1.043 0.555,-0.563 0.383,-1.493 0.102,-2.047 -0.04,-0.09 -0.09,-0.231 -0.141,-0.211 -0.043,0.015 0.027,0.097 0.066,0.144 0.203,0.254 0.535,0.559 0.77,0.797 0.949,1.434 1.547,1.832 1.547,2.016 0,0.363 -1.321,0.203 -2.36,-1.5 -0.129,-0.332 -0.261,-0.754 -0.3,-1.246 -0.008,-0.086 -0.047,-0.207 0.031,-0.266 0.086,-0.07 0.176,0.016 0.254,0.051 0.84,0.594 1.562,1.722 1.199,2.89 -0.492,0.895 -1.367,1.528 -2.375,1.754 -0.02,0.004 -0.031,0.008 -0.039,0.012 -0.91,0.27 -1.992,0 -2.633,-0.894 -0.762,-1.629 0.129,-3.188 0.684,-3.993 1.765,-2.558 3.914,-0.343 3.777,-0.164 z"
       style="fill:#1b1f23;fill-opacity:1;fill-rule:nonzero;stroke:#f6f8fa;stroke-width:0.75;stroke-linecap:round;stroke-linejoin:round;stroke-dasharray:none;stroke-opacity:1;paint-order:stroke fill markers"
       transform="scale(1.3333333)" />
    <path
       id="path32"
       d="m 109.469,140.805 c -0.137,0.179 -2.371,-0.899 -2.797,0.679 -0.348,0.911 -1.039,2.243 -0.516,2.789 0.059,0.286 0.625,0.293 1.176,0.231 0.008,0 0.012,0 0.02,0 0.671,-0.18 1.269,-0.551 1.531,-1.047 0.558,-0.562 0.387,-1.492 0.105,-2.043 -0.043,-0.09 -0.093,-0.23 -0.144,-0.211 -0.043,0.016 0.035,0.094 0.07,0.141 0.207,0.258 0.531,0.558 0.766,0.801 0.953,1.433 1.547,1.828 1.547,2.015 0,0.363 -1.313,0.203 -2.352,-1.5 -0.129,-0.336 -0.266,-0.754 -0.305,-1.246 -0.008,-0.086 -0.05,-0.207 0.028,-0.269 0.09,-0.071 0.175,0.019 0.257,0.05 0.84,0.598 1.567,1.723 1.196,2.895 -0.489,0.894 -1.371,1.527 -2.375,1.75 -0.012,0.004 -0.028,0.008 -0.039,0.012 -0.91,0.269 -1.989,0 -2.629,-0.891 -0.758,-1.629 0.129,-3.191 0.683,-3.992 1.77,-2.563 3.911,-0.344 3.778,-0.164 z"
       style="fill:#1b1f23;fill-opacity:1;fill-rule:nonzero;stroke:#f6f8fa;stroke-width:0.75;stroke-linecap:round;stroke-linejoin:round;stroke-dasharray:none;stroke-opacity:1;paint-order:stroke fill markers"
       transform="scale(1.3333333)" />
    <path
       id="path33"
       d="m 113.488,133.309 c 0.153,0.07 -0.113,0.921 -0.558,2.222 -0.418,1.258 -0.965,3.145 -0.996,5.11 -0.008,1.078 0.136,2.039 0.418,2.91 0.332,0.773 0.503,1.34 0.949,1.418 0.707,0.492 1.453,-0.938 1.594,-0.86 0.148,0.079 0.257,1.766 -1.762,1.688 -0.883,-0.199 -1.528,-0.969 -1.797,-1.879 -0.387,-0.977 -0.598,-2.078 -0.586,-3.285 0.008,-2.235 0.75,-4.192 1.402,-5.434 0.664,-1.269 1.192,-1.957 1.336,-1.89 z"
       style="fill:#1b1f23;fill-opacity:1;fill-rule:nonzero;stroke:#f6f8fa;stroke-width:0.75;stroke-linecap:round;stroke-linejoin:round;stroke-dasharray:none;stroke-opacity:1;paint-order:stroke fill markers"
       transform="scale(1.3333333)" />
    <path
       id="path34"
       d="m 108.52,136.77 c 0.355,-0.411 1.57,0.152 3.226,0.195 1.641,0.047 3.219,-0.156 3.418,0.347 0.16,0.407 -1.133,1.735 -3.516,1.59 -2.429,-0.148 -3.46,-1.742 -3.128,-2.132 z"
       style="fill:#1b1f23;fill-opacity:1;fill-rule:nonzero;stroke:#f6f8fa;stroke-width:0.75;stroke-linecap:round;stroke-linejoin:round;stroke-dasharray:none;stroke-opacity:1;paint-order:stroke fill markers"
       transform="scale(1.3333333)" />
    <path
       id="path35"
       d="m 113.234,141.195 c 0.286,-0.015 0.371,1.758 1.618,2.383 0.347,0.219 0.875,0.285 1.332,0.129 0.039,-0.012 0.078,-0.027 0.117,-0.047 0.445,-0.203 0.781,-0.617 0.801,-0.98 0.296,-1.172 -1.125,-2.196 -0.965,-2.418 0.164,-0.223 2.043,0.058 2.211,2.465 -0.024,0.894 -0.551,1.785 -1.493,2.191 -0.074,0.035 -0.148,0.062 -0.226,0.09 -0.91,0.308 -1.848,0.105 -2.508,-0.391 -1.891,-1.594 -1.176,-3.406 -0.887,-3.422 z"
       style="fill:#1b1f23;fill-opacity:1;fill-rule:nonzero;stroke:#f6f8fa;stroke-width:0.75;stroke-linecap:round;stroke-linejoin:round;stroke-dasharray:none;stroke-opacity:1;paint-order:stroke fill markers"
       transform="scale(1.3333333)" />
    <path
       id="path36"
       d="m 80.227,141.379 c 0.117,-0.301 1.093,-0.332 2.164,-0.301 1.164,0.035 2.183,0.262 2.183,0.68 0,0.379 -0.953,0.758 -2.234,0.699 -1.352,-0.066 -2.258,-0.695 -2.113,-1.078 z"
       style="fill:#1b1f23;fill-opacity:1;fill-rule:nonzero;stroke:#f6f8fa;stroke-width:0.75;stroke-linecap:round;stroke-linejoin:round;stroke-dasharray:none;stroke-opacity:1;paint-order:stroke fill markers"
       transform="scale(1.3333333)" />
    <path
       id="path37"
       d="m 181.543,142.941 c -0.324,-0.105 0.027,-3.839 2.512,-8.175 0.129,-0.379 0.492,-0.977 1.328,-1.301 0.582,0.035 0.988,0.238 1.203,0.5 0.109,0.137 0.172,0.285 0.176,0.433 0.562,1.52 0.492,3.168 0.5,4.332 0.047,3.512 -0.137,5.907 -0.414,5.922 -0.274,0.012 -0.559,-2.41 -0.832,-5.863 -0.102,-1.215 -0.082,-2.785 -0.539,-3.891 -0.063,-0.039 -0.098,-0.082 -0.102,-0.117 -0.004,-0.066 0.098,-0.101 0.324,0.02 -0.058,-0.11 -0.156,0.277 -0.48,0.656 -2.407,3.918 -3.364,7.59 -3.676,7.484 z"
       style="fill:#1b1f23;fill-opacity:1;fill-rule:nonzero;stroke:#f6f8fa;stroke-width:0.75;stroke-linecap:round;stroke-linejoin:round;stroke-dasharray:none;stroke-opacity:1;paint-order:stroke fill markers"
       transform="scale(1.3333333)" />
    <path
       id="path38"
       d="m 189.199,141.254 c 0.262,-0.027 1.242,2.531 0.887,6.641 0.141,0.199 0.062,0.761 -0.691,1.296 -0.911,-0.093 -1.305,-0.503 -1.172,-0.75 -0.496,-1.031 -0.696,-2.132 -0.805,-3.277 -0.074,-0.562 -0.117,-1.16 -0.102,-1.773 0.02,-0.75 0.122,-1.489 0.36,-2.203 0.351,-1.235 1.336,-2.282 2.668,-2.45 1.101,-0.047 2.027,0.492 2.586,1.157 0.632,0.558 0.789,1.613 0.203,2.332 -2.356,1.707 -3.856,-0.129 -3.813,-0.309 0.043,-0.18 2.266,0.937 3.16,-0.387 0.235,-0.039 -0.089,-0.457 -0.367,-0.875 -0.437,-0.414 -1.082,-0.746 -1.675,-0.66 -0.629,-0.019 -1.137,0.75 -1.473,1.617 -0.188,0.555 -0.258,1.157 -0.27,1.805 -0.007,0.527 0.028,1.074 0.075,1.605 0.117,1.106 0.242,2.055 0.609,2.875 0.789,0.344 -0.32,0.125 -0.359,0.106 -0.118,0.207 -0.426,0.25 -0.129,-0.254 0.578,-3.695 0.054,-6.473 0.308,-6.496 z"
       style="fill:#1b1f23;fill-opacity:1;fill-rule:nonzero;stroke:#f6f8fa;stroke-width:0.75;stroke-linecap:round;stroke-linejoin:round;stroke-dasharray:none;stroke-opacity:1;paint-order:stroke fill markers"
       transform="scale(1.3333333)" />
    <path
       id="path39"
       d="m 194.547,141.336 c 0.254,-0.027 1.242,2.535 0.883,6.641 0.14,0.199 0.066,0.765 -0.692,1.3 -0.906,-0.093 -1.308,-0.504 -1.172,-0.754 -0.496,-1.027 -0.691,-2.132 -0.808,-3.273 -0.07,-0.562 -0.113,-1.164 -0.094,-1.777 0.016,-0.746 0.117,-1.485 0.352,-2.2 0.359,-1.234 1.339,-2.281 2.668,-2.453 1.109,-0.043 2.031,0.496 2.589,1.157 0.633,0.562 0.789,1.617 0.2,2.332 -2.348,1.707 -3.848,-0.129 -3.805,-0.309 0.043,-0.18 2.262,0.941 3.156,-0.387 0.231,-0.039 -0.094,-0.453 -0.363,-0.871 -0.445,-0.414 -1.082,-0.75 -1.68,-0.664 -0.629,-0.019 -1.136,0.75 -1.476,1.621 -0.18,0.551 -0.254,1.153 -0.262,1.801 -0.012,0.531 0.023,1.078 0.07,1.609 0.117,1.106 0.235,2.051 0.606,2.875 0.793,0.34 -0.317,0.121 -0.36,0.106 -0.109,0.207 -0.425,0.25 -0.125,-0.254 0.578,-3.699 0.059,-6.473 0.313,-6.5 z"
       style="fill:#1b1f23;fill-opacity:1;fill-rule:nonzero;stroke:#f6f8fa;stroke-width:0.75;stroke-linecap:round;stroke-linejoin:round;stroke-dasharray:none;stroke-opacity:1;paint-order:stroke fill markers"
       transform="scale(1.3333333)" />
    <path
       id="path40"
       d="m 204.348,142.559 c 0.109,-0.008 0.195,0.105 0.031,0.3 0,0.02 0,0.043 0.004,0.067 0.008,0.019 0.008,0.019 0.008,0.019 0.023,-0.031 0.004,-0.074 0,-0.121 -0.004,-0.09 -0.012,-0.183 -0.028,-0.289 -0.062,-0.531 -0.218,-1.285 -0.242,-2.14 0.027,-0.29 0.109,-0.629 0.281,-0.965 0.235,-0.461 0.602,-0.864 1.11,-1.125 2.426,-0.559 2.668,1.496 2.445,1.699 -0.234,0.203 -1.602,-1.184 -1.91,-0.504 -0.16,0.031 -0.25,0.215 -0.363,0.508 -0.086,0.234 -0.157,0.461 -0.27,0.722 -0.445,0.735 -0.73,1.415 -0.887,1.907 -0.023,0.09 -0.058,0.191 -0.078,0.265 -0.015,0.043 -0.008,0.086 -0.043,0.11 -0.019,-0.043 -0.019,-0.071 -0.023,-0.094 -0.207,-0.23 -0.145,-0.352 -0.035,-0.359 z"
       style="fill:#1b1f23;fill-opacity:1;fill-rule:nonzero;stroke:#f6f8fa;stroke-width:0.75;stroke-linecap:round;stroke-linejoin:round;stroke-dasharray:none;stroke-opacity:1;paint-order:stroke fill markers"
       transform="scale(1.3333333)" />
    <path
       id="path42"
       d="m 202.82,139.203 c -0.136,0.18 -2.363,-0.898 -2.797,0.684 -0.343,0.906 -1.035,2.238 -0.511,2.789 0.054,0.285 0.625,0.289 1.172,0.23 0.007,0 0.015,-0.004 0.027,-0.004 0.672,-0.179 1.262,-0.55 1.523,-1.043 0.567,-0.562 0.395,-1.492 0.11,-2.047 -0.039,-0.089 -0.09,-0.23 -0.145,-0.21 -0.043,0.015 0.031,0.097 0.071,0.144 0.203,0.254 0.531,0.559 0.769,0.797 0.945,1.434 1.547,1.832 1.547,2.016 0,0.363 -1.32,0.203 -2.359,-1.5 -0.129,-0.332 -0.258,-0.754 -0.297,-1.247 -0.008,-0.085 -0.047,-0.207 0.027,-0.265 0.09,-0.07 0.18,0.015 0.258,0.051 0.836,0.593 1.558,1.722 1.191,2.89 -0.484,0.895 -1.363,1.528 -2.375,1.754 -0.015,0.004 -0.023,0.008 -0.035,0.012 -0.91,0.269 -1.988,0 -2.637,-0.895 -0.757,-1.629 0.129,-3.187 0.692,-3.992 1.761,-2.558 3.91,-0.344 3.769,-0.164 z"
       style="fill:#1b1f23;fill-opacity:1;fill-rule:nonzero;stroke:#f6f8fa;stroke-width:0.75;stroke-linecap:round;stroke-linejoin:round;stroke-dasharray:none;stroke-opacity:1;paint-order:stroke fill markers"
       transform="scale(1.3333333)" />
    <path
       id="path43"
       d="m 211.793,138.77 c -0.141,0.179 -2.367,-0.899 -2.797,0.679 -0.348,0.91 -1.039,2.242 -0.516,2.789 0.059,0.285 0.625,0.293 1.172,0.231 0.012,0 0.02,0 0.028,0 0.668,-0.18 1.261,-0.551 1.527,-1.047 0.559,-0.563 0.387,-1.492 0.102,-2.043 -0.039,-0.09 -0.09,-0.231 -0.137,-0.211 -0.043,0.016 0.027,0.094 0.062,0.141 0.207,0.257 0.536,0.558 0.774,0.8 0.949,1.434 1.543,1.829 1.543,2.016 0,0.363 -1.317,0.203 -2.356,-1.5 -0.129,-0.336 -0.261,-0.754 -0.3,-1.25 -0.008,-0.082 -0.051,-0.203 0.031,-0.266 0.086,-0.07 0.172,0.02 0.254,0.051 0.84,0.598 1.566,1.723 1.195,2.895 -0.488,0.894 -1.367,1.527 -2.375,1.75 -0.016,0.004 -0.027,0.007 -0.035,0.011 -0.914,0.27 -1.992,0 -2.633,-0.89 -0.762,-1.629 0.125,-3.192 0.684,-3.992 1.765,-2.563 3.914,-0.344 3.777,-0.164 z"
       style="fill:#1b1f23;fill-opacity:1;fill-rule:nonzero;stroke:#f6f8fa;stroke-width:0.75;stroke-linecap:round;stroke-linejoin:round;stroke-dasharray:none;stroke-opacity:1;paint-order:stroke fill markers"
       transform="scale(1.3333333)" />
    <path
       id="path44"
       d="m 215.812,131.273 c 0.157,0.071 -0.117,0.922 -0.554,2.223 -0.418,1.258 -0.977,3.145 -0.996,5.109 -0.012,1.079 0.133,2.04 0.418,2.911 0.332,0.773 0.5,1.339 0.949,1.418 0.703,0.492 1.445,-0.938 1.59,-0.86 0.144,0.078 0.258,1.766 -1.77,1.688 -0.879,-0.2 -1.519,-0.969 -1.793,-1.879 -0.383,-0.977 -0.594,-2.078 -0.586,-3.285 0.012,-2.239 0.75,-4.192 1.407,-5.434 0.664,-1.269 1.191,-1.957 1.335,-1.891 z"
       style="fill:#1b1f23;fill-opacity:1;fill-rule:nonzero;stroke:#f6f8fa;stroke-width:0.75;stroke-linecap:round;stroke-linejoin:round;stroke-dasharray:none;stroke-opacity:1;paint-order:stroke fill markers"
       transform="scale(1.3333333)" />
    <path
       id="path45"
       d="m 210.844,134.734 c 0.347,-0.41 1.57,0.153 3.218,0.196 1.653,0.047 3.227,-0.157 3.422,0.347 0.164,0.407 -1.129,1.735 -3.511,1.59 -2.426,-0.148 -3.461,-1.742 -3.129,-2.133 z"
       style="fill:#1b1f23;fill-opacity:1;fill-rule:nonzero;stroke:#f6f8fa;stroke-width:0.75;stroke-linecap:round;stroke-linejoin:round;stroke-dasharray:none;stroke-opacity:1;paint-order:stroke fill markers"
       transform="scale(1.3333333)" />
    <path
       id="path46"
       d="m 215.559,139.16 c 0.285,-0.015 0.371,1.758 1.621,2.383 0.343,0.215 0.871,0.285 1.332,0.129 0.039,-0.012 0.078,-0.027 0.113,-0.047 0.441,-0.203 0.777,-0.617 0.805,-0.98 0.293,-1.172 -1.129,-2.196 -0.965,-2.418 0.16,-0.223 2.043,0.058 2.211,2.464 -0.028,0.895 -0.555,1.786 -1.496,2.192 -0.075,0.035 -0.153,0.062 -0.231,0.09 -0.906,0.308 -1.844,0.105 -2.508,-0.391 -1.886,-1.594 -1.171,-3.406 -0.882,-3.422 z"
       style="fill:#1b1f23;fill-opacity:1;fill-rule:nonzero;stroke:#f6f8fa;stroke-width:0.75;stroke-linecap:round;stroke-linejoin:round;stroke-dasharray:none;stroke-opacity:1;paint-order:stroke fill markers"
       transform="scale(1.3333333)" />
    <path
       id="path47"
       d="m 182.551,139.344 c 0.121,-0.301 1.094,-0.332 2.168,-0.301 1.164,0.035 2.179,0.262 2.179,0.68 0,0.379 -0.957,0.757 -2.234,0.699 -1.352,-0.067 -2.262,-0.695 -2.113,-1.078 z"
       style="fill:#1b1f23;fill-opacity:1;fill-rule:nonzero;stroke:#f6f8fa;stroke-width:0.75;stroke-linecap:round;stroke-linejoin:round;stroke-dasharray:none;stroke-opacity:1;paint-order:stroke fill markers"
       transform="scale(1.3333333)" />
    <path
       id="path48"
       d="m 125.852,61.938 c -0.297,-0.204 -0.102,-1.2 1.062,-2.348 1.332,-1.313 2.938,-1.996 5.098,-2.938 0.269,-0.175 0.601,-0.308 0.984,-0.379 0.723,-0.132 1.57,-0.019 2.434,0.43 1.027,0.871 1.367,1.859 1.41,2.57 0.551,3.543 -0.199,5.512 -0.781,5.586 -0.582,0.071 -0.922,-2.453 -1.762,-5.004 -0.242,-0.5 -0.328,-0.937 -0.445,-0.847 0.113,-0.067 0.019,0.008 -0.215,0.09 -0.121,0.047 -0.278,0.093 -0.453,0.121 -2.157,1.019 -4.028,1.414 -5.196,1.906 -1.117,0.477 -1.832,1.02 -2.136,0.809 z"
       style="fill:#1b1f23;fill-opacity:1;fill-rule:nonzero;stroke:#f6f8fa;stroke-width:0.75;stroke-linecap:round;stroke-linejoin:round;stroke-dasharray:none;stroke-opacity:1;paint-order:stroke fill markers"
       transform="scale(1.3333333)" />
    <path
       id="path49"
       d="m 153.25,62.285 c -0.609,0.043 -1.801,-1.726 -1.086,-4.98 0.254,-1.075 1.18,-2.094 2.754,-2.297 0.148,0.004 0.301,0.015 0.453,0.027 2.344,0.203 4.137,1.449 5.07,2.188 1.016,0.8 1.586,1.449 1.461,1.785 -0.14,0.379 -1.031,0.418 -2.382,0.043 -1.309,-0.363 -2.868,-1.199 -4.321,-1.223 -0.09,0 -0.179,0 -0.265,0.008 0.054,-0.16 -0.09,0.031 -0.239,0.246 -0.863,1.906 -0.843,4.16 -1.445,4.203 z"
       style="fill:#1b1f23;fill-opacity:1;fill-rule:nonzero;stroke:#f6f8fa;stroke-width:0.75;stroke-linecap:round;stroke-linejoin:round;stroke-dasharray:none;stroke-opacity:1;paint-order:stroke fill markers"
       transform="scale(1.3333333)" />
    <path
       id="path50"
       d="m 91.922,122.363 c 0.215,0.317 -2.406,2.055 -4.785,5.043 -0.336,0.528 -0.805,1.129 -0.965,1.535 -0.09,0.227 -0.102,0.418 0.016,0.563 -0.012,0.461 0.984,0.641 1.757,0.879 2.801,0.543 5,0.215 5.051,0.535 0.047,0.32 -1.992,1.238 -5.258,0.926 -0.961,-0.004 -2.336,-0.34 -3.07,-1.77 -0.145,-0.543 -0.145,-1.062 -0.035,-1.551 0.203,-0.929 0.765,-1.668 1.285,-2.144 2.828,-3.207 5.777,-4.336 6.004,-4.016 z"
       style="fill:#1b1f23;fill-opacity:1;fill-rule:nonzero;stroke:#f6f8fa;stroke-width:0.75;stroke-linecap:round;stroke-linejoin:round;stroke-dasharray:none;stroke-opacity:1;paint-order:stroke fill markers"
       transform="scale(1.3333333)" />
    <path
       id="path51"
       d="m 94.148,121.598 c 0.403,0.086 0.047,2.847 0.54,6.121 0.07,0.453 0.148,0.89 0.234,1.308 0.098,0.469 0.187,0.852 0.34,1.188 0.152,0.234 0.195,0.414 0.25,0.414 -0.067,0.09 0.097,0.012 0.265,-0.047 0.719,-0.402 1.114,-1.039 1.282,-0.949 0.171,0.09 0.218,0.797 -0.629,1.719 -0.231,0.273 -0.672,0.523 -1.328,0.398 -0.5,-0.199 -0.848,-0.555 -1.012,-0.914 -0.274,-0.465 -0.453,-0.961 -0.578,-1.477 -0.121,-0.449 -0.219,-0.925 -0.293,-1.418 -0.563,-3.699 0.558,-6.425 0.929,-6.343 z"
       style="fill:#1b1f23;fill-opacity:1;fill-rule:nonzero;stroke:#f6f8fa;stroke-width:0.75;stroke-linecap:round;stroke-linejoin:round;stroke-dasharray:none;stroke-opacity:1;paint-order:stroke fill markers"
       transform="scale(1.3333333)" />
    <path
       id="path52"
       d="m 98.086,126.184 c 0.375,0.039 0.73,1.023 1.066,2.05 0.371,1.149 0.528,2.262 0.071,2.45 -0.418,0.175 -1.243,-0.614 -1.637,-1.965 -0.434,-1.446 0.016,-2.586 0.5,-2.535 z"
       style="fill:#1b1f23;fill-opacity:1;fill-rule:nonzero;stroke:#f6f8fa;stroke-width:0.75;stroke-linecap:round;stroke-linejoin:round;stroke-dasharray:none;stroke-opacity:1;paint-order:stroke fill markers"
       transform="scale(1.3333333)" />
    <path
       id="path53"
       d="m 96.5,124.094 c -0.355,-0.285 -0.344,-0.883 0.02,-1.336 0.367,-0.453 0.949,-0.59 1.3,-0.309 0.356,0.285 0.344,0.883 -0.019,1.336 -0.371,0.453 -0.953,0.59 -1.301,0.309 z"
       style="fill:#1b1f23;fill-opacity:1;fill-rule:nonzero;stroke:#f6f8fa;stroke-width:0.75;stroke-linecap:round;stroke-linejoin:round;stroke-dasharray:none;stroke-opacity:1;paint-order:stroke fill markers"
       transform="scale(1.3333333)" />
    <path
       id="path54"
       d="m 100.574,127.594 c 0.145,-0.188 1.41,0.699 2.199,0.015 0.309,-0.175 0.551,-0.574 0.622,-1.023 0.011,-0.168 0.023,-0.305 -0.024,-0.352 -0.012,0.032 0.016,0.039 0.133,0.114 -0.211,-0.239 -0.543,0.445 -1.274,1.058 -0.035,0.028 -0.074,0.059 -0.109,0.09 -0.359,0.461 -0.68,0.594 -0.609,0.637 -0.11,0.019 0.117,0.355 0.187,0.906 0.008,0.117 0.102,0.254 0.117,0.211 0.297,0.051 0.735,-0.164 1.133,-0.344 0.559,-0.269 1.063,-0.594 1.426,-0.824 0.598,-0.453 0.836,-0.562 0.969,-0.512 0.199,0.075 0.047,0.532 -0.426,1.098 -0.285,0.375 -0.73,0.844 -1.328,1.285 -0.375,0.297 -0.949,0.656 -1.742,0.735 -0.782,-0.036 -1.442,-0.512 -1.653,-1.274 -0.125,-0.269 -0.371,-0.836 -0.246,-1.691 0.281,-0.766 0.731,-1.145 0.957,-1.328 0.024,-0.04 0.051,-0.075 0.071,-0.114 0.507,-0.765 1.48,-1.57 2.847,-1.465 0.528,0.164 0.86,0.508 0.981,0.918 0.125,0.446 0.109,0.84 0.011,1.153 -0.214,0.898 -0.847,1.535 -1.554,1.812 -2.168,0.645 -2.828,-0.918 -2.688,-1.105 z"
       style="fill:#1b1f23;fill-opacity:1;fill-rule:nonzero;stroke:#f6f8fa;stroke-width:0.75;stroke-linecap:round;stroke-linejoin:round;stroke-dasharray:none;stroke-opacity:1;paint-order:stroke fill markers"
       transform="scale(1.3333333)" />
    <path
       id="path55"
       d="m 105.996,124.219 c 0.344,-0.031 1.02,2.051 1.078,5.226 -0.238,0.11 -0.488,0.266 -0.773,0.469 -0.024,0.004 -0.043,0.008 -0.082,0.008 -0.012,0 -0.031,-0.024 -0.043,-0.039 -0.301,-0.328 -0.524,-0.582 -0.731,-0.719 -0.004,-0.691 0.102,-1.48 0.434,-2.25 0.051,-0.121 0.105,-0.238 0.172,-0.359 0.23,-0.457 0.629,-0.867 1.172,-1.133 0.707,-0.27 1.375,-0.207 1.89,0.004 1.305,0.59 1.778,1.769 2.016,2.422 0.762,1.605 1.109,2.297 0.976,2.496 -0.132,0.199 -1.222,-0.61 -2.046,-1.914 -0.446,-0.594 -0.934,-1.524 -1.43,-1.543 -0.305,-0.063 -0.606,-0.106 -0.738,0.004 -0.133,0.047 -0.266,0.23 -0.411,0.453 -0.039,0.07 -0.078,0.144 -0.105,0.222 -0.211,0.481 -0.289,1.075 -0.344,1.653 -0.222,0.258 -0.48,0.41 -0.679,0.449 -0.008,0 -0.012,0.008 -0.016,-0.004 -0.016,-0.023 -0.035,-0.059 -0.059,-0.09 -0.246,-0.008 -0.496,-0.062 -0.726,-0.16 0.179,-2.934 0.094,-5.164 0.445,-5.195 z"
       style="fill:#1b1f23;fill-opacity:1;fill-rule:nonzero;stroke:#f6f8fa;stroke-width:0.75;stroke-linecap:round;stroke-linejoin:round;stroke-dasharray:none;stroke-opacity:1;paint-order:stroke fill markers"
       transform="scale(1.3333333)" />
    <path
       id="path56"
       d="m 114.383,116.898 c 0.222,0.051 0.215,1 -0.043,2.5 -0.258,1.493 -0.817,3.469 -0.965,5.594 -0.023,0.242 -0.031,0.485 -0.035,0.723 0.008,1.125 0.144,2.031 0.668,2.594 1.133,1.539 3.324,1.398 3.324,1.699 0,0.304 -2.055,1.301 -4.348,-0.711 -0.902,-0.914 -1.328,-2.231 -1.273,-3.609 0.004,-0.27 0.012,-0.543 0.035,-0.821 0.18,-2.273 0.973,-4.496 1.473,-5.777 0.539,-1.395 0.953,-2.238 1.164,-2.192 z"
       style="fill:#1b1f23;fill-opacity:1;fill-rule:nonzero;stroke:#f6f8fa;stroke-width:0.75;stroke-linecap:round;stroke-linejoin:round;stroke-dasharray:none;stroke-opacity:1;paint-order:stroke fill markers"
       transform="scale(1.3333333)" />
    <path
       id="path57"
       d="m 109.664,122.273 c -0.016,-0.453 1.774,-0.777 3.816,-0.906 1.95,-0.121 3.645,-0.305 3.782,0.028 0.203,0.472 -1.379,1.445 -3.668,1.613 -2.207,0.164 -3.922,-0.285 -3.93,-0.735 z"
       style="fill:#1b1f23;fill-opacity:1;fill-rule:nonzero;stroke:#f6f8fa;stroke-width:0.75;stroke-linecap:round;stroke-linejoin:round;stroke-dasharray:none;stroke-opacity:1;paint-order:stroke fill markers"
       transform="scale(1.3333333)" />
    <path
       id="path58"
       d="m 191.398,117.277 c 0.028,0.18 -0.582,0.383 -1.664,0.711 -0.933,0.285 -2.718,0.758 -3.289,1.95 -0.172,0.281 -0.218,0.691 -0.144,1.089 0.078,0.465 0.324,0.938 0.637,1.465 0.398,0.649 0.878,1.258 1.441,1.903 0.383,0.453 0.789,0.894 1.18,1.339 0.382,0.43 0.773,0.864 1.129,1.375 0.281,0.079 0.546,0.688 0.371,1.668 -0.422,0.989 -1.278,1.828 -2.422,2.071 -1.063,0.093 -1.883,-0.36 -2.403,-0.801 -0.73,-0.594 -1.211,-1.274 -1.484,-1.762 -0.18,-0.312 -0.289,-0.578 -0.355,-0.797 -0.102,-0.304 -0.063,-0.511 0.039,-0.511 0.082,0 0.168,0.019 0.371,0.277 0.222,0.219 0.25,0.246 0.57,0.547 0.371,0.351 0.926,0.859 1.566,1.23 0.473,0.239 1.055,0.5 1.442,0.348 0.449,-0.035 0.769,-0.617 1.156,-1.324 0.055,0.343 -0.148,0.586 -0.246,0.07 -0.293,-0.391 -0.652,-0.758 -1.055,-1.195 -0.394,-0.426 -0.816,-0.879 -1.226,-1.36 -0.59,-0.687 -1.129,-1.398 -1.586,-2.175 -0.375,-0.629 -0.672,-1.336 -0.789,-2.114 -0.11,-0.789 0.082,-1.57 0.508,-2.203 2.828,-3.586 6.21,-2.129 6.253,-1.801 z"
       style="fill:#1b1f23;fill-opacity:1;fill-rule:nonzero;stroke:#f6f8fa;stroke-width:0.75;stroke-linecap:round;stroke-linejoin:round;stroke-dasharray:none;stroke-opacity:1;paint-order:stroke fill markers"
       transform="scale(1.3333333)" />
    <path
       id="path59"
       d="m 191.219,125.527 c 0.078,-0.164 0.804,0.164 1.75,0.305 0.363,0.051 0.89,-0.023 1.082,-0.359 0.269,-0.371 0.562,-0.825 0.449,-1.102 -0.016,-0.183 -0.195,-0.394 -0.406,-0.539 -0.313,-0.187 -1.172,-0.176 -1.094,0.16 -0.125,0.324 -0.242,0.66 -0.328,0.985 -0.184,0.668 -0.234,1.269 -0.039,1.765 0.16,0.602 0.73,1.102 1.305,1.41 2.66,1.364 5.191,0.078 5.363,0.379 0.168,0.305 -2.289,2.559 -6.012,1.082 -0.934,-0.363 -1.859,-1.117 -2.32,-2.293 -0.297,-0.925 -0.289,-1.886 -0.067,-2.797 0.11,-0.445 0.274,-0.867 0.453,-1.246 0.879,-1.504 2.606,-1.605 3.696,-0.82 0.586,0.414 0.949,1.07 1.004,1.785 -0.004,1.039 -0.543,1.766 -1.051,2.18 -0.82,0.676 -1.75,0.605 -2.34,0.348 -1.195,-0.551 -1.523,-1.075 -1.445,-1.243 z"
       style="fill:#1b1f23;fill-opacity:1;fill-rule:nonzero;stroke:#f6f8fa;stroke-width:0.75;stroke-linecap:round;stroke-linejoin:round;stroke-dasharray:none;stroke-opacity:1;paint-order:stroke fill markers"
       transform="scale(1.3333333)" />
    <path
       id="path60"
       d="m 202.898,123.98 c 0.383,-0.191 1.332,2.047 3.207,3.391 0.219,0.086 0.27,0.184 0.161,0.121 -0.047,0.039 -0.067,0.039 -0.055,0.012 0.008,-0.027 0.047,-0.074 0.109,-0.125 0.399,-0.524 0.649,-1.488 0.93,-2.215 0.645,-1.793 1.293,-2.957 1.672,-2.801 0.226,0.094 0.176,1.383 -0.164,3.207 -0.121,0.727 -0.309,1.813 -0.957,2.825 -0.086,0.171 -0.239,0.347 -0.442,0.5 -0.211,0.156 -0.476,0.285 -0.808,0.371 -0.758,0.031 -1.289,-0.227 -1.567,-0.539 -2.429,-2.211 -2.468,-4.555 -2.086,-4.747 z"
       style="fill:#1b1f23;fill-opacity:1;fill-rule:nonzero;stroke:#f6f8fa;stroke-width:0.75;stroke-linecap:round;stroke-linejoin:round;stroke-dasharray:none;stroke-opacity:1;paint-order:stroke fill markers"
       transform="scale(1.3333333)" />
    <path
       id="path61"
       d="m 210.305,124.805 c 0.054,-0.184 0.91,0.074 1.808,-0.235 0.305,-0.07 0.594,-0.425 0.653,-0.875 0.121,-0.523 -0.321,-1.277 -1.008,-1.59 -0.508,-0.222 -1.395,-0.117 -1.617,0.383 -0.102,0.137 -0.192,0.282 -0.254,0.442 -0.492,1.211 0.125,2.863 0.875,3.898 0.519,0.598 1.027,0.996 1.531,0.992 1.277,0.242 2.137,-1.312 2.348,-1.187 0.214,0.121 0.238,2.008 -2.286,2.449 -0.992,0.078 -2.046,-0.359 -2.789,-1.215 -1.203,-1.215 -2.128,-3.41 -1.312,-5.57 0.101,-0.281 0.234,-0.551 0.394,-0.809 1,-1.316 2.653,-1.5 3.852,-0.89 1.406,0.718 1.914,2.23 1.598,3.429 -0.289,0.973 -1.11,1.489 -1.836,1.567 -1.496,0.027 -2.012,-0.606 -1.957,-0.789 z"
       style="fill:#1b1f23;fill-opacity:1;fill-rule:nonzero;stroke:#f6f8fa;stroke-width:0.75;stroke-linecap:round;stroke-linejoin:round;stroke-dasharray:none;stroke-opacity:1;paint-order:stroke fill markers"
       transform="scale(1.3333333)" />
    <path
       id="path62"
       d="m 214.957,121.379 c 0.391,-0.078 1.301,2.391 1.969,5.98 -0.246,0.219 -0.492,0.453 -0.746,0.711 -0.098,-0.008 -0.196,-0.004 -0.289,0.012 -0.028,0.004 -0.051,0.008 -0.082,-0.004 -0.227,-0.07 -0.418,-0.098 -0.586,-0.062 -0.035,-0.145 -0.067,-0.289 -0.094,-0.43 -0.109,-0.512 -0.199,-1.047 -0.274,-1.598 -0.054,-0.41 -0.093,-0.812 -0.121,-1.211 -0.027,-0.441 -0.046,-0.902 0.012,-1.398 -0.207,-0.188 0.051,-0.754 0.895,-1.32 1.933,-0.313 3.664,0.586 4.429,0.964 0.918,0.454 1.477,0.739 1.45,0.911 -0.032,0.199 -0.676,0.293 -1.774,0.101 -0.883,-0.152 -2.691,-0.738 -3.695,-0.336 0.613,-0.648 0.492,-0.23 0.418,-0.156 -0.024,0.32 0.011,0.676 0.047,1.094 0.035,0.367 0.078,0.738 0.125,1.117 0.07,0.512 0.148,1.016 0.23,1.504 0.02,0.133 0.047,0.258 0.067,0.375 -0.141,0.16 -0.313,0.265 -0.489,0.305 -0.019,0.003 -0.043,-0.008 -0.062,-0.02 -0.094,-0.039 -0.199,-0.094 -0.301,-0.16 -0.285,-0.028 -0.574,-0.074 -0.863,-0.137 -0.422,-3.531 -0.664,-6.168 -0.266,-6.242 z"
       style="fill:#1b1f23;fill-opacity:1;fill-rule:nonzero;stroke:#f6f8fa;stroke-width:0.75;stroke-linecap:round;stroke-linejoin:round;stroke-dasharray:none;stroke-opacity:1;paint-order:stroke fill markers"
       transform="scale(1.3333333)" />
    <path
       id="path63"
       d="m 197.648,122.773 c 0.399,-0.074 1.297,2.395 1.965,5.985 -0.238,0.219 -0.48,0.453 -0.738,0.711 -0.105,-0.008 -0.195,-0.008 -0.289,0.008 -0.031,0.003 -0.059,0.007 -0.082,0 -0.234,-0.075 -0.418,-0.098 -0.586,-0.063 -0.035,-0.148 -0.07,-0.293 -0.098,-0.43 -0.105,-0.515 -0.195,-1.05 -0.269,-1.601 -0.055,-0.406 -0.094,-0.809 -0.121,-1.211 -0.035,-0.438 -0.047,-0.902 0.004,-1.395 -0.207,-0.187 0.05,-0.757 0.906,-1.32 1.926,-0.316 3.66,0.586 4.422,0.961 0.918,0.453 1.472,0.738 1.453,0.91 -0.035,0.199 -0.676,0.293 -1.781,0.102 -0.879,-0.153 -2.684,-0.739 -3.684,-0.336 0.602,-0.645 0.48,-0.231 0.414,-0.156 -0.027,0.324 0.012,0.675 0.047,1.097 0.027,0.363 0.07,0.735 0.125,1.113 0.062,0.512 0.141,1.016 0.223,1.508 0.027,0.133 0.046,0.258 0.074,0.375 -0.149,0.16 -0.321,0.262 -0.492,0.301 -0.016,0.008 -0.043,-0.004 -0.067,-0.016 -0.094,-0.043 -0.187,-0.097 -0.297,-0.16 -0.289,-0.031 -0.578,-0.078 -0.855,-0.14 -0.426,-3.532 -0.664,-6.164 -0.274,-6.243 z"
       style="fill:#1b1f23;fill-opacity:1;fill-rule:nonzero;stroke:#f6f8fa;stroke-width:0.75;stroke-linecap:round;stroke-linejoin:round;stroke-dasharray:none;stroke-opacity:1;paint-order:stroke fill markers"
       transform="scale(1.3333333)" />
    <path
       id="path64"
       d="m 125.512,16.461 c 0.465,-0.07 1,2.129 1.015,4.926 0.02,2.761 -0.382,4.953 -0.82,4.953 -0.445,0 -0.769,-2.246 -0.777,-4.942 -0.012,-2.66 0.172,-4.875 0.582,-4.937 z"
       style="fill:#1b1f23;fill-opacity:1;fill-rule:nonzero;stroke:#f6f8fa;stroke-width:0.75;stroke-linecap:round;stroke-linejoin:round;stroke-dasharray:none;stroke-opacity:1;paint-order:stroke fill markers"
       transform="scale(1.3333333)" />
    <path
       id="path65"
       d="m 127.551,21.133 c 0.281,-0.028 0.558,1.109 0.906,2.726 0.094,0.411 0.137,0.793 0.231,0.895 0.093,-0.07 -0.083,-0.16 -0.547,-0.359 -0.391,0.156 -0.567,0.226 -0.485,0.269 0.035,-0.051 0.059,-0.238 0.145,-0.539 0.078,-0.289 0.16,-0.641 0.25,-0.988 0.121,-0.434 0.258,-0.871 0.453,-1.309 0.035,-0.277 0.332,-0.68 0.891,-0.992 0.859,0.035 1.253,0.441 1.285,0.824 0.953,2.117 1.191,3.258 0.972,3.551 -0.214,0.293 -1.297,-1.055 -2.203,-2.602 -0.195,-0.023 -0.078,-0.117 0.352,0.043 0.156,-0.156 0.273,-0.117 0.09,0.09 -0.121,0.293 -0.211,0.625 -0.317,1.02 -0.086,0.328 -0.172,0.656 -0.273,1.004 -0.067,0.246 -0.168,0.597 -0.395,0.996 0.02,0.152 -0.23,0.343 -0.734,0.508 -0.578,-0.2 -0.832,-0.434 -0.789,-0.622 -0.242,-0.656 -0.254,-1.203 -0.246,-1.543 -0.078,-1.796 0.136,-2.945 0.414,-2.972 z"
       style="fill:#1b1f23;fill-opacity:1;fill-rule:nonzero;stroke:#f6f8fa;stroke-width:0.75;stroke-linecap:round;stroke-linejoin:round;stroke-dasharray:none;stroke-opacity:1;paint-order:stroke fill markers"
       transform="scale(1.3333333)" />
    <path
       id="path66"
       d="m 131.887,14.734 c 0.445,0.047 0.593,2.555 0.847,5.512 0.25,2.942 0.559,5.418 0.153,5.586 -0.418,0.176 -1.465,-2.113 -1.75,-5.375 -0.282,-3.254 0.328,-5.762 0.75,-5.723 z"
       style="fill:#1b1f23;fill-opacity:1;fill-rule:nonzero;stroke:#f6f8fa;stroke-width:0.75;stroke-linecap:round;stroke-linejoin:round;stroke-dasharray:none;stroke-opacity:1;paint-order:stroke fill markers"
       transform="scale(1.3333333)" />
    <path
       id="path67"
       d="m 129.934,19.809 c 0.015,-0.539 0.925,-0.957 2.015,-1.012 1.11,-0.055 2.055,0.301 2.078,0.848 0.028,0.539 -0.855,1.078 -2.011,1.132 -1.168,0.059 -2.09,-0.414 -2.082,-0.968 z"
       style="fill:#1b1f23;fill-opacity:1;fill-rule:nonzero;stroke:#f6f8fa;stroke-width:0.75;stroke-linecap:round;stroke-linejoin:round;stroke-dasharray:none;stroke-opacity:1;paint-order:stroke fill markers"
       transform="scale(1.3333333)" />
    <path
       id="path68"
       d="m 134.246,23.105 c 0.024,-0.121 1.074,-0.492 2.641,-0.64 -0.203,0.035 -0.328,0.109 -0.407,0.324 -0.003,0.066 -0.042,0.043 -0.054,-0.086 -0.09,-0.277 -0.246,-0.555 -0.426,-0.691 -0.043,-0.071 -0.238,-0.055 -0.305,0.039 -0.074,0.051 -0.144,0.121 -0.215,0.199 -0.382,0.453 -0.668,1.406 -0.968,2.188 -0.086,-0.379 -0.043,-0.418 -0.086,-0.376 0.211,0.168 0.59,0.231 0.929,0.305 0.489,0.098 0.915,0.149 1.25,0.211 0.196,0.035 0.36,0.074 0.477,0.113 0.137,0.024 0.262,0.164 0.27,0.204 0.046,0.109 -0.047,0.203 -0.204,0.335 -0.109,0.09 -0.269,0.176 -0.468,0.262 -0.336,0.137 -0.801,0.27 -1.364,0.324 -0.355,0.051 -0.855,0.067 -1.425,-0.16 -0.496,-0.191 -0.875,-0.832 -0.782,-1.847 0.184,-0.864 0.512,-2.02 1.274,-2.954 0.129,-0.156 0.262,-0.304 0.418,-0.441 0.672,-0.535 1.492,-0.476 2.117,0.063 0.5,0.492 0.781,1.144 0.883,1.785 0.062,0.246 0.07,0.605 -0.024,1.023 -0.148,0.485 -0.476,0.754 -0.89,0.789 -1.621,-0.172 -2.742,-0.484 -2.641,-0.969 z"
       style="fill:#1b1f23;fill-opacity:1;fill-rule:nonzero;stroke:#f6f8fa;stroke-width:0.75;stroke-linecap:round;stroke-linejoin:round;stroke-dasharray:none;stroke-opacity:1;paint-order:stroke fill markers"
       transform="scale(1.3333333)" />
    <path
       id="path69"
       d="m 138.641,20.281 c 0.402,-0.023 0.964,2.114 0.828,5.129 -0.27,0.09 -0.539,0.203 -0.832,0.34 -0.043,0.016 -0.09,0.027 -0.137,0.043 -0.02,0.004 -0.031,0.016 -0.051,0.004 -0.023,-0.012 -0.043,-0.035 -0.058,-0.051 -0.043,-0.043 -0.086,-0.086 -0.125,-0.129 -0.137,-0.144 -0.278,-0.289 -0.414,-0.426 0.003,-0.003 0.003,-0.007 0.003,-0.011 0.153,-1.012 0.516,-1.887 0.981,-2.555 1.582,-2.246 3.027,-1.199 3.039,-1.129 0.031,0.402 -1.199,0.828 -1.871,2.227 -0.258,0.507 -0.465,1.129 -0.574,1.812 0,0 0,0.012 0,0.012 -0.164,0.066 -0.325,0.129 -0.473,0.187 -0.051,0.016 -0.094,0.032 -0.133,0.047 -0.019,0.008 -0.035,0.02 -0.047,0.02 -0.007,0.004 -0.015,-0.02 -0.023,-0.031 -0.035,-0.043 -0.074,-0.082 -0.109,-0.125 -0.254,-0.11 -0.508,-0.247 -0.758,-0.403 0.25,-2.68 0.351,-4.933 0.754,-4.961 z"
       style="fill:#1b1f23;fill-opacity:1;fill-rule:nonzero;stroke:#f6f8fa;stroke-width:0.75;stroke-linecap:round;stroke-linejoin:round;stroke-dasharray:none;stroke-opacity:1;paint-order:stroke fill markers"
       transform="scale(1.3333333)" />
    <path
       id="path70"
       d="m 145.629,18.719 c -0.199,0.136 -0.914,-1.278 -2.199,-2.969 -0.168,-0.223 -0.336,-0.441 -0.504,-0.559 -0.125,-0.031 -0.106,-0.078 0.039,-0.031 0.16,-0.105 0.226,-0.113 0.191,-0.121 -0.027,0.078 -0.031,0.231 -0.054,0.449 -0.036,0.649 0.027,1.321 0.086,2.11 0.011,0.129 0.027,0.254 0.035,0.379 0.183,2.05 0.429,3.964 0.57,5.535 0.094,1.031 0.137,1.824 0.137,2.515 0,0.364 -0.012,0.645 -0.047,0.879 -0.047,0.344 -0.133,0.524 -0.219,0.496 -0.031,-0.011 -0.137,-0.191 -0.195,-0.461 -0.043,-0.168 -0.129,-0.503 -0.203,-0.8 -0.125,-0.539 -0.336,-1.504 -0.508,-2.407 -0.289,-1.453 -0.653,-3.511 -0.836,-5.574 -0.016,-0.133 -0.027,-0.265 -0.035,-0.398 -0.071,-0.801 -0.11,-1.594 -0.035,-2.418 0.019,-0.266 0.07,-0.586 0.195,-0.934 0.062,-0.285 0.305,-0.555 0.707,-0.711 0.441,-0.015 0.723,0.141 0.848,0.321 0.293,0.292 0.503,0.613 0.66,0.886 1.226,2.09 1.554,3.676 1.367,3.813 z"
       style="fill:#1b1f23;fill-opacity:1;fill-rule:nonzero;stroke:#f6f8fa;stroke-width:0.75;stroke-linecap:round;stroke-linejoin:round;stroke-dasharray:none;stroke-opacity:1;paint-order:stroke fill markers"
       transform="scale(1.3333333)" />
    <path
       id="path71"
       d="m 140.051,21.574 c 0.062,-0.484 1.203,-0.746 2.383,-1.086 1.242,-0.359 2.406,-0.664 2.613,-0.172 0.183,0.446 -0.656,1.672 -2.258,2.11 -1.539,0.414 -2.816,-0.313 -2.738,-0.852 z"
       style="fill:#1b1f23;fill-opacity:1;fill-rule:nonzero;stroke:#f6f8fa;stroke-width:0.75;stroke-linecap:round;stroke-linejoin:round;stroke-dasharray:none;stroke-opacity:1;paint-order:stroke fill markers"
       transform="scale(1.3333333)" />
    <path
       id="path72"
       d="m 147.918,21.117 c -0.23,0.156 -1.457,-1.277 -1.656,-0.359 -0.324,0.285 -0.387,1.094 -0.203,1.867 0.265,0.594 0.324,1.184 0.386,1.285 0.02,0.024 0.032,0.024 0.055,-0.008 -0.48,0.164 -0.68,-0.027 -0.379,-0.101 0.16,-0.332 0.293,-0.797 0.438,-1.25 0.054,-0.18 0.121,-0.383 0.203,-0.61 -0.36,-0.062 0.008,-0.375 1.043,-0.668 0.875,0.598 1.179,1.516 1.328,2.032 0.051,0.699 0.828,0.711 0.883,0.953 0.066,0.242 -0.848,1.144 -1.805,-0.285 -0.316,-0.442 -0.652,-1.098 -0.922,-1.071 0.902,-0.359 1.219,-0.379 0.805,-0.277 -0.035,0.137 -0.067,0.305 -0.114,0.508 -0.093,0.457 -0.222,1.023 -0.464,1.605 -0.036,0.551 -0.59,1.098 -1.672,0.992 -0.176,-0.14 -0.332,-0.292 -0.469,-0.453 -0.617,-0.715 -0.781,-1.543 -0.813,-2.035 -0.417,-1.476 0.106,-3.062 0.985,-3.789 2.293,-1.168 2.59,1.504 2.371,1.664 z"
       style="fill:#1b1f23;fill-opacity:1;fill-rule:nonzero;stroke:#f6f8fa;stroke-width:0.75;stroke-linecap:round;stroke-linejoin:round;stroke-dasharray:none;stroke-opacity:1;paint-order:stroke fill markers"
       transform="scale(1.3333333)" />
    <path
       id="path73"
       d="m 152.051,20.125 c -0.082,0.285 -1.75,-0.449 -2.031,0.586 -0.208,0.238 -0.145,0.75 -0.036,1.387 0.016,0.054 0.024,0.109 0.032,0.164 0.238,0.734 0.504,1.293 0.875,1.508 0.492,0.652 1.41,-0.594 1.589,-0.442 0.192,0.149 -0.066,2.172 -1.972,1.637 -0.758,-0.348 -1.367,-1.172 -1.625,-2.215 -0.031,-0.074 -0.051,-0.152 -0.074,-0.23 -0.247,-0.918 -0.129,-1.95 0.386,-2.719 1.75,-1.785 2.942,0.039 2.856,0.324 z"
       style="fill:#1b1f23;fill-opacity:1;fill-rule:nonzero;stroke:#f6f8fa;stroke-width:0.75;stroke-linecap:round;stroke-linejoin:round;stroke-dasharray:none;stroke-opacity:1;paint-order:stroke fill markers"
       transform="scale(1.3333333)" />
    <path
       id="path74"
       d="m 152.883,21.816 c 0.031,-0.171 0.543,-0.074 0.976,-0.316 0.137,-0.043 0.235,-0.301 0.239,-0.594 -0.004,-0.379 0.043,-0.734 -0.047,-0.824 0.086,0.16 0.16,0.219 0.351,0.23 -0.222,0.02 -0.351,0.524 -0.683,1.122 -0.055,0.164 -0.117,0.328 -0.168,0.488 -0.16,0.5 -0.246,0.926 -0.149,1.258 -0.058,0.468 0.754,0.711 1.266,0.84 0.668,0.335 1.355,-0.938 1.52,-0.805 0.167,0.137 0.242,1.707 -1.52,2.043 -0.75,0.14 -1.918,-0.094 -2.488,-1.621 -0.172,-0.801 -0.11,-1.606 0.121,-2.325 0.074,-0.23 0.16,-0.445 0.254,-0.64 0.226,-0.707 0.707,-1.469 1.5,-1.817 0.5,-0.101 0.89,0.176 1.09,0.68 0.164,0.692 0.07,1.238 -0.024,1.578 -0.141,0.805 -0.676,1.246 -1.152,1.317 -0.871,-0.016 -1.117,-0.442 -1.086,-0.614 z"
       style="fill:#1b1f23;fill-opacity:1;fill-rule:nonzero;stroke:#f6f8fa;stroke-width:0.75;stroke-linecap:round;stroke-linejoin:round;stroke-dasharray:none;stroke-opacity:1;paint-order:stroke fill markers"
       transform="scale(1.3333333)" />
    <path
       id="path75"
       d="m 151.914,186.867 c -0.008,0.285 -8.695,2.821 -20.988,-3.5 -4.281,-2.23 -8.082,-6.316 -13.004,-9.199 -0.422,0.047 -0.633,-0.559 -0.41,-1.746 0.5,-0.453 0.871,-0.602 0.996,-0.555 0.754,-0.195 1.461,-0.273 2.117,-0.359 0.684,-0.102 1.332,-0.168 1.859,-0.332 0.223,-0.145 0.211,-0.051 -0.039,0.113 -0.125,0.867 -0.156,1.227 0.075,1.172 -3.602,-2.762 -7.516,-5.082 -11.981,-7.539 0.004,-0.016 0.008,0.008 0.012,0.019 0.011,0.024 0.031,0.051 0.047,0.079 0.066,0.097 0.125,0.21 0.183,0.332 -0.343,0.476 -0.683,0.964 -1.027,1.468 -0.598,0.86 -1.207,1.832 -1.945,2.766 -0.887,1.129 -1.809,2.273 -2.629,3.434 -0.485,0.687 -0.946,1.355 -1.289,2.035 -0.09,0.73 -0.446,0.754 -0.368,0.211 -0.171,-0.051 -0.429,-0.434 0.309,-0.223 0,0 0.004,0 0.004,0 0.715,-0.105 1.473,-0.402 2.328,-0.723 0.805,-0.308 1.672,-0.683 2.598,-1 0.308,-0.113 0.707,-0.23 1.176,-0.3 0.199,-0.18 0.781,-0.082 1.628,0.457 2.008,2.152 2.075,4.871 3.325,5.699 10.16,8.664 24.148,13.929 39.339,14.527 2.782,0.109 5.532,0.059 8.239,-0.144 5.597,-0.407 10.906,-2.883 15.336,-6.145 4.672,-3.445 8.644,-7.832 12.242,-12.141 1.035,-0.957 2.148,-1.164 2.926,-0.992 1.078,0.078 2.043,0.324 2.91,0.543 0.922,0.227 1.754,0.461 2.539,0.551 0.609,-0.047 1.016,0.105 0.879,0.008 0.203,0.012 0.176,-0.672 0.515,-1.543 0.336,-1.238 0.575,-2.512 0.77,-3.793 0.203,-1.34 0.348,-2.645 0.379,-3.93 0.172,-0.871 0.547,-1.519 0.504,-1.699 0,0 0,0.07 0,0.109 0,0.106 0,0.211 0,0.317 -0.574,0.133 -1.153,0.265 -1.723,0.402 -1.805,0.422 -3.601,0.852 -5.34,1.266 -3.222,0.769 -5.98,1.363 -8.926,2.172 -1.859,0.515 -3.507,0.843 -5.058,1.476 -0.371,0.5 -0.297,0.043 0.066,-0.453 -0.375,-0.812 -0.32,-1.074 -0.183,-0.684 0.746,0.383 1.633,0.727 2.5,1.282 1.3,0.84 2.343,2.015 2.965,3.394 0.117,0.848 -0.012,1.301 -0.243,1.324 -0.226,0.274 -0.461,0.469 -0.648,0.614 -0.598,0.461 -1.207,0.836 -1.785,1.179 -0.965,0.575 -2.012,1.118 -2.906,1.61 -5.286,2.929 -8.137,4.922 -12.614,6.547 -8.785,3.16 -14.133,2.527 -14.16,2.3 -0.035,-0.23 5.473,-0.101 13.699,-3.496 4.317,-1.765 6.844,-3.722 12.203,-6.875 0.942,-0.554 1.899,-1.078 2.817,-1.656 0.551,-0.351 1.094,-0.703 1.562,-1.09 0.164,-0.14 0.289,-0.238 0.344,-0.32 -0.07,-0.168 -0.027,0.035 -0.012,0.66 -0.465,-0.996 -1.289,-1.867 -2.3,-2.5 -0.633,-0.402 -1.454,-0.691 -2.34,-1.129 -0.192,0.219 -0.621,-0.207 -0.957,-1.387 0.5,-1.082 1.035,-1.445 1.191,-1.246 1.77,-0.75 3.5,-1.14 5.266,-1.656 2.988,-0.879 5.793,-1.531 8.957,-2.336 1.742,-0.441 3.531,-0.894 5.336,-1.344 0.57,-0.14 1.152,-0.285 1.738,-0.425 0.316,0.031 0.644,0.062 0.977,0.093 0.121,0.012 0.25,-0.007 0.367,0.043 0.843,1.352 1.039,2.621 1.176,3.551 -0.012,1.43 -0.157,2.844 -0.352,4.25 -0.188,1.34 -0.434,2.715 -0.785,4.09 -0.067,0.645 -0.289,1.746 -1.278,2.816 -1.109,0.774 -2.203,0.848 -2.898,0.649 -1.043,-0.121 -1.988,-0.367 -2.867,-0.582 -0.887,-0.207 -1.707,-0.418 -2.449,-0.453 -0.52,0.093 -0.903,-0.012 -0.707,0.043 -3.602,4.414 -7.704,8.968 -12.637,12.668 -4.727,3.543 -10.5,6.222 -16.781,6.734 -2.809,0.223 -5.672,0.285 -8.559,0.176 -15.805,-0.602 -30.355,-6.188 -40.977,-15.352 -2.222,-2.156 -2.285,-4.875 -3.429,-5.875 0.582,0.27 0.726,0.414 0.554,0.281 -0.168,0.012 -0.394,0.09 -0.687,0.184 -0.805,0.262 -1.625,0.609 -2.512,0.938 -0.855,0.328 -1.793,0.668 -2.855,0.835 -0.707,0.313 -1.875,0.094 -2.899,-1.05 -0.406,-1.481 -0.039,-2.407 0.344,-2.621 0.457,-0.856 0.981,-1.618 1.5,-2.321 0.891,-1.23 1.852,-2.394 2.754,-3.504 0.633,-0.781 1.234,-1.711 1.883,-2.617 0.351,-0.496 0.711,-0.996 1.086,-1.496 0.293,-0.195 0.582,-0.394 0.894,-0.598 0.09,-0.054 0.176,-0.113 0.27,-0.167 0.039,-0.02 0.078,-0.059 0.117,-0.055 5.027,2.422 9.5,4.793 13.59,7.633 0.441,0.097 0.613,0.742 0.328,1.816 -0.496,0.465 -0.875,0.625 -1.031,0.59 -0.785,0.211 -1.528,0.281 -2.168,0.351 -0.711,0.09 -1.336,0.133 -1.883,0.274 -0.234,0.144 -0.227,0.043 0.047,-0.129 0.07,-0.996 0.101,-1.359 -0.113,-1.188 5.234,3.243 8.781,7.34 12.718,9.528 11.367,6.418 20.262,4.574 20.258,4.859 z"
       style="fill:#1b1f23;fill-opacity:1;fill-rule:nonzero;stroke:#f6f8fa;stroke-width:0.75;stroke-linecap:round;stroke-linejoin:round;stroke-dasharray:none;stroke-opacity:1;paint-order:stroke fill markers"
       transform="scale(1.3333333)" />
    <path
       id="path76"
       d="m 139.965,174.168 c 0.762,-0.02 1.504,2.18 1.43,4.977 -0.079,2.816 -0.973,4.98 -1.758,4.882 -0.762,-0.093 -1.137,-2.324 -1.075,-4.957 0.075,-2.66 0.61,-4.882 1.403,-4.902 z"
       style="fill:#1b1f23;fill-opacity:1;fill-rule:nonzero;stroke:#f6f8fa;stroke-width:0.75;stroke-linecap:round;stroke-linejoin:round;stroke-dasharray:none;stroke-opacity:1;paint-order:stroke fill markers"
       transform="scale(1.3333333)" />
    <path
       id="path77"
       d="m 134.391,175.707 c -0.375,-0.523 1.218,-2.934 4.527,-4.535 3.398,-1.649 6.352,-1.082 6.352,-0.231 0,0.598 -2.504,1.461 -5.086,2.782 -2.809,1.437 -5.286,2.695 -5.793,1.984 z"
       style="fill:#1b1f23;fill-opacity:1;fill-rule:nonzero;stroke:#f6f8fa;stroke-width:0.75;stroke-linecap:round;stroke-linejoin:round;stroke-dasharray:none;stroke-opacity:1;paint-order:stroke fill markers"
       transform="scale(1.3333333)" />
    <path
       id="path78"
       d="m 150.098,171.5 c 0.082,0.59 -3.465,0.977 -4.653,3.438 -0.363,0.562 -0.375,1.535 0.043,2.25 0.016,0.015 0.024,0.035 0.032,0.054 0.746,1.762 3.316,1.801 4.855,1.594 1.656,-0.223 2.715,-0.75 2.969,-0.457 0.183,0.219 -0.297,1.519 -2.399,2.414 -1.886,0.801 -5.531,1.105 -7.84,-2.074 -0.019,-0.043 -0.05,-0.09 -0.074,-0.133 -0.98,-1.738 -0.75,-3.731 0.266,-5.148 3.172,-3.79 6.719,-2.524 6.801,-1.938 z"
       style="fill:#1b1f23;fill-opacity:1;fill-rule:nonzero;stroke:#f6f8fa;stroke-width:0.75;stroke-linecap:round;stroke-linejoin:round;stroke-dasharray:none;stroke-opacity:1;paint-order:stroke fill markers"
       transform="scale(1.3333333)" />
    <path
       id="path79"
       d="m 155.004,170.148 c 0.84,-0.32 2.242,2.223 2.734,5.68 0.473,3.281 0.231,6.012 -0.39,6.172 -0.875,0.227 -1.957,-2.426 -2.418,-5.777 -0.434,-3.153 -0.516,-5.852 0.074,-6.075 z"
       style="fill:#1b1f23;fill-opacity:1;fill-rule:nonzero;stroke:#f6f8fa;stroke-width:0.75;stroke-linecap:round;stroke-linejoin:round;stroke-dasharray:none;stroke-opacity:1;paint-order:stroke fill markers"
       transform="scale(1.3333333)" />
    <path
       id="path80"
       d="m 152.293,171.598 c -0.297,-0.196 0.355,-2.953 4.594,-3.532 1.746,-0.32 3.886,-0.312 6.058,0.446 0.102,0.035 0.192,0.07 0.289,0.105 0.786,0.266 1.614,0.735 2.325,1.496 0.671,0.731 0.875,1.774 0.55,2.821 -0.64,1.296 -1.629,1.89 -2.347,2.164 -2.805,1.308 -4.739,1.14 -4.867,0.679 -0.133,-0.457 1.679,-1.187 3.71,-2.679 0.52,-0.446 1.083,-0.821 1.032,-1.09 0.031,0.109 -0.078,0.027 -0.125,-0.043 -0.223,-0.266 -0.688,-0.445 -1.282,-0.703 -0.074,-0.028 -0.144,-0.055 -0.218,-0.082 -1.641,-0.578 -3.375,-0.715 -4.86,-0.684 -2.929,0.215 -4.425,1.387 -4.859,1.102 z"
       style="fill:#1b1f23;fill-opacity:1;fill-rule:nonzero;stroke:#f6f8fa;stroke-width:0.75;stroke-linecap:round;stroke-linejoin:round;stroke-dasharray:none;stroke-opacity:1;paint-order:stroke fill markers"
       transform="scale(1.3333333)" />
    <path
       id="path81"
       d="m 20.242,154.227 c 0.504,-0.059 1.176,1.222 1.457,3.464 0.289,2.313 0.121,5.254 -0.719,8.625 -0.812,3.246 -2.058,6.137 -3.066,8.024 -1.035,1.933 -1.926,3.023 -2.41,2.859 -0.984,-0.336 0.226,-5.695 1.812,-11.812 0.918,-3.532 1.274,-5.274 1.75,-7.758 0.379,-1.992 0.645,-3.348 1.176,-3.402 z"
       style="fill:#1b1f23;fill-opacity:1;fill-rule:nonzero;stroke:#f6f8fa;stroke-width:0.75;stroke-linecap:round;stroke-linejoin:round;stroke-dasharray:none;stroke-opacity:1;paint-order:stroke fill markers"
       transform="scale(1.3333333)" />
    <path
       id="path82"
       d="m 20.242,154.227 c 0.324,-0.391 1.699,0.058 3.438,1.554 1.816,1.563 3.593,3.883 5.191,6.953 0.039,0.075 0.074,0.145 0.113,0.219 1.438,2.758 2.543,5.789 3.114,7.59 0.625,1.961 0.882,3.289 0.441,3.551 -0.441,0.265 -1.516,-0.606 -2.793,-2.348 -1.398,-1.906 -2.558,-4.117 -4.105,-7.043 0,-0.004 -0.11,-0.203 -0.11,-0.203 -1.5,-2.797 -2.828,-5.246 -3.867,-6.992 -1.031,-1.727 -1.762,-2.875 -1.422,-3.281 z"
       style="fill:#1b1f23;fill-opacity:1;fill-rule:nonzero;stroke:#f6f8fa;stroke-width:0.75;stroke-linecap:round;stroke-linejoin:round;stroke-dasharray:none;stroke-opacity:1;paint-order:stroke fill markers"
       transform="scale(1.3333333)" />
    <path
       id="path83"
       d="m 21.316,129.168 c -0.027,0.219 -1.308,0.137 -1.945,1.16 -0.43,0.555 -0.57,1.277 -0.703,2.367 -0.254,2.532 0.129,4.778 0.676,8.289 0,-0.004 0.004,0.02 0.004,0.02 0.55,3.437 1.172,6.605 1.496,9.07 0.183,1.395 0.273,2.395 0.242,3.324 -0.016,0.45 -0.059,0.797 -0.152,1.094 -0.098,0.5 -0.411,0.57 -0.465,0.512 -0.067,-0.074 -0.098,-0.184 -0.11,-0.559 -0.062,-0.34 -0.097,-0.457 -0.214,-0.957 -0.196,-0.785 -0.481,-1.828 -0.817,-3.117 -0.57,-2.176 -1.465,-5.726 -2,-9.043 0,0 -0.004,-0.019 -0.004,-0.019 -0.57,-3.422 -0.804,-6.172 -0.258,-8.86 0.219,-1.215 0.7,-2.226 1.438,-2.926 1.586,-1.378 2.84,-0.574 2.812,-0.355 z"
       style="fill:#1b1f23;fill-opacity:1;fill-rule:nonzero;stroke:#f6f8fa;stroke-width:0.75;stroke-linecap:round;stroke-linejoin:round;stroke-dasharray:none;stroke-opacity:1;paint-order:stroke fill markers"
       transform="scale(1.3333333)" />
    <path
       id="path84"
       d="m 21.008,141.879 c -0.867,-0.805 1.883,-4.699 6.777,-7.902 4.785,-3.137 9.102,-4.629 9.664,-3.754 0.559,0.879 -3.019,3.957 -7.601,6.918 -1.821,1.175 -4.809,3.047 -5.852,3.668 -1.516,0.902 -2.598,1.429 -2.988,1.07 z"
       style="fill:#1b1f23;fill-opacity:1;fill-rule:nonzero;stroke:#f6f8fa;stroke-width:0.75;stroke-linecap:round;stroke-linejoin:round;stroke-dasharray:none;stroke-opacity:1;paint-order:stroke fill markers"
       transform="scale(1.3333333)" />
    <path
       id="path85"
       d="m 16.938,142.309 c -0.559,0.875 -4.731,-0.747 -9.411,-3.586 -0.222,-0.133 -0.441,-0.27 -0.66,-0.407 -4.301,-2.699 -7.344,-5.554 -6.805,-6.386 0.54,-0.832 4.329,0.566 8.762,3.172 0.219,0.128 0.438,0.261 0.66,0.394 4.672,2.836 8.016,5.934 7.454,6.813 z"
       style="fill:#1b1f23;fill-opacity:1;fill-rule:nonzero;stroke:#f6f8fa;stroke-width:0.75;stroke-linecap:round;stroke-linejoin:round;stroke-dasharray:none;stroke-opacity:1;paint-order:stroke fill markers"
       transform="scale(1.3333333)" />
    <path
       id="path86"
       d="m 21.738,104.332 c -0.062,0.285 -1.414,0.125 -3.543,0.637 -2.133,0.515 -5.175,1.937 -7.652,4.832 -1.336,1.679 -2.742,4.015 -2.281,6.051 0.191,1.625 1.433,3.171 3.062,4.511 1.778,1.399 4,2.383 6.449,3.012 0.524,0.125 1.059,0.238 1.59,0.328 1.825,0.305 3.586,0.348 5.215,0 2.406,-0.508 4.551,-1.906 5.692,-3.75 1.242,-1.91 1.601,-4.289 1.394,-6.351 -0.273,-2.508 -1.375,-4.657 -2.754,-6.04 -3.199,-3.332 -7.125,-2.781 -7.172,-3.23 -0.047,-0.445 3.93,-2.281 8.742,1.453 1.958,1.567 3.68,4.153 4.235,7.375 0.473,2.652 0.168,5.781 -1.453,8.606 -1.653,2.765 -4.508,4.843 -7.907,5.582 -2.179,0.464 -4.421,0.457 -6.617,0.09 -0.644,-0.11 -1.277,-0.247 -1.89,-0.411 -2.891,-0.722 -5.575,-1.996 -7.809,-3.812 -2.184,-1.715 -3.773,-4.153 -4.152,-6.93 -0.27,-3.68 1.648,-6.633 3.535,-8.445 3.293,-3.348 7.101,-4.379 9.574,-4.445 2.508,-0.071 3.805,0.656 3.742,0.937 z"
       style="fill:#1b1f23;fill-opacity:1;fill-rule:nonzero;stroke:#f6f8fa;stroke-width:0.75;stroke-linecap:round;stroke-linejoin:round;stroke-dasharray:none;stroke-opacity:1;paint-order:stroke fill markers"
       transform="scale(1.3333333)" />
    <path
       id="path87"
       d="m 32.934,145.473 c -0.067,-0.516 1.378,-1.164 3.714,-1.914 2.184,-0.704 5.766,-1.68 9.329,-2.364 0,0 0.019,-0.004 0.019,-0.004 3.828,-0.738 7.152,-0.976 9.774,-0.816 2.546,0.152 4.078,0.66 4.078,1.172 0,0.527 -1.516,0.965 -3.879,1.484 -1.598,0.352 -6.395,1.317 -9.262,1.864 0,0 -0.019,0.003 -0.019,0.003 -3.79,0.731 -6.938,1.196 -9.586,1.29 -2.52,0.085 -4.102,-0.2 -4.168,-0.715 z"
       style="fill:#1b1f23;fill-opacity:1;fill-rule:nonzero;stroke:#f6f8fa;stroke-width:0.75;stroke-linecap:round;stroke-linejoin:round;stroke-dasharray:none;stroke-opacity:1;paint-order:stroke fill markers"
       transform="scale(1.3333333)" />
    <path
       id="path88"
       d="m 61.07,148.863 c -0.414,0.051 -1.008,-1.386 -1.254,-4.086 -0.265,-2.941 -0.07,-6.316 0.454,-10.98 2.171,-0.301 4.691,-0.606 7.257,-0.621 0.075,0.008 0.149,0.012 0.223,0.019 1.117,0.121 2.395,0.403 3.68,1.129 0.445,0.235 0.91,0.66 1.32,1.285 0.332,0.594 0.465,1.223 0.414,1.836 -0.226,1.371 -0.805,2.274 -1.332,2.778 -1.664,1.949 -3.824,3.48 -5.148,4.488 -3.407,2.668 -5.18,4.434 -5.668,4.144 -0.649,-0.386 0.648,-2.996 3.754,-6.253 1.144,-1.223 3.218,-3.114 4.277,-4.586 0.297,-0.536 0.582,-0.825 0.457,-0.836 -0.016,0.093 0.008,0.191 0.07,0.332 0.086,0.086 0.051,0.105 -0.051,0.015 -0.476,-0.324 -1.265,-0.41 -2.281,-0.574 -0.066,-0.012 -0.137,-0.023 -0.203,-0.035 -1.625,-0.566 -3.332,-0.914 -4.973,-1.199 -0.046,2.105 -0.304,8.644 -0.332,9.289 -0.101,2.304 -0.23,3.801 -0.664,3.855 z"
       style="fill:#1b1f23;fill-opacity:1;fill-rule:nonzero;stroke:#f6f8fa;stroke-width:0.75;stroke-linecap:round;stroke-linejoin:round;stroke-dasharray:none;stroke-opacity:1;paint-order:stroke fill markers"
       transform="scale(1.3333333)" />
    <path
       id="path89"
       d="m 231.121,131.992 c 1.231,-0.594 7.336,-1.078 13.305,-0.859 1.015,0.035 2.043,0.097 3.074,0.195 7.711,0.727 11.633,3.008 9.914,3.59 -1.18,0.402 -7.43,0.199 -13.125,-0.012 -1,-0.039 -2.027,-0.082 -3.055,-0.144 -7.312,-0.446 -11.875,-1.914 -10.113,-2.77 z"
       style="fill:#1b1f23;fill-opacity:1;fill-rule:nonzero;stroke:#f6f8fa;stroke-width:0.75;stroke-linecap:round;stroke-linejoin:round;stroke-dasharray:none;stroke-opacity:1;paint-order:stroke fill markers"
       transform="scale(1.3333333)" />
    <path
       id="path90"
       d="m 257.043,141.414 c -0.547,-2.289 0.398,-7.008 2.945,-14.289 2.223,0.195 4.731,0.465 7.219,1.02 1.066,0.347 2.352,0.906 3.543,1.992 0.379,0.328 0.738,0.843 0.996,1.551 0.129,0.433 0.168,0.863 0.121,1.281 -0.019,0.203 -0.062,0.406 -0.125,0.597 -0.531,1.293 -1.301,2.039 -1.922,2.411 -2.066,1.531 -4.547,2.554 -6.023,3.222 -2.504,1.172 -4.258,1.989 -5.297,2.485 -0.953,0.453 -1.52,0.562 -1.078,-0.391 0.566,-1.211 2.121,-2.691 4.984,-4.578 1.434,-0.965 3.828,-2.305 5.196,-3.512 0.41,-0.457 0.753,-0.676 0.632,-0.715 -0.035,0.094 -0.035,0.188 -0.004,0.34 0.063,0.106 0.024,0.113 -0.054,0.004 -0.422,-0.453 -1.258,-0.719 -2.285,-1.152 -1,-0.625 -2.063,-1.164 -3.196,-1.68 -0.461,-0.207 -0.925,-0.406 -1.383,-0.602 -0.71,2.813 -2.562,9.555 -2.734,10.145 -0.617,2.082 -1.199,3.266 -1.535,1.867 z"
       style="fill:#1b1f23;fill-opacity:1;fill-rule:nonzero;stroke:#f6f8fa;stroke-width:0.75;stroke-linecap:round;stroke-linejoin:round;stroke-dasharray:none;stroke-opacity:1;paint-order:stroke fill markers"
       transform="scale(1.3333333)" />
    <path
       id="path91"
       d="m 277.402,117.086 c 1.039,0.047 1.625,5.73 1.309,12.684 -0.32,6.957 -1.422,12.558 -2.461,12.511 -1.039,-0.047 -1.629,-5.73 -1.309,-12.683 0.317,-6.953 1.418,-12.559 2.461,-12.512 z"
       style="fill:#1b1f23;fill-opacity:1;fill-rule:nonzero;stroke:#f6f8fa;stroke-width:0.75;stroke-linecap:round;stroke-linejoin:round;stroke-dasharray:none;stroke-opacity:1;paint-order:stroke fill markers"
       transform="scale(1.3333333)" />
    <path
       id="path92"
       d="m 305.566,133 c 1.039,0.031 1.727,4.832 1.536,10.715 -0.196,5.883 -1.196,10.629 -2.239,10.594 -1.039,-0.032 -1.726,-4.836 -1.535,-10.715 0.195,-5.883 1.195,-10.629 2.238,-10.594 z"
       style="fill:#1b1f23;fill-opacity:1;fill-rule:nonzero;stroke:#f6f8fa;stroke-width:0.75;stroke-linecap:round;stroke-linejoin:round;stroke-dasharray:none;stroke-opacity:1;paint-order:stroke fill markers"
       transform="scale(1.3333333)" />
    <path
       id="path93"
       d="m 329.629,134.078 c 1.043,-0.004 1.894,4.555 1.898,10.172 0.004,5.617 -0.836,10.176 -1.879,10.176 -1.039,0 -1.89,-4.559 -1.894,-10.172 -0.004,-5.617 0.836,-10.176 1.875,-10.176 z"
       style="fill:#1b1f23;fill-opacity:1;fill-rule:nonzero;stroke:#f6f8fa;stroke-width:0.75;stroke-linecap:round;stroke-linejoin:round;stroke-dasharray:none;stroke-opacity:1;paint-order:stroke fill markers"
       transform="scale(1.3333333)" />
    <path
       id="path94"
       d="m 327.258,155.625 c 0.019,1.043 -4.953,1.98 -11.098,2.098 -6.148,0.113 -11.152,-0.637 -11.172,-1.68 -0.019,-1.039 4.953,-1.981 11.102,-2.094 6.144,-0.117 11.148,0.637 11.168,1.676 z"
       style="fill:#1b1f23;fill-opacity:1;fill-rule:nonzero;stroke:#f6f8fa;stroke-width:0.75;stroke-linecap:round;stroke-linejoin:round;stroke-dasharray:none;stroke-opacity:1;paint-order:stroke fill markers"
       transform="scale(1.3333333)" />
    <path
       id="path95"
       d="m 306.383,132.945 c 0.043,-1.039 5.008,-1.687 11.086,-1.445 6.078,0.242 10.976,1.285 10.937,2.328 -0.043,1.039 -5.008,1.688 -11.086,1.445 -6.078,-0.242 -10.976,-1.285 -10.937,-2.328 z"
       style="fill:#1b1f23;fill-opacity:1;fill-rule:nonzero;stroke:#f6f8fa;stroke-width:0.75;stroke-linecap:round;stroke-linejoin:round;stroke-dasharray:none;stroke-opacity:1;paint-order:stroke fill markers"
       transform="scale(1.3333333)" />
    <path
       id="path96"
       d="m 278.996,115.117 c 0.016,-1.043 4.559,-1.82 10.149,-1.734 5.585,0.082 10.105,0.996 10.089,2.035 -0.015,1.043 -4.562,1.82 -10.148,1.738 -5.586,-0.086 -10.106,-0.996 -10.09,-2.039 z"
       style="fill:#1b1f23;fill-opacity:1;fill-rule:nonzero;stroke:#f6f8fa;stroke-width:0.75;stroke-linecap:round;stroke-linejoin:round;stroke-dasharray:none;stroke-opacity:1;paint-order:stroke fill markers"
       transform="scale(1.3333333)" />
    <path
       id="path97"
       d="m 302.465,116.176 c 0.527,-0.903 6.539,1.629 13.426,5.644 6.882,4.016 12.043,8.008 11.519,8.907 -0.523,0.898 -6.539,-1.629 -13.422,-5.645 -6.886,-4.02 -12.047,-8.008 -11.523,-8.906 z"
       style="fill:#1b1f23;fill-opacity:1;fill-rule:nonzero;stroke:#f6f8fa;stroke-width:0.75;stroke-linecap:round;stroke-linejoin:round;stroke-dasharray:none;stroke-opacity:1;paint-order:stroke fill markers"
       transform="scale(1.3333333)" />
    <path
       id="path98"
       d="m 278.23,118.227 c 0.497,-0.918 6.875,1.578 14.235,5.566 7.363,3.992 12.933,7.973 12.437,8.887 -0.496,0.918 -6.875,-1.578 -14.234,-5.567 -7.363,-3.992 -12.934,-7.972 -12.438,-8.886 z"
       style="fill:#1b1f23;fill-opacity:1;fill-rule:nonzero;stroke:#f6f8fa;stroke-width:0.75;stroke-linecap:round;stroke-linejoin:round;stroke-dasharray:none;stroke-opacity:1;paint-order:stroke fill markers"
       transform="scale(1.3333333)" />
    <path
       id="path99"
       d="m 277.719,142.738 c 0.449,-0.937 6.578,1.055 13.679,4.446 7.102,3.394 12.497,6.91 12.051,7.851 -0.449,0.938 -6.578,-1.051 -13.679,-4.445 -7.102,-3.395 -12.5,-6.91 -12.051,-7.852 z"
       style="fill:#1b1f23;fill-opacity:1;fill-rule:nonzero;stroke:#f6f8fa;stroke-width:0.75;stroke-linecap:round;stroke-linejoin:round;stroke-dasharray:none;stroke-opacity:1;paint-order:stroke fill markers"
       transform="scale(1.3333333)" />
    <path
       id="path100"
       d="m 276.973,145.047 c 0.867,-0.578 3.105,2.234 4.996,6.281 0.273,0.582 0.636,1.379 0.91,1.961 -0.043,-3.152 0.559,-5.652 1.66,-5.375 1.055,0.266 0.453,2.969 -1.402,6.836 -0.496,-0.547 -1.067,-1.176 -1.614,-1.785 -3.375,-3.789 -5.414,-7.336 -4.55,-7.918 z"
       style="fill:#1b1f23;fill-opacity:1;fill-rule:nonzero;stroke:#f6f8fa;stroke-width:0.75;stroke-linecap:round;stroke-linejoin:round;stroke-dasharray:none;stroke-opacity:1;paint-order:stroke fill markers"
       transform="scale(1.3333333)" />
    <path
       id="path101"
       d="m 307.129,155.625 c 1.039,-0.063 1.367,3.918 0.734,8.883 2.141,-4.52 4.563,-7.692 5.407,-7.082 0.843,0.613 -1.739,4.332 -5.766,8.301 -1.246,-5.516 -1.414,-10.039 -0.375,-10.102 z"
       style="fill:#1b1f23;fill-opacity:1;fill-rule:nonzero;stroke:#f6f8fa;stroke-width:0.75;stroke-linecap:round;stroke-linejoin:round;stroke-dasharray:none;stroke-opacity:1;paint-order:stroke fill markers"
       transform="scale(1.3333333)" />
    <path
       id="path102"
       d="m 319.844,157.52 c 0.875,-0.497 2.777,2.566 4.199,6.914 -0.02,0.222 0.062,-0.684 0.043,-0.461 0.422,-4.805 1.586,-8.485 2.59,-8.211 1.004,0.273 0,4.578 -2.242,9.609 -0.012,0.024 -0.204,0.457 -0.215,0.481 -3.356,-4.145 -5.254,-7.84 -4.375,-8.332 z"
       style="fill:#1b1f23;fill-opacity:1;fill-rule:nonzero;stroke:#f6f8fa;stroke-width:0.75;stroke-linecap:round;stroke-linejoin:round;stroke-dasharray:none;stroke-opacity:1;paint-order:stroke fill markers"
       transform="scale(1.3333333)" />
    <path
       id="path103"
       d="m 291.598,149.289 c 1.16,-0.719 2.066,0.84 2.531,2.684 0.027,0.117 0.059,0.234 0.086,0.355 0.473,-1.578 1.398,-2.875 2.422,-2.066 0.933,0.738 -0.145,2.34 -2.543,4.218 -0.117,-0.117 -0.235,-0.234 -0.356,-0.359 -2.199,-2.254 -3.215,-4.164 -2.14,-4.832 z"
       style="fill:#1b1f23;fill-opacity:1;fill-rule:nonzero;stroke:#f6f8fa;stroke-width:0.75;stroke-linecap:round;stroke-linejoin:round;stroke-dasharray:none;stroke-opacity:1;paint-order:stroke fill markers"
       transform="scale(1.3333333)" />
    <path
       id="path104"
       d="m 65.613,4.391 c 1.043,-0.004 1.942,26.027 2.004,58.097 0.067,32.074 -0.726,58.106 -1.769,58.11 -1.039,0 -1.938,-26.028 -2.004,-58.102 -0.063,-32.07 0.73,-58.105 1.769,-58.105 z"
       style="fill:#1b1f23;fill-opacity:1;fill-rule:nonzero;stroke:#f6f8fa;stroke-width:0.75;stroke-linecap:round;stroke-linejoin:round;stroke-dasharray:none;stroke-opacity:1;paint-order:stroke fill markers"
       transform="scale(1.3333333)" />
    <path
       id="path105"
       d="m 66.391,153.551 c 1.043,-0.008 1.968,11.285 2.07,25.207 0.101,13.922 -0.66,25.226 -1.703,25.234 -1.039,0.008 -1.969,-11.285 -2.07,-25.207 -0.102,-13.922 0.66,-25.226 1.703,-25.234 z"
       style="fill:#1b1f23;fill-opacity:1;fill-rule:nonzero;stroke:#f6f8fa;stroke-width:0.75;stroke-linecap:round;stroke-linejoin:round;stroke-dasharray:none;stroke-opacity:1;paint-order:stroke fill markers"
       transform="scale(1.3333333)" />
    <path
       id="path106"
       d="m 70.582,205.496 c 0.004,-1.043 37.242,-1.836 83.125,-1.769 45.887,0.066 83.125,0.964 83.121,2.003 0,1.043 -37.242,1.836 -83.125,1.77 -45.883,-0.062 -83.121,-0.961 -83.121,-2.004 z"
       style="fill:#1b1f23;fill-opacity:1;fill-rule:nonzero;stroke:#f6f8fa;stroke-width:0.75;stroke-linecap:round;stroke-linejoin:round;stroke-dasharray:none;stroke-opacity:1;paint-order:stroke fill markers"
       transform="scale(1.3333333)" />
    <path
       id="path107"
       d="m 237.523,137.793 c 1.039,0.008 1.786,14.371 1.665,32.062 -0.122,17.692 -1.063,32.043 -2.106,32.036 -1.043,-0.004 -1.789,-14.371 -1.668,-32.063 0.121,-17.691 1.066,-32.043 2.109,-32.035 z"
       style="fill:#1b1f23;fill-opacity:1;fill-rule:nonzero;stroke:#f6f8fa;stroke-width:0.75;stroke-linecap:round;stroke-linejoin:round;stroke-dasharray:none;stroke-opacity:1;paint-order:stroke fill markers"
       transform="scale(1.3333333)" />
    <path
       id="path108"
       d="m 238.215,128.66 c -1.043,0.012 -2.149,-27.367 -2.473,-61.113 -0.324,-33.742 0.262,-61.137 1.301,-61.149 1.043,-0.007 2.148,27.368 2.473,61.114 0.324,33.746 -0.258,61.14 -1.301,61.148 z"
       style="fill:#1b1f23;fill-opacity:1;fill-rule:nonzero;stroke:#f6f8fa;stroke-width:0.75;stroke-linecap:round;stroke-linejoin:round;stroke-dasharray:none;stroke-opacity:1;paint-order:stroke fill markers"
       transform="scale(1.3333333)" />
    <path
       id="path109"
       d="m 65.25,1.777 c 0,-1.043 38.691,-1.836 86.359,-1.773 47.668,0.062 86.356,0.961 86.356,2 -0.004,1.043 -38.692,1.836 -86.36,1.773 C 103.938,3.715 65.25,2.816 65.25,1.777 Z"
       style="fill:#1b1f23;fill-opacity:1;fill-rule:nonzero;stroke:#f6f8fa;stroke-width:0.75;stroke-linecap:round;stroke-linejoin:round;stroke-dasharray:none;stroke-opacity:1;paint-order:stroke fill markers"
       transform="scale(1.3333333)" />
    <path
       id="path110"
       d="m 200.422,19.047 c 0.004,0.461 -2.055,0.793 -5.238,1.465 -0.922,0.199 -2.043,0.433 -2.938,0.828 -0.449,0.273 -0.805,0.375 -0.668,0.43 0.086,-0.266 0.176,-0.329 0.141,-0.36 0.074,0.192 0.375,0.414 0.769,0.793 0.52,0.445 1.117,0.852 1.797,1.297 1.602,1.043 3.203,1.918 5.106,3.012 0.457,0.261 0.121,0.07 0.578,0.328 1.504,0.859 2.945,1.703 4.355,2.703 0.567,0.391 1.176,0.859 1.766,1.48 0.211,0.207 0.445,0.52 0.672,0.938 0.211,0.309 0.316,0.832 0.269,1.535 -0.183,0.727 -0.5,1.219 -0.898,1.477 -0.492,0.339 -0.903,0.511 -1.203,0.566 -1.129,0.273 -2.137,0.273 -2.934,0.234 -6.965,-0.203 -11.234,-1.761 -11.156,-2.445 0.082,-0.683 4.699,-0.332 11.09,-0.797 0.781,-0.07 1.519,-0.109 2.027,-0.312 0.125,-0.071 0.141,-0.059 0.008,0 -0.168,0.078 -0.293,0.316 -0.43,0.746 0,0.398 0.004,0.609 0.07,0.644 0.032,0.036 -0.015,0.016 -0.109,-0.093 -0.293,-0.301 -0.726,-0.578 -1.254,-0.938 -1.285,-0.848 -2.625,-1.59 -4.144,-2.461 -0.196,-0.113 -0.391,-0.222 -0.586,-0.336 -1.86,-1.074 -3.59,-2.097 -5.266,-3.308 -0.726,-0.52 -1.434,-1.082 -2.101,-1.735 -0.508,-0.457 -1.043,-1.105 -1.446,-1.984 -0.383,-0.813 -0.304,-1.813 0.239,-2.758 0.828,-0.98 1.71,-1.363 2.351,-1.465 1.352,-0.371 2.637,-0.433 3.637,-0.437 3.484,-0.039 5.496,0.488 5.496,0.953 z"
       style="fill:#1b1f23;fill-opacity:1;fill-rule:nonzero;stroke:#f6f8fa;stroke-width:0.75;stroke-linecap:round;stroke-linejoin:round;stroke-dasharray:none;stroke-opacity:1;paint-order:stroke fill markers"
       transform="scale(1.3333333)" />
    <path
       id="path111"
       d="m 203.93,17.078 c 0.457,-0.129 1.582,2.402 3.394,6.527 0.828,1.875 2.02,4.024 3.246,6.633 0.399,0.832 0.789,1.668 1.25,2.324 0.133,0.172 0.203,0.282 0.239,0.29 0.078,-0.032 -0.114,-0.09 -0.571,-0.254 -0.558,-0.008 -0.937,0.097 -1.176,0.359 -0.164,0.207 -0.234,0.266 -0.179,0.207 0.086,-0.195 0.113,-0.543 0.195,-1.027 0.152,-1.164 0.223,-2.477 0.438,-3.922 0.078,-0.574 0.203,-1.246 0.464,-1.988 0.34,-0.391 1.211,-1.047 2.75,-1.684 0.196,0.094 0.383,0.207 0.551,0.305 0.344,0.199 0.637,0.359 0.887,0.472 0.144,0.285 0.234,0.512 0.285,0.668 0.16,0.438 0.293,0.864 0.414,1.27 0.028,0.09 0.055,0.183 0.082,0.273 0.156,0.528 0.301,1.047 0.438,1.559 0.097,0.34 0.16,0.609 0.222,0.808 0.086,0.571 0.844,1.164 1.653,1.852 0.89,0.66 1.828,1.18 2.785,1.531 -0.156,-0.066 -0.336,-0.015 -0.641,0.11 -0.136,0.16 -0.168,0.132 -0.039,0.004 0.301,-0.465 0.414,-1.247 0.574,-2.086 0.254,-1.567 0.313,-3.434 0.399,-4.914 0.082,-1.422 0.172,-2.723 0.269,-3.879 0.313,-3.926 1.286,-6.055 1.727,-5.946 0.41,0.106 0.234,2.262 0.543,5.946 0.098,1.156 0.187,2.457 0.266,3.879 0.089,1.48 0.203,3.382 0.046,5.3 -0.05,0.91 -0.199,2.047 -0.742,3.254 -0.16,0.438 -0.551,0.953 -1.238,1.446 -0.793,0.417 -1.594,0.496 -2.297,0.246 -1.336,-0.422 -2.621,-1.067 -3.805,-1.899 -1.132,-0.707 -2.363,-1.871 -3.066,-3.664 -0.129,-0.39 -0.211,-0.719 -0.285,-0.98 -0.141,-0.504 -0.281,-1.008 -0.43,-1.504 0.137,0.457 -0.211,-0.715 -0.078,-0.258 -0.109,-0.379 -0.219,-0.731 -0.336,-1.055 -0.059,-0.144 -0.082,-0.222 -0.086,-0.222 0.207,0.031 0.457,0.109 0.738,0.238 0.141,0.066 0.286,0.141 0.438,0.25 0.871,-0.375 1.406,-0.277 1.496,-0.004 -0.133,0.309 -0.207,0.746 -0.305,1.262 -0.211,1.207 -0.316,2.519 -0.547,3.879 -0.07,0.496 -0.195,1.117 -0.472,1.816 -0.063,0.23 -0.274,0.574 -0.66,0.996 -0.399,0.418 -1.004,0.621 -1.782,0.578 -0.761,-0.207 -1.203,-0.465 -1.343,-0.703 -0.344,-0.359 -0.575,-0.683 -0.723,-0.945 -0.606,-1.016 -1.016,-2.031 -1.344,-2.91 -1.097,-2.864 -1.898,-4.633 -2.582,-7.082 -1.219,-4.442 -1.515,-7.227 -1.062,-7.356 z"
       style="fill:#1b1f23;fill-opacity:1;fill-rule:nonzero;stroke:#f6f8fa;stroke-width:0.75;stroke-linecap:round;stroke-linejoin:round;stroke-dasharray:none;stroke-opacity:1;paint-order:stroke fill markers"
       transform="scale(1.3333333)" />
    <path
       id="path110-5"
       d="m 215.64711,49.823962 c 0.001,0.17237 -0.77217,0.2965 -1.9682,0.54777 -0.34644,0.0744 -0.76766,0.1619 -1.10396,0.30959 -0.16872,0.10207 -0.30249,0.14021 -0.25101,0.16078 0.0323,-0.0995 0.0661,-0.12302 0.053,-0.13461 0.0278,0.0718 0.14091,0.1548 0.28896,0.29651 0.19539,0.16638 0.41971,0.31856 0.67523,0.48495 0.60196,0.38998 1.20354,0.71715 1.9186,1.1262 0.17172,0.0976 0.0455,0.0262 0.21718,0.12264 0.56514,0.32118 1.1066,0.63676 1.63641,1.01066 0.21305,0.1462 0.44189,0.32119 0.66358,0.55338 0.0793,0.0774 0.16721,0.19443 0.25251,0.35072 0.0793,0.11554 0.11874,0.31109 0.10108,0.57394 -0.0688,0.27183 -0.18788,0.45579 -0.33743,0.55226 -0.18487,0.12675 -0.33931,0.19107 -0.45203,0.21163 -0.42423,0.10207 -0.80299,0.10207 -1.10246,0.0875 -2.61713,-0.0759 -4.22122,-0.65844 -4.19192,-0.91419 0.0308,-0.25538 1.76567,-0.12414 4.16712,-0.298 0.29346,-0.0262 0.57077,-0.0408 0.76165,-0.11666 0.047,-0.0266 0.053,-0.0221 0.003,0 -0.0631,0.0292 -0.1101,0.11815 -0.16157,0.27893 0,0.14882 0.001,0.22771 0.0263,0.2408 0.012,0.0135 -0.006,0.006 -0.041,-0.0348 -0.1101,-0.11254 -0.2728,-0.21611 -0.4712,-0.35072 -0.48284,-0.31707 -0.98635,-0.59451 -1.55712,-0.92018 -0.0737,-0.0422 -0.14692,-0.083 -0.2202,-0.12563 -0.6989,-0.40157 -1.34895,-0.78408 -1.97872,-1.23687 -0.27279,-0.19443 -0.53883,-0.40457 -0.78946,-0.64873 -0.19088,-0.17087 -0.39191,-0.41316 -0.54334,-0.74182 -0.14391,-0.30398 -0.11423,-0.67789 0.0898,-1.03123 0.31113,-0.36642 0.64254,-0.50963 0.8834,-0.54777 0.50802,-0.13872 0.99087,-0.1619 1.36662,-0.16339 1.30913,-0.0146 2.06514,0.18246 2.06514,0.35633 z"
       style="fill:#1b1f23;fill-opacity:1;fill-rule:nonzero;stroke:#f6f8fa;stroke-width:1;stroke-linecap:round;stroke-linejoin:round;stroke-dasharray:none;stroke-opacity:1;paint-order:stroke fill markers" />
    <path
       id="path110-5-4"
       d="m 161.18962,187.42635 c 0.001,0.17237 -0.77217,0.2965 -1.9682,0.54777 -0.34644,0.0744 -0.76766,0.1619 -1.10396,0.30959 -0.16872,0.10207 -0.30249,0.14021 -0.25101,0.16078 0.0323,-0.0995 0.0661,-0.12302 0.053,-0.13461 0.0278,0.0718 0.14091,0.1548 0.28896,0.29651 0.19539,0.16638 0.41971,0.31856 0.67523,0.48495 0.60196,0.38998 1.20354,0.71715 1.9186,1.1262 0.17172,0.0976 0.0455,0.0262 0.21718,0.12264 0.56514,0.32118 1.1066,0.63676 1.63641,1.01066 0.21305,0.1462 0.44189,0.32119 0.66358,0.55338 0.0793,0.0774 0.16721,0.19443 0.25251,0.35072 0.0793,0.11554 0.11874,0.31109 0.10108,0.57394 -0.0688,0.27183 -0.18788,0.45579 -0.33743,0.55226 -0.18487,0.12675 -0.33931,0.19107 -0.45203,0.21163 -0.42423,0.10207 -0.80299,0.10207 -1.10246,0.0875 -2.61713,-0.0759 -4.22122,-0.65844 -4.19192,-0.91419 0.0308,-0.25538 1.76567,-0.12414 4.16712,-0.298 0.29346,-0.0262 0.57077,-0.0408 0.76165,-0.11666 0.047,-0.0266 0.053,-0.0221 0.003,0 -0.0631,0.0292 -0.1101,0.11815 -0.16157,0.27893 0,0.14882 10e-4,0.22771 0.0263,0.2408 0.012,0.0135 -0.006,0.006 -0.041,-0.0348 -0.1101,-0.11254 -0.2728,-0.21611 -0.4712,-0.35072 -0.48284,-0.31707 -0.98635,-0.59451 -1.55712,-0.92018 -0.0737,-0.0422 -0.14692,-0.083 -0.2202,-0.12563 -0.6989,-0.40157 -1.34895,-0.78408 -1.97872,-1.23687 -0.27279,-0.19443 -0.53883,-0.40457 -0.78946,-0.64873 -0.19088,-0.17087 -0.39191,-0.41316 -0.54334,-0.74182 -0.14391,-0.30398 -0.11423,-0.67789 0.0898,-1.03123 0.31113,-0.36642 0.64254,-0.50963 0.8834,-0.54777 0.50802,-0.13872 0.99087,-0.1619 1.36662,-0.16339 1.30913,-0.0146 2.06514,0.18246 2.06514,0.35633 z"
       style="fill:#1b1f23;fill-opacity:1;fill-rule:nonzero;stroke:#f6f8fa;stroke-width:1;stroke-linecap:round;stroke-linejoin:round;stroke-dasharray:none;stroke-opacity:1;paint-order:stroke fill markers" />
    <path
       id="path110-5-5"
       d="m 297.47827,184.29326 c 10e-4,0.17237 -0.77217,0.2965 -1.9682,0.54777 -0.34644,0.0744 -0.76766,0.1619 -1.10396,0.30959 -0.16872,0.10207 -0.30249,0.14021 -0.25101,0.16078 0.0323,-0.0995 0.0661,-0.12302 0.053,-0.13461 0.0278,0.0718 0.14091,0.1548 0.28896,0.29651 0.19539,0.16638 0.41971,0.31856 0.67523,0.48495 0.60196,0.38998 1.20354,0.71715 1.9186,1.1262 0.17172,0.0976 0.0455,0.0262 0.21718,0.12264 0.56514,0.32118 1.1066,0.63676 1.63641,1.01066 0.21305,0.1462 0.44189,0.32119 0.66358,0.55338 0.0793,0.0774 0.16721,0.19443 0.25251,0.35072 0.0793,0.11554 0.11874,0.31109 0.10108,0.57394 -0.0688,0.27183 -0.18788,0.45579 -0.33743,0.55226 -0.18487,0.12675 -0.33931,0.19107 -0.45203,0.21163 -0.42423,0.10207 -0.80299,0.10207 -1.10246,0.0875 -2.61713,-0.0759 -4.22122,-0.65844 -4.19192,-0.91419 0.0308,-0.25538 1.76567,-0.12414 4.16712,-0.298 0.29346,-0.0262 0.57077,-0.0408 0.76165,-0.11666 0.047,-0.0266 0.053,-0.0221 0.003,0 -0.0631,0.0292 -0.1101,0.11815 -0.16157,0.27893 0,0.14882 10e-4,0.22771 0.0263,0.2408 0.012,0.0135 -0.006,0.006 -0.041,-0.0348 -0.1101,-0.11254 -0.2728,-0.21611 -0.4712,-0.35072 -0.48284,-0.31707 -0.98635,-0.59451 -1.55712,-0.92018 -0.0737,-0.0422 -0.14692,-0.083 -0.2202,-0.12563 -0.6989,-0.40157 -1.34895,-0.78408 -1.97872,-1.23687 -0.27279,-0.19443 -0.53883,-0.40457 -0.78946,-0.64873 -0.19088,-0.17087 -0.39191,-0.41316 -0.54334,-0.74182 -0.14391,-0.30398 -0.11423,-0.67789 0.0898,-1.03123 0.31113,-0.36642 0.64254,-0.50963 0.8834,-0.54777 0.50802,-0.13872 0.99087,-0.1619 1.36662,-0.16339 1.30913,-0.0146 2.06514,0.18246 2.06514,0.35633 z"
       style="fill:#1b1f23;fill-opacity:1;fill-rule:nonzero;stroke:#f6f8fa;stroke-width:1;stroke-linecap:round;stroke-linejoin:round;stroke-dasharray:none;stroke-opacity:1;paint-order:stroke fill markers"
       inkscape:export-filename="hw_interface.svg"
       inkscape:export-xdpi="300"
       inkscape:export-ydpi="300" />
  </g>
</svg>
