<?xml version="1.0" encoding="UTF-8" standalone="no"?>
<!-- Created with Inkscape (http://www.inkscape.org/) -->

<svg
   version="1.1"
   id="svg1"
   width="3945.8258"
   height="3152.4088"
   viewBox="0 0 394.58258 315.24088"
   sodipodi:docname="hw_modules.pdf"
   xmlns:inkscape="http://www.inkscape.org/namespaces/inkscape"
   xmlns:sodipodi="http://sodipodi.sourceforge.net/DTD/sodipodi-0.dtd"
   xmlns="http://www.w3.org/2000/svg"
   xmlns:svg="http://www.w3.org/2000/svg">
  <defs
     id="defs1" />
  <sodipodi:namedview
     id="namedview1"
     pagecolor="#505050"
     bordercolor="#eeeeee"
     borderopacity="1"
     inkscape:showpageshadow="0"
     inkscape:pageopacity="0"
     inkscape:pagecheckerboard="0"
     inkscape:deskcolor="#d1d1d1" />
  <g
     id="g1"
     inkscape:groupmode="layer"
     inkscape:label="1"
     transform="translate(0.49880523,0.49967968)">
    <path
       id="path1"
       d="m 1.355,74.449 c 0.782,0.059 0.836,8.571 1.856,19.11 1.023,10.539 1.672,19.25 0.894,19.339 C 3.328,112.992 1.418,104.52 0.395,93.832 -0.629,83.141 0.578,74.391 1.355,74.449 Z"
       style="fill:#1b1f23;fill-opacity:1;fill-rule:nonzero;stroke:#f6f8fa;stroke-width:0.75;stroke-linecap:round;stroke-linejoin:round;stroke-dasharray:none;stroke-opacity:1;paint-order:stroke fill markers"
       transform="scale(1.3333333)" />
    <path
       id="path2"
       d="m 1.355,74.449 c -0.144,-0.765 10.196,-4.137 23.614,-6.094 0.484,-0.07 0.969,-0.136 1.445,-0.199 12.941,-1.652 23.043,1.25 22.938,1.996 -0.11,0.746 -10.262,-0.882 -22.567,0.805 -0.465,0.063 -0.933,0.129 -1.406,0.199 -13.098,1.903 -23.875,4.059 -24.024,3.293 z"
       style="fill:#1b1f23;fill-opacity:1;fill-rule:nonzero;stroke:#f6f8fa;stroke-width:0.75;stroke-linecap:round;stroke-linejoin:round;stroke-dasharray:none;stroke-opacity:1;paint-order:stroke fill markers"
       transform="scale(1.3333333)" />
    <path
       id="path3"
       d="m 4.352,115.484 c -0.215,-0.75 10.031,-4.328 23.207,-4.875 13.179,-0.547 23.8,1.106 23.757,1.883 -0.046,0.781 -10.722,0.43 -23.64,0.946 -12.918,0.519 -23.11,2.796 -23.324,2.046 z"
       style="fill:#1b1f23;fill-opacity:1;fill-rule:nonzero;stroke:#f6f8fa;stroke-width:0.75;stroke-linecap:round;stroke-linejoin:round;stroke-dasharray:none;stroke-opacity:1;paint-order:stroke fill markers"
       transform="scale(1.3333333)" />
    <path
       id="path4"
       d="m 50.203,73.609 c 0.406,-0.148 0.945,1.239 1.363,3.641 0.317,1.754 0.547,3.812 0.735,6.426 0.242,3.383 0.371,7.226 0.375,11.496 0,1.59 -0.02,3.144 -0.047,4.637 -0.106,5.16 -0.356,9.343 -0.727,12.507 -0.062,0.528 -0.125,0.993 -0.199,1.45 -0.269,0.117 -0.519,0.242 -0.754,0.375 -0.027,0.027 -0.054,0.05 -0.086,0.078 -0.043,-0.004 -0.066,-0.024 -0.09,-0.043 -0.039,-0.047 -0.078,-0.094 -0.113,-0.137 -0.14,-0.18 -0.258,-0.348 -0.351,-0.5 0.152,-1.258 0.363,-1.945 0.57,-1.945 0.207,0 0.394,0.699 0.598,1.922 -0.09,0.148 -0.2,0.3 -0.325,0.457 -0.031,0.043 -0.058,0.078 -0.093,0.117 -0.02,0.015 -0.043,0.035 -0.055,0.051 -0.008,-0.047 -0.031,-0.079 -0.051,-0.11 -0.211,-0.101 -0.449,-0.219 -0.699,-0.351 -0.024,-0.43 -0.055,-0.903 -0.082,-1.422 -0.141,-2.801 -0.27,-7.672 -0.309,-12.465 -0.011,-1.492 -0.019,-3.035 -0.019,-4.621 0,-3.863 0.027,-8.445 0.058,-11.422 0.024,-2.531 0.055,-4.691 0.075,-6.367 0.003,-2.434 -0.051,-3.676 0.226,-3.774 z"
       style="fill:#1b1f23;fill-opacity:1;fill-rule:nonzero;stroke:#f6f8fa;stroke-width:0.75;stroke-linecap:round;stroke-linejoin:round;stroke-dasharray:none;stroke-opacity:1;paint-order:stroke fill markers"
       transform="scale(1.3333333)" />
    <path
       id="path5"
       d="m 55.527,88.352 c -0.215,-0.329 7.075,-5.743 19.95,-12.637 14.082,-7.543 30.23,-14.414 52.5,-22.406 0.945,-0.34 1.882,-0.676 2.82,-1.008 15.473,-5.504 43.777,-14.457 52.168,-17.203 13.293,-4.348 21.41,-7.211 21.551,-6.856 0.136,0.356 -7.75,3.875 -20.907,8.711 -13.152,4.84 -31.629,10.785 -51.863,18.012 0.07,-0.024 -2.883,1.035 -2.812,1.008 -22.618,8.129 -37.922,14.339 -52.547,21.519 -13.012,6.391 -20.649,11.188 -20.86,10.86 z"
       style="fill:#1b1f23;fill-opacity:1;fill-rule:nonzero;stroke:#f6f8fa;stroke-width:0.75;stroke-linecap:round;stroke-linejoin:round;stroke-dasharray:none;stroke-opacity:1;paint-order:stroke fill markers"
       transform="scale(1.3333333)" />
    <path
       id="path6"
       d="m 55.484,91.164 c 0.262,-0.734 29.856,9.461 67.637,16.418 1.59,0.293 3.168,0.574 4.734,0.852 18.579,3.273 33.141,5.062 45.524,6.23 11.621,1.102 18.785,1.465 18.777,1.84 -0.015,0.746 -28.965,0.922 -64.785,-5.289 -1.574,-0.274 -3.164,-0.555 -4.762,-0.852 C 84.621,103.375 55.219,91.898 55.484,91.164 Z"
       style="fill:#1b1f23;fill-opacity:1;fill-rule:nonzero;stroke:#f6f8fa;stroke-width:0.75;stroke-linecap:round;stroke-linejoin:round;stroke-dasharray:none;stroke-opacity:1;paint-order:stroke fill markers"
       transform="scale(1.3333333)" />
    <path
       id="path7"
       d="m 55.449,96.711 c 0.09,-0.246 4.371,0.836 11.117,4.363 7.219,3.774 15.383,9.465 25.325,18.758 10.464,9.766 18.797,19.367 30.421,32.281 0.575,0.641 1.149,1.278 1.723,1.91 11.672,12.879 20.985,22.579 32.113,30.665 6.243,4.539 11.965,7.667 17.372,9.816 11.375,4.523 19.136,4.113 19.136,4.453 0,0.34 -7.867,1.43 -19.765,-2.773 -5.633,-1.989 -11.657,-5.047 -18.125,-9.555 -11.45,-7.984 -21.188,-17.856 -32.828,-30.707 -0.575,-0.637 -1.153,-1.274 -1.731,-1.914 -11.891,-13.203 -19.578,-22.313 -30,-32.406 C 80.461,112.18 72.848,106.469 65.871,102.316 59.441,98.484 55.363,96.953 55.449,96.711 Z"
       style="fill:#1b1f23;fill-opacity:1;fill-rule:nonzero;stroke:#f6f8fa;stroke-width:0.75;stroke-linecap:round;stroke-linejoin:round;stroke-dasharray:none;stroke-opacity:1;paint-order:stroke fill markers"
       transform="scale(1.3333333)" />
    <path
       id="path8"
       d="m 163.102,171.09 c 0.394,-0.328 5.972,5.707 16.757,11.379 5.336,2.793 11.848,5.586 18.493,9.445 0.355,0.199 0.718,0.402 1.086,0.625 1.445,0.871 2.874,1.949 3.953,3.496 0.418,0.574 0.718,1.344 0.761,2.266 -0.023,0.844 -0.308,1.582 -0.757,2.144 -1.184,1.418 -2.715,2.102 -3.977,2.516 -2,0.742 -4.035,1.207 -5.898,1.582 -4.633,0.937 -11.008,1.746 -14.082,2.191 -2.649,0.383 -4.282,0.641 -6.106,1.02 -2.754,0.586 -4.098,1.234 -4.227,1.051 -0.132,-0.188 1.211,-1.344 3.891,-2.262 1.707,-0.598 3.578,-1.09 6.102,-1.652 3.851,-0.86 8.64,-1.633 13.875,-2.864 1.804,-0.429 3.711,-0.906 5.468,-1.609 1.161,-0.516 2.293,-0.938 2.739,-1.66 0.113,-0.176 0.199,-0.348 0.172,-0.438 0.035,-0.144 -0.114,-0.398 -0.297,-0.718 -0.649,-1.036 -1.789,-1.809 -3.106,-2.622 -0.308,-0.187 -0.715,-0.433 -1.019,-0.621 -6.438,-3.761 -12.91,-6.703 -18.235,-9.765 -10.785,-6.18 -15.992,-13.18 -15.593,-13.504 z"
       style="fill:#1b1f23;fill-opacity:1;fill-rule:nonzero;stroke:#f6f8fa;stroke-width:0.75;stroke-linecap:round;stroke-linejoin:round;stroke-dasharray:none;stroke-opacity:1;paint-order:stroke fill markers"
       transform="scale(1.3333333)" />
    <path
       id="path9"
       d="m 158.656,101.723 c -0.25,-0.235 0.883,-1.477 3.848,-1.473 1.98,-0.07 4.09,0.16 7.004,0.719 5.359,1.027 10.992,2.676 18.461,5.308 5.297,1.864 11.082,4.094 17.043,6.731 1.601,0.711 3.265,1.457 4.906,2.301 0.125,0.066 0.254,0.132 0.379,0.199 0.445,0.23 0.941,0.496 1.457,0.847 -0.024,0.399 0.078,0.93 0.262,1.629 0.019,0.051 0.011,0.125 -0.039,0.153 -1.704,0.922 -3.422,1.554 -4.969,2.172 -2.535,0.488 -5.078,0.906 -7.477,1.289 -5.867,0.933 -14.058,2.117 -18.504,2.781 -7.32,1.098 -9.832,1.336 -14.429,2.449 -0.676,0.168 -1.188,0.293 -1.684,0.5 -0.281,0.231 -0.523,0.184 -0.426,0.152 -0.039,-0.132 -0.035,-0.156 -0.043,-0.121 0.051,0.071 0.18,0.133 0.317,0.207 1.117,0.536 1.898,0.645 1.879,0.778 -0.016,0.133 -0.735,0.32 -2.141,-0.047 -0.168,-0.039 -0.387,-0.109 -0.613,-0.274 -0.16,-0.089 -0.289,-0.3 -0.309,-0.636 0.156,-0.594 0.57,-0.938 0.871,-0.996 0.551,-0.313 1.125,-0.539 1.785,-0.77 4.051,-1.441 7.7,-2.144 14.422,-3.43 5.973,-1.148 11.051,-1.992 18.426,-3.281 2.383,-0.418 4.906,-0.859 7.383,-1.355 1.387,0.035 2.765,0.148 3.945,0.023 0.039,-0.004 0.028,-0.051 -0.012,-0.078 0.043,0.512 -0.058,0.914 -0.269,1.172 -0.309,-0.219 -0.699,-0.418 -1.149,-0.66 -0.121,-0.063 -0.238,-0.125 -0.359,-0.188 -1.551,-0.797 -3.168,-1.531 -4.754,-2.242 -5.875,-2.637 -11.574,-4.934 -16.773,-6.918 -7.5,-2.859 -12.637,-4.617 -17.965,-6.023 -2.883,-0.754 -4.719,-1.137 -6.652,-1.309 -2.598,-0.121 -3.684,0.523 -3.821,0.391 z"
       style="fill:#1b1f23;fill-opacity:1;fill-rule:nonzero;stroke:#f6f8fa;stroke-width:0.75;stroke-linecap:round;stroke-linejoin:round;stroke-dasharray:none;stroke-opacity:1;paint-order:stroke fill markers"
       transform="scale(1.3333333)" />
    <path
       id="path10"
       d="m 167.258,32.473 c -0.024,-0.391 3.476,-0.821 8.969,-2.168 5.496,-1.348 13,-3.934 21.679,-5.77 0.61,-0.129 1.215,-0.25 1.821,-0.363 2.375,-0.453 4.652,-0.82 6.992,-0.926 1.238,-0.098 2.66,-0.098 4.113,0.477 1.016,0.425 1.699,1.39 1.789,2.589 -0.066,1.231 -0.523,2.172 -0.941,2.84 -1.426,2.551 -2.985,4.469 -4.047,6.219 -2.383,4.051 -2.348,6.899 -2.699,6.949 -0.442,0.063 -1.289,-3.043 1.066,-7.828 0.949,-1.992 2.395,-4.094 3.539,-6.461 0.301,-0.699 0.625,-1.297 0.547,-1.699 0.082,-0.012 -0.106,-0.144 -0.254,-0.199 -0.723,-0.332 -1.723,-0.211 -2.961,-0.172 -2.133,0.148 -4.262,0.531 -6.613,0.984 -0.582,0.117 -1.172,0.235 -1.762,0.36 -8.441,1.797 -16.16,4.09 -21.883,4.957 -5.742,0.867 -9.34,0.593 -9.355,0.211 z"
       style="fill:#1b1f23;fill-opacity:1;fill-rule:nonzero;stroke:#f6f8fa;stroke-width:0.75;stroke-linecap:round;stroke-linejoin:round;stroke-dasharray:none;stroke-opacity:1;paint-order:stroke fill markers"
       transform="scale(1.3333333)" />
    <path
       id="path11"
       d="m 220.488,3.484 c 0.754,-0.086 2.86,10.848 3.168,24.618 0.305,13.769 -1.386,24.785 -2.183,24.714 -0.778,-0.066 -0.344,-11.093 -0.649,-24.652 -0.304,-13.562 -1.109,-24.586 -0.336,-24.68 z"
       style="fill:#1b1f23;fill-opacity:1;fill-rule:nonzero;stroke:#f6f8fa;stroke-width:0.75;stroke-linecap:round;stroke-linejoin:round;stroke-dasharray:none;stroke-opacity:1;paint-order:stroke fill markers"
       transform="scale(1.3333333)" />
    <path
       id="path12"
       d="m 220.598,2.5 c 0.097,-0.48 5.582,0.008 14.129,-0.34 5.746,-0.242 10.402,-0.551 17.644,-1.027 -0.031,0.004 0.805,-0.051 0.774,-0.051 7.097,-0.465 12.679,-0.82 18.128,-1.004 7.86,-0.266 13.079,0.199 13.059,0.668 -0.02,0.465 -5.039,0.832 -12.906,1.606 -4.735,0.468 -11.649,1.117 -18.094,1.554 0.008,0 -0.781,0.051 -0.777,0.051 -6.758,0.445 -12.493,0.648 -17.797,0.559 C 226.191,4.379 220.5,2.98 220.598,2.5 Z"
       style="fill:#1b1f23;fill-opacity:1;fill-rule:nonzero;stroke:#f6f8fa;stroke-width:0.75;stroke-linecap:round;stroke-linejoin:round;stroke-dasharray:none;stroke-opacity:1;paint-order:stroke fill markers"
       transform="scale(1.3333333)" />
    <path
       id="path13"
       d="m 221.566,52.551 c 0.11,-0.528 6.473,0.019 16.071,-0.707 4.496,-0.352 9.066,-0.809 14.488,-1.438 1.879,-0.215 3.738,-0.441 5.523,-0.656 6.832,-0.832 12.872,-1.625 17.313,-2.145 2.285,-0.265 4.203,-0.464 5.512,-0.554 0.672,-0.047 1.215,-0.071 1.593,-0.063 0.426,0.004 0.664,0.086 0.688,0.153 0.035,0.117 -0.18,0.238 -0.574,0.418 -0.356,0.152 -0.86,0.332 -1.516,0.531 -1.293,0.394 -3.102,0.855 -5.387,1.367 -4.394,0.981 -10.39,2.098 -17.269,3.055 -1.797,0.246 -3.656,0.488 -5.555,0.707 -5.367,0.621 -10.219,0.984 -14.683,1.109 -9.645,0.293 -16.309,-1.25 -16.204,-1.777 z"
       style="fill:#1b1f23;fill-opacity:1;fill-rule:nonzero;stroke:#f6f8fa;stroke-width:0.75;stroke-linecap:round;stroke-linejoin:round;stroke-dasharray:none;stroke-opacity:1;paint-order:stroke fill markers"
       transform="scale(1.3333333)" />
    <path
       id="path14"
       d="m 284.52,1.609 c 0.41,-0.281 3.285,3.571 3.875,9.996 0.39,3.883 0.289,8.083 -0.231,12.961 -0.023,0.235 -0.051,0.473 -0.074,0.707 -0.555,4.93 -1.438,9.598 -2.227,13.18 -1.222,5.57 -2.179,9.047 -2.64,8.992 -0.457,-0.054 -0.289,-3.808 0.41,-9.379 0.41,-3.265 1.16,-8.628 1.644,-13.105 0.024,-0.231 0.051,-0.461 0.075,-0.695 0.511,-4.875 0.765,-8.7 0.679,-12.512 C 285.82,5.508 284.113,1.887 284.52,1.609 Z"
       style="fill:#1b1f23;fill-opacity:1;fill-rule:nonzero;stroke:#f6f8fa;stroke-width:0.75;stroke-linecap:round;stroke-linejoin:round;stroke-dasharray:none;stroke-opacity:1;paint-order:stroke fill markers"
       transform="scale(1.3333333)" />
    <path
       id="path15"
       d="m 223.961,102.715 c 0.699,-0.348 5.859,9 7.633,21.582 0.027,0.172 0.051,0.344 0.07,0.512 0.949,6.589 1.031,11.675 0.082,16.109 -0.867,4.035 -2.324,6.199 -2.68,6.051 -0.355,-0.153 0.426,-2.489 0.735,-6.34 0.359,-4.488 -0.043,-8.676 -0.938,-15.43 -0.023,-0.168 -0.047,-0.336 -0.07,-0.504 -0.945,-6.558 -1.981,-11.23 -3.195,-15.519 -1.102,-3.899 -1.989,-6.285 -1.637,-6.461 z"
       style="fill:#1b1f23;fill-opacity:1;fill-rule:nonzero;stroke:#f6f8fa;stroke-width:0.75;stroke-linecap:round;stroke-linejoin:round;stroke-dasharray:none;stroke-opacity:1;paint-order:stroke fill markers"
       transform="scale(1.3333333)" />
    <path
       id="path16"
       d="m 223.996,101.559 c -0.363,-0.356 4.91,-5.547 14.617,-7.145 5.395,-0.945 11.223,-1.262 18.016,-1.098 1.055,0.024 2.098,0.059 3.125,0.102 7.351,0.301 14.719,1.105 19.742,1.73 1.524,0.188 6.551,0.852 7.055,0.918 2.637,0.321 3.976,0.379 4.027,0.614 0.051,0.238 -1.547,0.683 -4.098,0.726 -2.007,0.047 -4.168,-0.023 -7.164,-0.168 -5.324,-0.258 -12.152,-0.754 -19.664,-1.004 -1.019,-0.031 -2.05,-0.062 -3.09,-0.086 -6.761,-0.16 -12.273,-0.011 -17.589,0.649 -9.532,1.289 -14.614,5.117 -14.977,4.762 z"
       style="fill:#1b1f23;fill-opacity:1;fill-rule:nonzero;stroke:#f6f8fa;stroke-width:0.75;stroke-linecap:round;stroke-linejoin:round;stroke-dasharray:none;stroke-opacity:1;paint-order:stroke fill markers"
       transform="scale(1.3333333)" />
    <path
       id="path17"
       d="m 291.078,98.73 c 0.781,0.036 0.734,10.614 0.207,23.54 0,0 -0.004,0.05 -0.004,0.05 -0.519,12.95 -0.531,23.313 -1.308,23.387 -0.778,0.078 -2.051,-10.562 -1.516,-23.504 0,0 0,-0.051 0,-0.051 0.531,-13.007 1.84,-23.457 2.621,-23.422 z"
       style="fill:#1b1f23;fill-opacity:1;fill-rule:nonzero;stroke:#f6f8fa;stroke-width:0.75;stroke-linecap:round;stroke-linejoin:round;stroke-dasharray:none;stroke-opacity:1;paint-order:stroke fill markers"
       transform="scale(1.3333333)" />
    <path
       id="path18"
       d="m 229.297,146.719 c 0.039,-0.457 4.75,-0.629 12.187,-0.817 5.028,-0.132 11.86,-0.23 18.739,-0.211 -0.004,0 0.414,0 0.414,0 7.312,0.024 13.605,0.161 18.961,0.434 2.894,0.148 5.214,0.32 7.156,0.535 2.785,0.309 4.41,0.738 4.375,1 -0.031,0.266 -1.609,0.344 -4.426,0.457 -1.695,0.067 -4.488,0.153 -7.137,0.215 -4.914,0.109 -12.054,0.203 -18.937,0.191 0,0 -0.418,-0.003 -0.414,-0.003 -7.164,-0.02 -13.43,-0.133 -18.75,-0.368 -7.371,-0.32 -12.203,-0.976 -12.168,-1.433 z"
       style="fill:#1b1f23;fill-opacity:1;fill-rule:nonzero;stroke:#f6f8fa;stroke-width:0.75;stroke-linecap:round;stroke-linejoin:round;stroke-dasharray:none;stroke-opacity:1;paint-order:stroke fill markers"
       transform="scale(1.3333333)" />
    <path
       id="path19"
       d="m 223.59,174.164 c 0.781,0 1.414,12.535 1.414,27.984 0,15.446 -0.633,27.985 -1.414,27.985 -0.781,0 -1.414,-12.539 -1.414,-27.985 0,-15.449 0.633,-27.984 1.414,-27.984 z"
       style="fill:#1b1f23;fill-opacity:1;fill-rule:nonzero;stroke:#f6f8fa;stroke-width:0.75;stroke-linecap:round;stroke-linejoin:round;stroke-dasharray:none;stroke-opacity:1;paint-order:stroke fill markers"
       transform="scale(1.3333333)" />
    <path
       id="path20"
       d="m 223.59,174.164 c -0.086,-0.379 3.414,-1.629 9.308,-2.535 6.45,-0.992 13.633,-1.277 23.254,-1.074 0.004,0 0.305,0.007 0.309,0.007 9.125,0.192 17.34,0.602 23.277,0.711 5.938,0.11 9.629,0.055 9.664,0.442 0.039,0.39 -3.621,1.152 -9.617,1.558 -6.84,0.465 -13.453,0.332 -23.387,0.118 0.008,0 -0.308,-0.008 -0.304,-0.008 -10.133,-0.203 -16.043,-0.235 -22.977,0.222 -5.836,0.383 -9.441,0.938 -9.527,0.559 z"
       style="fill:#1b1f23;fill-opacity:1;fill-rule:nonzero;stroke:#f6f8fa;stroke-width:0.75;stroke-linecap:round;stroke-linejoin:round;stroke-dasharray:none;stroke-opacity:1;paint-order:stroke fill markers"
       transform="scale(1.3333333)" />
    <path
       id="path21"
       d="m 222.797,231.402 c 0.082,-0.777 14.641,0.004 32.625,0.825 17.988,0.82 32.601,2.097 32.558,2.878 -0.042,0.778 -14.664,0.774 -32.687,-0.05 -18.023,-0.825 -32.574,-2.875 -32.496,-3.653 z"
       style="fill:#1b1f23;fill-opacity:1;fill-rule:nonzero;stroke:#f6f8fa;stroke-width:0.75;stroke-linecap:round;stroke-linejoin:round;stroke-dasharray:none;stroke-opacity:1;paint-order:stroke fill markers"
       transform="scale(1.3333333)" />
    <path
       id="path22"
       d="m 290.398,173.488 c 0.372,-0.117 1.844,3.114 3.043,8.668 1.274,5.914 1.926,13.078 1.704,22.102 -0.012,0.531 -0.028,1.054 -0.047,1.578 -0.555,16.621 -3.895,29.367 -4.621,29.23 -0.743,-0.144 1.324,-13.039 1.796,-29.32 0.016,-0.516 0.028,-1.031 0.039,-1.555 0.208,-9.125 -0.101,-15.621 -0.839,-21.703 -0.668,-5.504 -1.45,-8.886 -1.075,-9 z"
       style="fill:#1b1f23;fill-opacity:1;fill-rule:nonzero;stroke:#f6f8fa;stroke-width:0.75;stroke-linecap:round;stroke-linejoin:round;stroke-dasharray:none;stroke-opacity:1;paint-order:stroke fill markers"
       transform="scale(1.3333333)" />
    <path
       id="path24"
       d="m 12.965,83.941 c 0.258,-0.027 1.242,2.536 0.883,6.641 0.144,0.199 0.066,0.766 -0.688,1.301 -0.91,-0.094 -1.308,-0.504 -1.172,-0.754 -0.496,-1.027 -0.695,-2.133 -0.808,-3.274 -0.071,-0.562 -0.114,-1.164 -0.098,-1.777 0.016,-0.746 0.121,-1.484 0.356,-2.199 0.355,-1.234 1.339,-2.281 2.667,-2.453 1.106,-0.043 2.028,0.496 2.59,1.156 0.633,0.563 0.789,1.617 0.2,2.332 -2.352,1.707 -3.852,-0.129 -3.809,-0.309 0.043,-0.179 2.262,0.942 3.16,-0.386 0.231,-0.039 -0.09,-0.453 -0.367,-0.871 -0.441,-0.414 -1.082,-0.75 -1.676,-0.664 -0.629,-0.02 -1.137,0.75 -1.476,1.621 -0.184,0.55 -0.258,1.152 -0.266,1.8 -0.008,0.532 0.027,1.079 0.074,1.61 0.117,1.105 0.238,2.051 0.606,2.875 0.789,0.34 -0.317,0.121 -0.356,0.105 -0.117,0.207 -0.43,0.25 -0.129,-0.254 0.578,-3.699 0.055,-6.472 0.309,-6.5 z"
       style="fill:#1b1f23;fill-opacity:1;fill-rule:nonzero;stroke:#f6f8fa;stroke-width:0.75;stroke-linecap:round;stroke-linejoin:round;stroke-dasharray:none;stroke-opacity:1;paint-order:stroke fill markers"
       transform="scale(1.3333333)" />
    <path
       id="path25"
       d="m 18.309,84.027 c 0.257,-0.027 1.242,2.532 0.882,6.641 0.145,0.199 0.067,0.762 -0.687,1.297 -0.91,-0.094 -1.309,-0.504 -1.172,-0.75 -0.496,-1.031 -0.695,-2.133 -0.812,-3.277 -0.067,-0.563 -0.11,-1.161 -0.094,-1.774 0.015,-0.75 0.121,-1.488 0.355,-2.203 0.356,-1.234 1.34,-2.281 2.668,-2.449 1.106,-0.047 2.028,0.492 2.59,1.156 0.633,0.559 0.789,1.613 0.199,2.332 -2.351,1.707 -3.851,-0.129 -3.808,-0.309 0.043,-0.179 2.261,0.938 3.16,-0.386 0.23,-0.039 -0.094,-0.457 -0.367,-0.875 -0.442,-0.414 -1.082,-0.746 -1.676,-0.66 -0.629,-0.02 -1.137,0.75 -1.477,1.617 -0.183,0.554 -0.258,1.156 -0.265,1.804 -0.008,0.528 0.027,1.075 0.074,1.606 0.117,1.105 0.234,2.055 0.605,2.875 0.789,0.344 -0.316,0.125 -0.359,0.105 -0.113,0.207 -0.426,0.25 -0.125,-0.254 0.578,-3.695 0.055,-6.472 0.309,-6.496 z"
       style="fill:#1b1f23;fill-opacity:1;fill-rule:nonzero;stroke:#f6f8fa;stroke-width:0.75;stroke-linecap:round;stroke-linejoin:round;stroke-dasharray:none;stroke-opacity:1;paint-order:stroke fill markers"
       transform="scale(1.3333333)" />
    <path
       id="path28"
       d="m 26.586,81.895 c -0.137,0.179 -2.367,-0.899 -2.797,0.679 -0.344,0.91 -1.035,2.242 -0.512,2.789 0.055,0.285 0.625,0.293 1.172,0.231 0.008,0 0.016,0 0.024,0 0.672,-0.18 1.265,-0.551 1.527,-1.047 0.562,-0.563 0.391,-1.492 0.109,-2.043 -0.039,-0.09 -0.093,-0.231 -0.144,-0.211 -0.043,0.016 0.031,0.094 0.07,0.141 0.203,0.257 0.531,0.558 0.766,0.8 0.949,1.434 1.547,1.828 1.547,2.016 0,0.363 -1.317,0.203 -2.356,-1.5 -0.129,-0.336 -0.262,-0.754 -0.301,-1.25 -0.007,-0.086 -0.046,-0.203 0.028,-0.266 0.09,-0.07 0.179,0.02 0.258,0.051 0.839,0.598 1.562,1.723 1.195,2.895 -0.488,0.894 -1.367,1.523 -2.375,1.75 -0.016,0.004 -0.027,0.008 -0.039,0.011 -0.91,0.27 -1.988,0 -2.633,-0.89 -0.758,-1.633 0.129,-3.192 0.687,-3.992 1.766,-2.563 3.911,-0.344 3.774,-0.164 z"
       style="fill:#1b1f23;fill-opacity:1;fill-rule:nonzero;stroke:#f6f8fa;stroke-width:0.75;stroke-linecap:round;stroke-linejoin:round;stroke-dasharray:none;stroke-opacity:1;paint-order:stroke fill markers"
       transform="scale(1.3333333)" />
    <path
       id="path29"
       d="m 35.555,81.457 c -0.137,0.18 -2.367,-0.898 -2.797,0.684 -0.344,0.906 -1.039,2.238 -0.512,2.789 0.055,0.285 0.625,0.293 1.172,0.23 0.008,0 0.016,-0.004 0.023,-0.004 0.672,-0.179 1.266,-0.547 1.528,-1.043 0.562,-0.562 0.39,-1.492 0.105,-2.047 -0.039,-0.089 -0.09,-0.23 -0.14,-0.211 -0.043,0.02 0.031,0.098 0.066,0.145 0.207,0.254 0.535,0.559 0.77,0.797 0.949,1.433 1.546,1.832 1.546,2.015 0,0.364 -1.316,0.204 -2.355,-1.5 -0.129,-0.332 -0.262,-0.753 -0.301,-1.246 -0.008,-0.086 -0.051,-0.207 0.028,-0.265 0.089,-0.071 0.175,0.019 0.257,0.051 0.84,0.593 1.563,1.722 1.192,2.89 -0.485,0.895 -1.367,1.528 -2.375,1.754 -0.012,0.004 -0.024,0.008 -0.035,0.012 -0.911,0.269 -1.989,0 -2.633,-0.895 -0.758,-1.629 0.125,-3.187 0.687,-3.988 1.766,-2.563 3.91,-0.348 3.774,-0.168 z"
       style="fill:#1b1f23;fill-opacity:1;fill-rule:nonzero;stroke:#f6f8fa;stroke-width:0.75;stroke-linecap:round;stroke-linejoin:round;stroke-dasharray:none;stroke-opacity:1;paint-order:stroke fill markers"
       transform="scale(1.3333333)" />
    <path
       id="path26"
       d="m 28.113,85.246 c 0.106,-0.008 0.192,0.109 0.028,0.301 0,0.023 0,0.047 0.004,0.07 0.011,0.016 0.011,0.016 0.011,0.016 0.02,-0.028 0.004,-0.074 0,-0.121 -0.008,-0.09 -0.015,-0.18 -0.027,-0.289 -0.063,-0.532 -0.219,-1.282 -0.246,-2.141 0.031,-0.289 0.113,-0.625 0.285,-0.965 0.23,-0.457 0.598,-0.859 1.105,-1.125 2.43,-0.558 2.672,1.496 2.446,1.699 -0.231,0.204 -1.598,-1.179 -1.91,-0.503 -0.157,0.035 -0.25,0.214 -0.36,0.511 -0.086,0.235 -0.156,0.457 -0.273,0.723 -0.446,0.734 -0.727,1.414 -0.883,1.902 -0.027,0.094 -0.059,0.192 -0.078,0.27 -0.016,0.039 -0.008,0.082 -0.043,0.105 -0.02,-0.043 -0.024,-0.066 -0.027,-0.09 -0.207,-0.23 -0.141,-0.351 -0.032,-0.363 z"
       style="fill:#1b1f23;fill-opacity:1;fill-rule:nonzero;stroke:#f6f8fa;stroke-width:0.75;stroke-linecap:round;stroke-linejoin:round;stroke-dasharray:none;stroke-opacity:1;paint-order:stroke fill markers"
       transform="scale(1.3333333)" />
    <path
       id="path30"
       d="m 39.578,73.965 c 0.152,0.07 -0.117,0.918 -0.558,2.223 -0.418,1.253 -0.973,3.144 -0.997,5.109 -0.011,1.078 0.137,2.039 0.418,2.906 0.332,0.777 0.504,1.344 0.95,1.422 0.703,0.492 1.449,-0.941 1.593,-0.863 0.145,0.078 0.258,1.765 -1.769,1.687 -0.879,-0.199 -1.52,-0.969 -1.793,-1.875 -0.383,-0.976 -0.594,-2.082 -0.586,-3.289 0.008,-2.234 0.75,-4.187 1.406,-5.433 0.664,-1.266 1.188,-1.957 1.336,-1.887 z"
       style="fill:#1b1f23;fill-opacity:1;fill-rule:nonzero;stroke:#f6f8fa;stroke-width:0.75;stroke-linecap:round;stroke-linejoin:round;stroke-dasharray:none;stroke-opacity:1;paint-order:stroke fill markers"
       transform="scale(1.3333333)" />
    <path
       id="path31"
       d="m 34.609,77.422 c 0.348,-0.41 1.567,0.152 3.219,0.199 1.649,0.043 3.223,-0.16 3.422,0.344 0.164,0.41 -1.129,1.734 -3.512,1.59 -2.429,-0.149 -3.461,-1.739 -3.129,-2.133 z"
       style="fill:#1b1f23;fill-opacity:1;fill-rule:nonzero;stroke:#f6f8fa;stroke-width:0.75;stroke-linecap:round;stroke-linejoin:round;stroke-dasharray:none;stroke-opacity:1;paint-order:stroke fill markers"
       transform="scale(1.3333333)" />
    <path
       id="path32"
       d="m 39.324,81.848 c 0.285,-0.012 0.371,1.761 1.617,2.382 0.348,0.219 0.875,0.29 1.332,0.133 0.039,-0.015 0.079,-0.031 0.114,-0.047 0.445,-0.203 0.781,-0.617 0.804,-0.98 0.297,-1.172 -1.125,-2.195 -0.964,-2.418 0.16,-0.227 2.043,0.055 2.211,2.461 -0.024,0.894 -0.555,1.785 -1.493,2.195 -0.074,0.031 -0.152,0.063 -0.23,0.09 -0.91,0.309 -1.844,0.106 -2.508,-0.394 -1.887,-1.59 -1.172,-3.407 -0.883,-3.422 z"
       style="fill:#1b1f23;fill-opacity:1;fill-rule:nonzero;stroke:#f6f8fa;stroke-width:0.75;stroke-linecap:round;stroke-linejoin:round;stroke-dasharray:none;stroke-opacity:1;paint-order:stroke fill markers"
       transform="scale(1.3333333)" />
    <path
       id="path23"
       d="m 5.305,85.633 c -0.321,-0.106 0.031,-3.84 2.515,-8.176 0.129,-0.379 0.489,-0.98 1.325,-1.305 0.582,0.036 0.988,0.243 1.203,0.5 0.113,0.137 0.172,0.289 0.175,0.434 0.567,1.519 0.493,3.172 0.5,4.332 0.051,3.512 -0.136,5.91 -0.41,5.922 C 10.34,87.355 10.051,84.93 9.781,81.477 9.676,80.266 9.699,78.695 9.242,77.586 9.176,77.551 9.141,77.508 9.137,77.473 9.133,77.402 9.238,77.371 9.465,77.488 9.406,77.379 9.305,77.766 8.984,78.145 6.578,82.066 5.621,85.738 5.305,85.633 Z"
       style="fill:#1b1f23;fill-opacity:1;fill-rule:nonzero;stroke:#f6f8fa;stroke-width:0.75;stroke-linecap:round;stroke-linejoin:round;stroke-dasharray:none;stroke-opacity:1;paint-order:stroke fill markers"
       transform="scale(1.3333333)" />
    <path
       id="path33"
       d="M 6.316,82.031 C 6.434,81.73 7.41,81.699 8.48,81.734 c 1.165,0.036 2.184,0.262 2.184,0.68 0,0.379 -0.957,0.758 -2.238,0.695 -1.348,-0.062 -2.258,-0.691 -2.11,-1.078 z"
       style="fill:#1b1f23;fill-opacity:1;fill-rule:nonzero;stroke:#f6f8fa;stroke-width:0.75;stroke-linecap:round;stroke-linejoin:round;stroke-dasharray:none;stroke-opacity:1;paint-order:stroke fill markers"
       transform="scale(1.3333333)" />
    <path
       id="path34"
       d="m 14.238,106.676 c -0.328,0.09 -1.644,-3.242 -0.461,-7.985 0.36,-0.703 0.782,-1.839 1.711,-2.867 0.141,-0.015 0.332,0.047 0.45,0.176 0.273,0.301 0.472,0.57 0.671,0.785 0.227,1.477 0.082,3.133 0.829,3.817 -0.083,-0.008 -0.157,-0.02 -0.223,-0.028 -0.508,-0.09 -0.586,-0.234 -0.477,-0.152 0.285,-0.367 0.504,-0.895 0.766,-1.449 0.402,-1.094 0.785,-2.586 2.226,-3.547 1.211,0.109 1.708,0.644 1.532,1.16 -0.063,0.586 -0.215,1.09 -0.344,1.504 -0.328,1.125 -0.742,1.98 -0.84,2.746 -0.539,2.328 1.445,4.254 1.219,4.379 -0.231,0.129 -2.488,-0.777 -2.551,-4.485 0.047,-1.148 0.371,-1.96 0.625,-3.046 0.098,-0.446 0.207,-0.868 0.211,-1.219 -0.152,0.125 0.152,0.129 1.012,0.441 -0.637,0.254 -0.727,1.508 -1.414,2.828 -0.227,0.532 -0.5,1.168 -0.946,1.793 -0.222,0.528 -0.906,0.782 -1.836,0.45 -0.121,-0.043 -0.246,-0.098 -0.378,-0.161 -1.231,-1.625 -1.157,-3.586 -1.192,-4.859 0.16,-0.219 0.344,-0.387 0.473,-0.484 0.054,-0.047 0.047,0 0.086,0.136 -0.145,0.575 0.019,1.555 -0.075,2.512 -1.367,4.348 -0.75,7.465 -1.074,7.555 z"
       style="fill:#1b1f23;fill-opacity:1;fill-rule:nonzero;stroke:#f6f8fa;stroke-width:0.75;stroke-linecap:round;stroke-linejoin:round;stroke-dasharray:none;stroke-opacity:1;paint-order:stroke fill markers"
       transform="scale(1.3333333)" />
    <path
       id="path35"
       d="m 25.012,101.914 c -0.207,0.234 -1.285,-0.047 -2.364,1.164 -0.316,0.414 -0.679,0.844 -0.843,1.254 0.031,0.152 -0.043,0.215 -0.11,0.027 -0.015,-0.043 -0.031,-0.093 -0.043,-0.16 -0.097,-0.035 -0.324,-0.219 -0.007,-0.097 0.238,-0.016 0.511,-0.102 0.789,-0.196 0.761,-0.308 1.246,-0.511 1.589,-0.89 0.086,-0.129 0.2,-0.196 0.192,-0.219 0.129,-0.27 -0.438,-0.57 -0.391,-0.723 0.051,-0.148 0.571,-0.496 1.184,0.387 0.164,0.379 0.156,0.84 -0.078,1.172 -0.391,0.695 -1.075,1.254 -1.934,1.621 -0.332,0.156 -0.73,0.301 -1.191,0.363 -0.27,0.11 -0.746,0.043 -1.293,-0.387 -0.074,-0.132 -0.133,-0.261 -0.176,-0.382 -0.195,-0.539 -0.121,-0.953 0.078,-1.153 0.332,-0.683 0.801,-1.183 1.184,-1.554 1.617,-1.797 3.625,-0.461 3.414,-0.227 z"
       style="fill:#1b1f23;fill-opacity:1;fill-rule:nonzero;stroke:#f6f8fa;stroke-width:0.75;stroke-linecap:round;stroke-linejoin:round;stroke-dasharray:none;stroke-opacity:1;paint-order:stroke fill markers"
       transform="scale(1.3333333)" />
    <path
       id="path36"
       d="m 27.723,102.512 c -0.055,0.176 -2.352,-0.285 -1.899,0.718 -0.012,0.321 0.278,0.938 0.614,0.899 0.078,0.051 0.246,-0.098 0.433,-0.258 0.387,-0.387 0.582,-0.98 0.832,-1.734 1.043,-2.742 1.457,-5.59 1.793,-9.36 0.051,-0.57 0.102,-1.156 0.149,-1.715 0.074,-0.066 0.148,-0.132 0.226,-0.199 0.027,-0.027 0.051,-0.054 0.09,-0.078 0.094,0.043 0.141,0.106 0.207,0.156 0.156,0.125 0.309,0.25 0.461,0.375 0.023,0.414 0.039,0.829 0.059,1.231 0.035,0.894 0.062,1.75 0.074,2.598 0.035,2.417 -0.27,4.433 -0.129,6.078 0.277,3.015 2.523,3.957 2.453,4.211 -0.07,0.254 -3.152,-0.297 -3.781,-4.032 -0.325,-1.82 -0.168,-3.996 -0.285,-6.199 -0.047,-0.844 -0.098,-1.66 -0.153,-2.562 -0.027,-0.399 -0.051,-0.805 -0.082,-1.207 0.137,-0.133 0.27,-0.266 0.403,-0.399 0.058,-0.055 0.128,-0.117 0.164,-0.16 0.011,0.02 0.046,0.047 0.074,0.07 0.07,0.067 0.148,0.133 0.222,0.2 0.047,0.558 0.098,1.132 0.141,1.714 0.289,3.774 0.277,6.879 -0.598,9.782 -0.281,0.816 -0.687,1.609 -1.355,2.234 -0.41,0.418 -1.039,0.617 -1.691,0.492 -1.188,-0.39 -1.504,-1.543 -1.305,-2.32 1.098,-2.508 2.941,-0.707 2.883,-0.535 z"
       style="fill:#1b1f23;fill-opacity:1;fill-rule:nonzero;stroke:#f6f8fa;stroke-width:0.75;stroke-linecap:round;stroke-linejoin:round;stroke-dasharray:none;stroke-opacity:1;paint-order:stroke fill markers"
       transform="scale(1.3333333)" />
    <path
       id="path37"
       d="m 32.309,100.891 c 0.445,0.007 0.289,2.211 1.32,3.058 -0.238,0 -0.262,-0.094 -0.211,-0.156 0.02,-0.027 0.055,-0.047 0.086,-0.051 0.387,-0.387 0.641,-0.972 0.805,-1.472 0.199,-0.934 0.003,-1.528 0.191,-1.786 0.191,-0.257 1.504,0.457 1.336,2.008 -0.016,0.75 -0.262,1.684 -0.961,2.496 -0.18,0.227 -0.414,0.403 -0.684,0.508 -0.605,0.234 -1.343,0.106 -1.992,-0.422 -1.609,-2.492 -0.336,-4.187 0.11,-4.183 z"
       style="fill:#1b1f23;fill-opacity:1;fill-rule:nonzero;stroke:#f6f8fa;stroke-width:0.75;stroke-linecap:round;stroke-linejoin:round;stroke-dasharray:none;stroke-opacity:1;paint-order:stroke fill markers"
       transform="scale(1.3333333)" />
    <path
       id="path38"
       d="m 37.312,93.105 c 0.165,-0.019 0.211,0.391 0.215,1.043 0.008,0.532 -0.023,1.172 -0.082,1.989 -0.105,1.492 -0.254,2.91 -0.359,4.406 -0.016,0.223 -0.027,0.441 -0.039,0.656 -0.055,1.664 -0.313,2.613 0.16,3.559 0.043,0.14 0.199,0.258 0.281,0.219 0.887,-0.122 1.434,-0.942 1.555,-0.844 0.121,0.101 0.059,1.004 -1.309,1.613 -0.484,0.141 -1.054,-0.016 -1.367,-0.523 -0.711,-1.215 -0.64,-2.551 -0.527,-4.086 0.012,-0.223 0.023,-0.449 0.039,-0.68 0.117,-1.66 0.371,-3.254 0.605,-4.445 0.149,-0.77 0.313,-1.473 0.438,-1.938 0.148,-0.613 0.351,-0.965 0.39,-0.969 z"
       style="fill:#1b1f23;fill-opacity:1;fill-rule:nonzero;stroke:#f6f8fa;stroke-width:0.75;stroke-linecap:round;stroke-linejoin:round;stroke-dasharray:none;stroke-opacity:1;paint-order:stroke fill markers"
       transform="scale(1.3333333)" />
    <path
       id="path39"
       d="m 243.125,43.09 c -0.324,0.09 -1.645,-3.242 -0.461,-7.985 0.359,-0.703 0.785,-1.839 1.711,-2.867 0.145,-0.015 0.332,0.047 0.449,0.176 0.274,0.301 0.473,0.574 0.672,0.789 0.231,1.473 0.086,3.129 0.828,3.813 -0.082,-0.008 -0.156,-0.016 -0.222,-0.028 -0.504,-0.09 -0.582,-0.234 -0.477,-0.152 0.285,-0.367 0.504,-0.895 0.77,-1.445 0.398,-1.094 0.781,-2.59 2.222,-3.551 1.211,0.109 1.711,0.644 1.531,1.16 -0.058,0.586 -0.214,1.09 -0.343,1.504 -0.325,1.125 -0.739,1.98 -0.84,2.746 -0.535,2.328 1.449,4.254 1.219,4.383 -0.227,0.125 -2.489,-0.781 -2.547,-4.488 0.043,-1.149 0.367,-1.961 0.621,-3.047 0.097,-0.442 0.207,-0.868 0.215,-1.219 -0.153,0.125 0.152,0.133 1.007,0.445 -0.632,0.25 -0.726,1.508 -1.414,2.824 -0.226,0.532 -0.496,1.168 -0.945,1.793 -0.219,0.528 -0.902,0.786 -1.836,0.45 -0.121,-0.043 -0.246,-0.098 -0.375,-0.161 -1.234,-1.625 -1.156,-3.585 -1.191,-4.859 0.156,-0.215 0.34,-0.387 0.469,-0.484 0.058,-0.043 0.046,0 0.085,0.136 -0.144,0.575 0.024,1.555 -0.07,2.512 -1.371,4.348 -0.75,7.465 -1.078,7.555 z"
       style="fill:#1b1f23;fill-opacity:1;fill-rule:nonzero;stroke:#f6f8fa;stroke-width:0.75;stroke-linecap:round;stroke-linejoin:round;stroke-dasharray:none;stroke-opacity:1;paint-order:stroke fill markers"
       transform="scale(1.3333333)" />
    <path
       id="path40"
       d="m 253.898,38.332 c -0.207,0.23 -1.285,-0.051 -2.363,1.16 -0.316,0.414 -0.68,0.848 -0.84,1.254 0.032,0.152 -0.043,0.215 -0.113,0.027 -0.016,-0.039 -0.031,-0.093 -0.039,-0.156 -0.102,-0.039 -0.328,-0.222 -0.012,-0.101 0.239,-0.012 0.512,-0.098 0.793,-0.196 0.762,-0.308 1.246,-0.508 1.586,-0.89 0.086,-0.129 0.199,-0.196 0.192,-0.219 0.128,-0.266 -0.438,-0.566 -0.387,-0.719 0.047,-0.152 0.57,-0.5 1.183,0.383 0.161,0.379 0.153,0.84 -0.078,1.172 -0.394,0.695 -1.078,1.254 -1.937,1.621 -0.328,0.156 -0.727,0.301 -1.192,0.363 -0.265,0.114 -0.746,0.043 -1.293,-0.386 -0.074,-0.133 -0.128,-0.258 -0.175,-0.383 -0.196,-0.539 -0.118,-0.953 0.078,-1.149 0.332,-0.683 0.801,-1.187 1.187,-1.558 1.614,-1.793 3.621,-0.457 3.41,-0.223 z"
       style="fill:#1b1f23;fill-opacity:1;fill-rule:nonzero;stroke:#f6f8fa;stroke-width:0.75;stroke-linecap:round;stroke-linejoin:round;stroke-dasharray:none;stroke-opacity:1;paint-order:stroke fill markers"
       transform="scale(1.3333333)" />
    <path
       id="path41"
       d="m 256.613,38.93 c -0.054,0.175 -2.355,-0.285 -1.902,0.715 -0.012,0.32 0.277,0.937 0.613,0.898 0.078,0.051 0.246,-0.098 0.438,-0.258 0.386,-0.387 0.578,-0.98 0.832,-1.734 1.043,-2.742 1.457,-5.59 1.789,-9.36 0.051,-0.57 0.101,-1.156 0.148,-1.714 0.074,-0.067 0.149,-0.133 0.227,-0.2 0.031,-0.027 0.051,-0.054 0.094,-0.074 0.089,0.043 0.14,0.102 0.203,0.152 0.156,0.125 0.312,0.25 0.461,0.375 0.023,0.415 0.043,0.829 0.058,1.231 0.035,0.894 0.063,1.75 0.074,2.598 0.04,2.418 -0.265,4.433 -0.125,6.078 0.278,3.019 2.52,3.957 2.45,4.211 -0.071,0.254 -3.153,-0.297 -3.782,-4.032 -0.324,-1.82 -0.168,-3.996 -0.285,-6.199 -0.043,-0.844 -0.097,-1.66 -0.152,-2.562 -0.024,-0.399 -0.051,-0.805 -0.078,-1.207 0.133,-0.133 0.269,-0.266 0.402,-0.399 0.055,-0.054 0.129,-0.117 0.16,-0.16 0.012,0.02 0.047,0.047 0.074,0.07 0.075,0.067 0.149,0.133 0.223,0.2 0.047,0.558 0.098,1.136 0.141,1.714 0.293,3.774 0.277,6.879 -0.598,9.782 -0.281,0.816 -0.683,1.609 -1.355,2.238 -0.411,0.414 -1.039,0.613 -1.692,0.488 -1.187,-0.39 -1.5,-1.543 -1.304,-2.32 1.097,-2.508 2.941,-0.707 2.886,-0.531 z"
       style="fill:#1b1f23;fill-opacity:1;fill-rule:nonzero;stroke:#f6f8fa;stroke-width:0.75;stroke-linecap:round;stroke-linejoin:round;stroke-dasharray:none;stroke-opacity:1;paint-order:stroke fill markers"
       transform="scale(1.3333333)" />
    <path
       id="path42"
       d="m 261.195,37.309 c 0.446,0.003 0.293,2.211 1.321,3.054 -0.239,0 -0.258,-0.093 -0.211,-0.156 0.023,-0.027 0.054,-0.047 0.086,-0.051 0.386,-0.386 0.64,-0.972 0.808,-1.472 0.196,-0.934 0,-1.524 0.192,-1.786 0.187,-0.257 1.5,0.457 1.332,2.008 -0.016,0.75 -0.262,1.684 -0.957,2.496 -0.18,0.227 -0.414,0.403 -0.688,0.508 -0.605,0.238 -1.34,0.106 -1.988,-0.418 -1.61,-2.496 -0.336,-4.191 0.105,-4.183 z"
       style="fill:#1b1f23;fill-opacity:1;fill-rule:nonzero;stroke:#f6f8fa;stroke-width:0.75;stroke-linecap:round;stroke-linejoin:round;stroke-dasharray:none;stroke-opacity:1;paint-order:stroke fill markers"
       transform="scale(1.3333333)" />
    <path
       id="path43"
       d="m 266.199,29.52 c 0.164,-0.02 0.211,0.39 0.215,1.042 0.008,0.532 -0.023,1.172 -0.078,1.989 -0.106,1.492 -0.254,2.914 -0.359,4.406 -0.016,0.223 -0.032,0.441 -0.043,0.656 -0.051,1.668 -0.313,2.614 0.164,3.559 0.039,0.144 0.195,0.258 0.277,0.219 0.887,-0.121 1.437,-0.942 1.555,-0.84 0.121,0.097 0.062,1 -1.305,1.609 -0.484,0.141 -1.055,-0.015 -1.367,-0.523 -0.711,-1.215 -0.645,-2.547 -0.528,-4.086 0.008,-0.223 0.024,-0.449 0.04,-0.68 0.113,-1.66 0.371,-3.254 0.601,-4.445 0.149,-0.766 0.313,-1.469 0.441,-1.938 0.149,-0.613 0.352,-0.965 0.387,-0.968 z"
       style="fill:#1b1f23;fill-opacity:1;fill-rule:nonzero;stroke:#f6f8fa;stroke-width:0.75;stroke-linecap:round;stroke-linejoin:round;stroke-dasharray:none;stroke-opacity:1;paint-order:stroke fill markers"
       transform="scale(1.3333333)" />
    <path
       id="path44"
       d="m 250.129,140.938 c -0.324,0.085 -1.645,-3.243 -0.461,-7.985 0.359,-0.707 0.785,-1.844 1.711,-2.867 0.144,-0.016 0.332,0.043 0.449,0.176 0.274,0.3 0.473,0.57 0.672,0.785 0.23,1.476 0.086,3.133 0.828,3.816 -0.082,-0.008 -0.156,-0.019 -0.223,-0.031 -0.507,-0.086 -0.582,-0.234 -0.476,-0.148 0.285,-0.368 0.504,-0.895 0.769,-1.45 0.399,-1.093 0.782,-2.586 2.223,-3.546 1.211,0.109 1.711,0.64 1.531,1.156 -0.058,0.586 -0.214,1.094 -0.343,1.508 -0.325,1.125 -0.739,1.98 -0.84,2.746 -0.535,2.328 1.449,4.254 1.219,4.379 -0.227,0.128 -2.489,-0.778 -2.547,-4.485 0.043,-1.148 0.367,-1.961 0.621,-3.047 0.097,-0.445 0.207,-0.867 0.215,-1.218 -0.153,0.121 0.152,0.128 1.007,0.441 -0.632,0.254 -0.726,1.508 -1.414,2.828 -0.226,0.531 -0.5,1.168 -0.945,1.793 -0.219,0.527 -0.906,0.781 -1.836,0.449 -0.121,-0.043 -0.246,-0.097 -0.375,-0.164 -1.234,-1.625 -1.156,-3.582 -1.191,-4.855 0.156,-0.219 0.339,-0.387 0.468,-0.489 0.059,-0.042 0.047,0.004 0.086,0.141 -0.144,0.57 0.024,1.551 -0.074,2.512 -1.367,4.347 -0.746,7.465 -1.074,7.555 z"
       style="fill:#1b1f23;fill-opacity:1;fill-rule:nonzero;stroke:#f6f8fa;stroke-width:0.75;stroke-linecap:round;stroke-linejoin:round;stroke-dasharray:none;stroke-opacity:1;paint-order:stroke fill markers"
       transform="scale(1.3333333)" />
    <path
       id="path45"
       d="m 260.902,136.176 c -0.207,0.234 -1.285,-0.051 -2.363,1.164 -0.316,0.414 -0.68,0.844 -0.84,1.25 0.031,0.156 -0.047,0.219 -0.113,0.031 -0.016,-0.043 -0.031,-0.094 -0.043,-0.16 -0.098,-0.035 -0.324,-0.219 -0.008,-0.102 0.238,-0.011 0.512,-0.097 0.789,-0.191 0.766,-0.309 1.25,-0.512 1.59,-0.891 0.086,-0.129 0.199,-0.195 0.191,-0.218 0.129,-0.27 -0.437,-0.571 -0.386,-0.723 0.047,-0.152 0.57,-0.496 1.183,0.387 0.16,0.375 0.153,0.836 -0.078,1.172 -0.394,0.695 -1.078,1.253 -1.937,1.617 -0.328,0.16 -0.727,0.304 -1.192,0.363 -0.265,0.113 -0.746,0.047 -1.293,-0.383 -0.074,-0.133 -0.132,-0.262 -0.175,-0.383 -0.196,-0.543 -0.122,-0.953 0.078,-1.152 0.332,-0.684 0.8,-1.184 1.187,-1.555 1.613,-1.797 3.621,-0.461 3.41,-0.226 z"
       style="fill:#1b1f23;fill-opacity:1;fill-rule:nonzero;stroke:#f6f8fa;stroke-width:0.75;stroke-linecap:round;stroke-linejoin:round;stroke-dasharray:none;stroke-opacity:1;paint-order:stroke fill markers"
       transform="scale(1.3333333)" />
    <path
       id="path46"
       d="m 263.617,136.773 c -0.055,0.176 -2.355,-0.285 -1.902,0.715 -0.012,0.321 0.277,0.942 0.613,0.903 0.078,0.05 0.246,-0.098 0.438,-0.258 0.386,-0.387 0.578,-0.981 0.828,-1.735 1.043,-2.742 1.461,-5.589 1.793,-9.359 0.051,-0.57 0.101,-1.156 0.148,-1.715 0.074,-0.066 0.149,-0.133 0.227,-0.203 0.031,-0.023 0.05,-0.051 0.093,-0.074 0.09,0.043 0.141,0.105 0.204,0.156 0.156,0.125 0.308,0.25 0.461,0.371 0.023,0.418 0.042,0.832 0.058,1.235 0.035,0.894 0.063,1.75 0.074,2.597 0.039,2.414 -0.265,4.434 -0.125,6.078 0.278,3.016 2.52,3.957 2.45,4.211 -0.071,0.254 -3.153,-0.297 -3.782,-4.035 -0.324,-1.816 -0.168,-3.996 -0.285,-6.195 -0.043,-0.844 -0.098,-1.664 -0.152,-2.563 -0.024,-0.398 -0.051,-0.804 -0.078,-1.207 0.132,-0.133 0.269,-0.265 0.402,-0.398 0.055,-0.055 0.129,-0.117 0.16,-0.164 0.012,0.023 0.047,0.051 0.074,0.074 0.075,0.066 0.149,0.133 0.223,0.199 0.047,0.555 0.098,1.133 0.141,1.711 0.293,3.774 0.277,6.883 -0.598,9.785 -0.281,0.813 -0.684,1.61 -1.355,2.235 -0.411,0.418 -1.039,0.613 -1.692,0.492 -1.187,-0.391 -1.5,-1.543 -1.305,-2.32 1.098,-2.508 2.942,-0.711 2.887,-0.536 z"
       style="fill:#1b1f23;fill-opacity:1;fill-rule:nonzero;stroke:#f6f8fa;stroke-width:0.75;stroke-linecap:round;stroke-linejoin:round;stroke-dasharray:none;stroke-opacity:1;paint-order:stroke fill markers"
       transform="scale(1.3333333)" />
    <path
       id="path47"
       d="m 268.199,135.152 c 0.446,0.008 0.289,2.211 1.321,3.059 -0.239,0 -0.258,-0.094 -0.211,-0.156 0.023,-0.028 0.054,-0.047 0.086,-0.051 0.386,-0.391 0.64,-0.977 0.808,-1.477 0.195,-0.929 0,-1.523 0.192,-1.781 0.187,-0.258 1.5,0.453 1.332,2.008 -0.016,0.75 -0.262,1.684 -0.957,2.496 -0.184,0.227 -0.415,0.402 -0.688,0.508 -0.605,0.234 -1.34,0.101 -1.988,-0.422 -1.61,-2.496 -0.34,-4.188 0.105,-4.184 z"
       style="fill:#1b1f23;fill-opacity:1;fill-rule:nonzero;stroke:#f6f8fa;stroke-width:0.75;stroke-linecap:round;stroke-linejoin:round;stroke-dasharray:none;stroke-opacity:1;paint-order:stroke fill markers"
       transform="scale(1.3333333)" />
    <path
       id="path48"
       d="m 273.203,127.367 c 0.164,-0.019 0.211,0.387 0.215,1.043 0.008,0.531 -0.023,1.172 -0.082,1.988 -0.102,1.493 -0.25,2.911 -0.356,4.403 -0.015,0.222 -0.031,0.441 -0.042,0.66 -0.051,1.664 -0.313,2.613 0.164,3.559 0.039,0.14 0.195,0.257 0.277,0.214 0.887,-0.117 1.437,-0.937 1.555,-0.839 0.121,0.101 0.062,1 -1.305,1.609 -0.484,0.141 -1.055,-0.016 -1.371,-0.524 -0.707,-1.21 -0.641,-2.546 -0.524,-4.082 0.008,-0.222 0.024,-0.449 0.039,-0.679 0.114,-1.66 0.372,-3.254 0.602,-4.449 0.148,-0.766 0.313,-1.469 0.441,-1.938 0.149,-0.609 0.352,-0.961 0.387,-0.965 z"
       style="fill:#1b1f23;fill-opacity:1;fill-rule:nonzero;stroke:#f6f8fa;stroke-width:0.75;stroke-linecap:round;stroke-linejoin:round;stroke-dasharray:none;stroke-opacity:1;paint-order:stroke fill markers"
       transform="scale(1.3333333)" />
    <path
       id="path49"
       d="m 246.961,228.559 c -0.328,0.089 -1.645,-3.243 -0.461,-7.985 0.359,-0.703 0.785,-1.84 1.711,-2.867 0.144,-0.016 0.332,0.047 0.449,0.176 0.274,0.301 0.473,0.57 0.672,0.785 0.227,1.477 0.086,3.133 0.828,3.816 -0.082,-0.007 -0.156,-0.015 -0.222,-0.027 -0.508,-0.09 -0.586,-0.234 -0.477,-0.152 0.285,-0.367 0.504,-0.895 0.769,-1.446 0.399,-1.097 0.782,-2.589 2.223,-3.55 1.211,0.109 1.711,0.644 1.531,1.16 -0.058,0.586 -0.214,1.09 -0.343,1.504 -0.325,1.125 -0.743,1.98 -0.84,2.746 -0.535,2.328 1.449,4.254 1.219,4.379 -0.227,0.129 -2.489,-0.778 -2.547,-4.485 0.043,-1.148 0.367,-1.961 0.621,-3.047 0.097,-0.441 0.207,-0.867 0.211,-1.218 -0.149,0.125 0.156,0.129 1.011,0.445 -0.632,0.25 -0.726,1.504 -1.414,2.824 -0.226,0.531 -0.5,1.168 -0.945,1.793 -0.219,0.528 -0.906,0.781 -1.836,0.449 -0.121,-0.043 -0.246,-0.097 -0.375,-0.16 -1.234,-1.625 -1.156,-3.586 -1.191,-4.859 0.156,-0.219 0.34,-0.387 0.468,-0.485 0.059,-0.046 0.047,0 0.086,0.137 -0.144,0.574 0.024,1.555 -0.074,2.512 -1.367,4.348 -0.746,7.465 -1.074,7.555 z"
       style="fill:#1b1f23;fill-opacity:1;fill-rule:nonzero;stroke:#f6f8fa;stroke-width:0.75;stroke-linecap:round;stroke-linejoin:round;stroke-dasharray:none;stroke-opacity:1;paint-order:stroke fill markers"
       transform="scale(1.3333333)" />
    <path
       id="path50"
       d="m 257.734,223.797 c -0.207,0.234 -1.285,-0.047 -2.363,1.164 -0.316,0.414 -0.68,0.848 -0.84,1.254 0.031,0.152 -0.047,0.215 -0.113,0.027 -0.016,-0.043 -0.031,-0.094 -0.043,-0.16 -0.098,-0.035 -0.324,-0.219 -0.008,-0.098 0.238,-0.015 0.512,-0.101 0.789,-0.195 0.766,-0.309 1.25,-0.508 1.59,-0.891 0.086,-0.128 0.199,-0.195 0.192,-0.218 0.128,-0.266 -0.438,-0.571 -0.387,-0.719 0.047,-0.152 0.57,-0.5 1.183,0.383 0.161,0.379 0.153,0.84 -0.078,1.172 -0.394,0.695 -1.078,1.254 -1.937,1.621 -0.328,0.156 -0.727,0.301 -1.192,0.363 -0.265,0.109 -0.746,0.043 -1.293,-0.387 -0.074,-0.133 -0.132,-0.258 -0.175,-0.383 -0.196,-0.539 -0.121,-0.953 0.078,-1.148 0.332,-0.684 0.801,-1.187 1.187,-1.559 1.614,-1.796 3.621,-0.457 3.41,-0.226 z"
       style="fill:#1b1f23;fill-opacity:1;fill-rule:nonzero;stroke:#f6f8fa;stroke-width:0.75;stroke-linecap:round;stroke-linejoin:round;stroke-dasharray:none;stroke-opacity:1;paint-order:stroke fill markers"
       transform="scale(1.3333333)" />
    <path
       id="path51"
       d="m 260.449,224.398 c -0.058,0.172 -2.355,-0.289 -1.902,0.715 -0.012,0.321 0.277,0.938 0.613,0.899 0.078,0.05 0.246,-0.098 0.438,-0.258 0.382,-0.387 0.578,-0.981 0.828,-1.734 1.043,-2.743 1.461,-5.59 1.793,-9.36 0.051,-0.57 0.101,-1.156 0.148,-1.715 0.074,-0.066 0.149,-0.133 0.227,-0.199 0.027,-0.027 0.051,-0.055 0.094,-0.074 0.089,0.039 0.14,0.101 0.203,0.152 0.156,0.125 0.308,0.25 0.461,0.375 0.023,0.414 0.043,0.828 0.058,1.231 0.035,0.894 0.063,1.75 0.074,2.597 0.039,2.418 -0.265,4.434 -0.125,6.078 0.278,3.02 2.52,3.957 2.45,4.211 -0.071,0.254 -3.153,-0.296 -3.782,-4.031 -0.324,-1.82 -0.168,-3.996 -0.285,-6.199 -0.043,-0.844 -0.097,-1.66 -0.152,-2.563 -0.024,-0.398 -0.051,-0.804 -0.078,-1.207 0.133,-0.132 0.265,-0.265 0.402,-0.398 0.055,-0.055 0.129,-0.117 0.16,-0.16 0.012,0.019 0.047,0.047 0.074,0.07 0.075,0.067 0.149,0.133 0.223,0.199 0.047,0.559 0.098,1.137 0.141,1.715 0.289,3.774 0.277,6.879 -0.598,9.781 -0.281,0.817 -0.684,1.61 -1.355,2.239 -0.411,0.414 -1.039,0.613 -1.692,0.488 -1.187,-0.391 -1.5,-1.543 -1.305,-2.32 1.098,-2.508 2.942,-0.707 2.887,-0.532 z"
       style="fill:#1b1f23;fill-opacity:1;fill-rule:nonzero;stroke:#f6f8fa;stroke-width:0.75;stroke-linecap:round;stroke-linejoin:round;stroke-dasharray:none;stroke-opacity:1;paint-order:stroke fill markers"
       transform="scale(1.3333333)" />
    <path
       id="path52"
       d="m 265.031,222.773 c 0.446,0.008 0.289,2.211 1.321,3.059 -0.239,0 -0.258,-0.094 -0.211,-0.156 0.023,-0.028 0.054,-0.047 0.086,-0.051 0.386,-0.387 0.64,-0.973 0.808,-1.473 0.195,-0.933 0,-1.527 0.192,-1.785 0.187,-0.258 1.5,0.457 1.332,2.008 -0.016,0.75 -0.262,1.684 -0.957,2.496 -0.184,0.227 -0.414,0.402 -0.688,0.508 -0.605,0.238 -1.344,0.105 -1.992,-0.422 -1.606,-2.492 -0.336,-4.187 0.109,-4.184 z"
       style="fill:#1b1f23;fill-opacity:1;fill-rule:nonzero;stroke:#f6f8fa;stroke-width:0.75;stroke-linecap:round;stroke-linejoin:round;stroke-dasharray:none;stroke-opacity:1;paint-order:stroke fill markers"
       transform="scale(1.3333333)" />
    <path
       id="path53"
       d="m 270.035,214.988 c 0.164,-0.019 0.211,0.391 0.215,1.043 0.008,0.531 -0.023,1.172 -0.082,1.989 -0.106,1.492 -0.25,2.91 -0.356,4.406 -0.015,0.222 -0.031,0.441 -0.042,0.656 -0.051,1.668 -0.313,2.613 0.164,3.559 0.039,0.144 0.195,0.257 0.277,0.218 0.887,-0.121 1.437,-0.941 1.555,-0.839 0.121,0.097 0.058,1 -1.305,1.609 -0.484,0.141 -1.055,-0.016 -1.371,-0.524 -0.707,-1.214 -0.641,-2.55 -0.524,-4.085 0.008,-0.223 0.02,-0.45 0.039,-0.68 0.114,-1.66 0.372,-3.254 0.602,-4.445 0.148,-0.77 0.313,-1.473 0.441,-1.938 0.149,-0.613 0.352,-0.965 0.387,-0.969 z"
       style="fill:#1b1f23;fill-opacity:1;fill-rule:nonzero;stroke:#f6f8fa;stroke-width:0.75;stroke-linecap:round;stroke-linejoin:round;stroke-dasharray:none;stroke-opacity:1;paint-order:stroke fill markers"
       transform="scale(1.3333333)" />
    <path
       id="path54"
       d="m 242.102,10.172 c 0.343,-0.055 0.941,2.844 0.507,6.336 -0.433,3.492 -0.89,6.211 -1.238,6.211 -0.351,0 -0.465,-2.934 -0.027,-6.371 0.437,-3.438 0.41,-6.121 0.758,-6.176 z"
       style="fill:#1b1f23;fill-opacity:1;fill-rule:nonzero;stroke:#f6f8fa;stroke-width:0.75;stroke-linecap:round;stroke-linejoin:round;stroke-dasharray:none;stroke-opacity:1;paint-order:stroke fill markers"
       transform="scale(1.3333333)" />
    <path
       id="path55"
       d="m 241.148,16.801 c 0.004,-0.332 1.243,-0.633 2.77,-0.699 1.551,-0.067 2.824,0.183 2.824,0.55 0,0.332 -1.234,0.653 -2.769,0.719 -1.559,0.067 -2.828,-0.203 -2.825,-0.57 z"
       style="fill:#1b1f23;fill-opacity:1;fill-rule:nonzero;stroke:#f6f8fa;stroke-width:0.75;stroke-linecap:round;stroke-linejoin:round;stroke-dasharray:none;stroke-opacity:1;paint-order:stroke fill markers"
       transform="scale(1.3333333)" />
    <path
       id="path56"
       d="m 248.871,10.969 c 0.32,0.14 -0.191,2.308 -0.312,5.172 -0.004,0.168 -0.012,0.336 -0.02,0.504 -0.094,2.644 0,4.632 -0.32,4.71 -0.321,0.075 -0.996,-2.07 -0.946,-4.746 0,-0.171 0.004,-0.343 0.012,-0.519 0.102,-2.957 1.262,-5.258 1.586,-5.121 z"
       style="fill:#1b1f23;fill-opacity:1;fill-rule:nonzero;stroke:#f6f8fa;stroke-width:0.75;stroke-linecap:round;stroke-linejoin:round;stroke-dasharray:none;stroke-opacity:1;paint-order:stroke fill markers"
       transform="scale(1.3333333)" />
    <path
       id="path57"
       d="m 251.992,105.289 c 0.301,-0.047 0.86,2.836 0.426,6.324 -0.434,3.489 -0.852,6.223 -1.156,6.223 -0.309,0 -0.383,-2.918 0.054,-6.363 0.438,-3.442 0.372,-6.137 0.676,-6.184 z"
       style="fill:#1b1f23;fill-opacity:1;fill-rule:nonzero;stroke:#f6f8fa;stroke-width:0.75;stroke-linecap:round;stroke-linejoin:round;stroke-dasharray:none;stroke-opacity:1;paint-order:stroke fill markers"
       transform="scale(1.3333333)" />
    <path
       id="path58"
       d="m 251.039,111.918 c 0.004,-0.332 1.242,-0.633 2.77,-0.699 1.55,-0.067 2.824,0.183 2.824,0.551 0,0.332 -1.235,0.652 -2.77,0.718 -1.558,0.067 -2.828,-0.203 -2.824,-0.57 z"
       style="fill:#1b1f23;fill-opacity:1;fill-rule:nonzero;stroke:#f6f8fa;stroke-width:0.75;stroke-linecap:round;stroke-linejoin:round;stroke-dasharray:none;stroke-opacity:1;paint-order:stroke fill markers"
       transform="scale(1.3333333)" />
    <path
       id="path59"
       d="m 258.762,106.086 c 0.32,0.137 -0.192,2.309 -0.313,5.168 -0.004,0.172 -0.011,0.34 -0.023,0.504 -0.09,2.648 0.004,4.637 -0.317,4.711 -0.32,0.078 -0.996,-2.067 -0.945,-4.742 0,-0.172 0.004,-0.344 0.012,-0.52 0.101,-2.961 1.262,-5.258 1.586,-5.121 z"
       style="fill:#1b1f23;fill-opacity:1;fill-rule:nonzero;stroke:#f6f8fa;stroke-width:0.75;stroke-linecap:round;stroke-linejoin:round;stroke-dasharray:none;stroke-opacity:1;paint-order:stroke fill markers"
       transform="scale(1.3333333)" />
    <path
       id="path60"
       d="m 249.902,15.328 c 0.157,-0.051 0.457,1.207 0.727,2.992 0.144,0.758 0.359,1.914 1.047,2.258 -0.16,0.051 -0.168,-0.098 0.023,-0.18 0.239,-0.281 0.406,-0.648 0.637,-1.086 0.176,-0.347 0.379,-0.792 0.715,-1.218 0.336,-0.41 0.953,-0.477 1.574,0.008 0.363,0.441 0.66,0.925 0.973,1.371 0.418,0.586 0.773,0.957 1.16,0.754 0.457,0.113 0.648,-0.95 0.953,-1.735 0.348,-1.383 0.414,-2.797 0.434,-3.851 -0.02,-1.899 -0.286,-2.856 -0.149,-2.942 0.137,-0.086 0.832,1.078 0.984,2.906 0.118,1.094 0.168,2.575 -0.144,4.141 -0.063,0.856 -0.445,2.238 -1.852,2.707 -1.035,0.063 -1.843,-0.433 -2.453,-1.129 -0.441,-0.5 -0.758,-1.082 -0.972,-1.554 0.367,0.078 0.418,0.171 0.453,0.117 -0.215,0.242 -0.391,0.621 -0.61,1 -0.226,0.418 -0.468,0.851 -0.828,1.265 -0.242,0.399 -0.84,0.602 -1.515,0.34 -1.118,-0.89 -1.27,-2.262 -1.27,-3.094 -0.082,-1.996 -0.043,-3.023 0.113,-3.07 z"
       style="fill:#1b1f23;fill-opacity:1;fill-rule:nonzero;stroke:#f6f8fa;stroke-width:0.75;stroke-linecap:round;stroke-linejoin:round;stroke-dasharray:none;stroke-opacity:1;paint-order:stroke fill markers"
       transform="scale(1.3333333)" />
    <path
       id="path61"
       d="m 258.922,110.844 c 0.156,-0.047 0.457,1.211 0.726,2.996 0.145,0.758 0.36,1.914 1.047,2.254 -0.16,0.054 -0.168,-0.094 0.024,-0.176 0.234,-0.281 0.406,-0.648 0.636,-1.086 0.176,-0.352 0.379,-0.793 0.715,-1.219 0.336,-0.414 0.953,-0.48 1.575,0.008 0.363,0.441 0.66,0.926 0.972,1.371 0.414,0.586 0.774,0.957 1.156,0.754 0.461,0.113 0.653,-0.949 0.957,-1.734 0.348,-1.383 0.415,-2.801 0.434,-3.852 -0.019,-1.898 -0.285,-2.855 -0.148,-2.941 0.136,-0.086 0.828,1.074 0.984,2.902 0.117,1.098 0.168,2.578 -0.145,4.145 -0.066,0.855 -0.445,2.234 -1.851,2.707 -1.035,0.062 -1.844,-0.434 -2.453,-1.129 -0.442,-0.504 -0.758,-1.082 -0.973,-1.555 0.367,0.078 0.418,0.168 0.453,0.117 -0.215,0.242 -0.39,0.617 -0.609,1 -0.227,0.414 -0.469,0.852 -0.828,1.262 -0.242,0.402 -0.84,0.605 -1.52,0.34 -1.113,-0.887 -1.265,-2.258 -1.269,-3.094 -0.078,-1.996 -0.039,-3.019 0.117,-3.07 z"
       style="fill:#1b1f23;fill-opacity:1;fill-rule:nonzero;stroke:#f6f8fa;stroke-width:0.75;stroke-linecap:round;stroke-linejoin:round;stroke-dasharray:none;stroke-opacity:1;paint-order:stroke fill markers"
       transform="scale(1.3333333)" />
    <path
       id="path62"
       d="m 259.859,18.848 c -0.257,-0.168 0.809,-3.246 3.981,-6.243 0.23,-0.304 0.715,-0.707 1.512,-0.757 0.523,0.152 0.847,0.441 0.984,0.75 0.051,0.113 0.074,0.23 0.074,0.34 0.281,1.429 -0.062,2.859 -0.262,3.863 -0.55,3.062 -1.132,5.105 -1.382,5.07 -0.25,-0.035 -0.098,-2.195 0.246,-5.234 0.109,-1.075 0.402,-2.426 0.156,-3.434 -0.031,-0.035 -0.051,-0.07 -0.063,-0.098 -0.019,-0.082 0.04,-0.121 0.168,0.008 -0.039,-0.105 -0.234,0.184 -0.593,0.414 -2.965,2.602 -4.567,5.489 -4.821,5.321 z"
       style="fill:#1b1f23;fill-opacity:1;fill-rule:nonzero;stroke:#f6f8fa;stroke-width:0.75;stroke-linecap:round;stroke-linejoin:round;stroke-dasharray:none;stroke-opacity:1;paint-order:stroke fill markers"
       transform="scale(1.3333333)" />
    <path
       id="path63"
       d="m 269.52,109.738 c -0.188,-0.027 0.109,-2.445 2.789,-2.496 1.222,0.008 2.918,0.957 3.027,2.938 -0.008,0.07 -0.066,0.129 -0.106,0.191 -0.089,0.133 -0.179,0.258 -0.265,0.375 -0.242,0.254 -0.485,0.492 -0.731,0.731 -0.519,0.503 -1.015,0.972 -1.562,1.496 -0.188,0.183 -0.375,0.359 -0.559,0.539 -0.726,0.703 -1.359,1.308 -1.929,1.98 -0.192,0.235 -0.356,0.414 -0.434,0.59 0.109,0.055 -0.035,-0.02 -0.273,-0.394 0.632,0.347 1.851,0.023 2.66,-0.051 1.933,-0.239 3.277,-0.227 3.277,-0.051 0,0.172 -1.109,0.461 -3.117,0.93 -0.707,0.195 -1.985,0.648 -3.254,0.226 -0.492,-0.484 -0.578,-0.933 -0.352,-1.137 0.161,-0.359 0.368,-0.636 0.563,-0.875 0.594,-0.753 1.254,-1.421 1.973,-2.125 0.187,-0.183 0.375,-0.367 0.566,-0.546 0.531,-0.512 1.078,-1.02 1.582,-1.485 0.254,-0.238 0.492,-0.457 0.719,-0.679 0.054,-0.024 0.105,-0.043 0.144,-0.063 0.02,-0.008 0.051,-0.016 0.039,-0.035 0.078,-0.942 -1.16,-1.59 -1.98,-1.602 -1.922,-0.097 -2.59,1.571 -2.777,1.543 z"
       style="fill:#1b1f23;fill-opacity:1;fill-rule:nonzero;stroke:#f6f8fa;stroke-width:0.75;stroke-linecap:round;stroke-linejoin:round;stroke-dasharray:none;stroke-opacity:1;paint-order:stroke fill markers"
       transform="scale(1.3333333)" />
    <path
       id="path64"
       d="m 269.766,192.609 c -0.067,-0.207 2.871,-1.797 4.644,1.203 0.352,0.622 0.387,1.504 -0.187,2.223 -0.805,0.653 -1.946,0.66 -2.965,0.379 -0.016,-0.008 -0.035,-0.027 -0.043,-0.023 0.012,0.007 0.051,-0.012 0.078,-0.024 0.062,-0.023 0.129,-0.051 0.195,-0.074 0.223,-0.09 0.453,-0.176 0.684,-0.262 0.297,0.082 0.601,0.172 0.906,0.285 0.289,0.106 0.574,0.227 0.848,0.372 0.535,0.214 1.105,0.695 1.332,1.492 0.054,1.125 -0.664,1.832 -1.238,2.14 -1.442,0.938 -3.012,0.422 -3.926,-0.238 -1.875,-1.184 -1.633,-3.051 -1.457,-3.027 0.175,0.023 0.336,1.3 1.929,2.257 0.75,0.372 2.063,0.727 2.75,0.071 0.391,-0.418 0.914,-0.797 0.723,-0.969 0.043,-0.18 -0.316,-0.34 -0.699,-0.605 -0.219,-0.114 -0.449,-0.211 -0.695,-0.301 -0.262,-0.094 -0.536,-0.176 -0.809,-0.254 -0.184,-0.195 -0.367,-0.387 -0.551,-0.574 -0.055,-0.059 -0.109,-0.114 -0.164,-0.168 -0.023,-0.024 -0.059,-0.039 -0.062,-0.078 0.011,-0.024 0.035,-0.028 0.05,-0.036 1,-0.281 1.852,-0.484 2.266,-1.148 0.246,-0.168 0.238,-0.641 0.105,-0.961 -0.847,-2.148 -3.648,-1.477 -3.714,-1.68 z"
       style="fill:#1b1f23;fill-opacity:1;fill-rule:nonzero;stroke:#f6f8fa;stroke-width:0.75;stroke-linecap:round;stroke-linejoin:round;stroke-dasharray:none;stroke-opacity:1;paint-order:stroke fill markers"
       transform="scale(1.3333333)" />
    <path
       id="path65"
       d="m 251.617,189.086 c 0.301,-0.047 0.863,2.832 0.43,6.324 -0.434,3.488 -0.856,6.223 -1.16,6.223 -0.305,0 -0.383,-2.918 0.054,-6.363 0.438,-3.442 0.375,-6.137 0.676,-6.184 z"
       style="fill:#1b1f23;fill-opacity:1;fill-rule:nonzero;stroke:#f6f8fa;stroke-width:0.75;stroke-linecap:round;stroke-linejoin:round;stroke-dasharray:none;stroke-opacity:1;paint-order:stroke fill markers"
       transform="scale(1.3333333)" />
    <path
       id="path66"
       d="m 250.664,195.715 c 0.008,-0.332 1.242,-0.633 2.77,-0.699 1.554,-0.067 2.824,0.183 2.824,0.55 0,0.332 -1.235,0.653 -2.77,0.719 -1.558,0.067 -2.828,-0.203 -2.824,-0.57 z"
       style="fill:#1b1f23;fill-opacity:1;fill-rule:nonzero;stroke:#f6f8fa;stroke-width:0.75;stroke-linecap:round;stroke-linejoin:round;stroke-dasharray:none;stroke-opacity:1;paint-order:stroke fill markers"
       transform="scale(1.3333333)" />
    <path
       id="path67"
       d="m 258.391,189.883 c 0.32,0.137 -0.196,2.305 -0.313,5.168 -0.008,0.172 -0.016,0.34 -0.023,0.504 -0.09,2.648 0.004,4.636 -0.317,4.711 -0.32,0.078 -1,-2.067 -0.949,-4.743 0.004,-0.171 0.008,-0.343 0.012,-0.519 0.105,-2.961 1.265,-5.262 1.586,-5.121 z"
       style="fill:#1b1f23;fill-opacity:1;fill-rule:nonzero;stroke:#f6f8fa;stroke-width:0.75;stroke-linecap:round;stroke-linejoin:round;stroke-dasharray:none;stroke-opacity:1;paint-order:stroke fill markers"
       transform="scale(1.3333333)" />
    <path
       id="path68"
       d="m 258.461,194.816 c 0.156,-0.046 0.457,1.207 0.727,2.993 0.148,0.757 0.359,1.918 1.046,2.257 -0.16,0.055 -0.168,-0.097 0.024,-0.175 0.238,-0.282 0.406,-0.649 0.637,-1.086 0.175,-0.352 0.378,-0.793 0.714,-1.219 0.336,-0.414 0.953,-0.481 1.575,0.004 0.363,0.445 0.66,0.93 0.972,1.371 0.418,0.59 0.774,0.961 1.16,0.758 0.457,0.113 0.649,-0.953 0.954,-1.735 0.347,-1.386 0.414,-2.8 0.433,-3.851 -0.019,-1.903 -0.285,-2.856 -0.148,-2.942 0.136,-0.086 0.832,1.075 0.984,2.903 0.117,1.094 0.168,2.574 -0.144,4.14 -0.063,0.856 -0.446,2.239 -1.852,2.711 -1.035,0.063 -1.844,-0.437 -2.453,-1.129 -0.442,-0.504 -0.758,-1.086 -0.973,-1.558 0.367,0.082 0.418,0.172 0.453,0.121 -0.215,0.242 -0.39,0.617 -0.609,0.996 -0.227,0.418 -0.469,0.855 -0.828,1.266 -0.242,0.398 -0.84,0.605 -1.516,0.339 -1.117,-0.886 -1.269,-2.261 -1.269,-3.093 -0.082,-1.996 -0.043,-3.024 0.113,-3.071 z"
       style="fill:#1b1f23;fill-opacity:1;fill-rule:nonzero;stroke:#f6f8fa;stroke-width:0.75;stroke-linecap:round;stroke-linejoin:round;stroke-dasharray:none;stroke-opacity:1;paint-order:stroke fill markers"
       transform="scale(1.3333333)" />
    <path
       id="path14-9"
       d="m 358.26506,53.994977 c -0.37074,-0.194195 0.19727,-1.237933 1.90798,-1.857497 0.64111,-0.35355 1.55896,-0.602563 1.45568,-0.888423 0.12709,0.66136 -0.0637,0.811648 -0.0603,0.595878 -0.28695,-0.137449 -0.66193,-0.194509 -1.11442,-0.239124 -0.74897,0.02199 -1.67102,0.09 -1.92191,0.433276 -0.0351,0.05228 -0.0602,0.101116 -0.067,0.165141 -0.33918,0.22475 0.13517,1.000667 0.55063,1.545236 0.76925,0.682873 1.4685,1.135873 2.09982,1.068689 1.10421,0.518902 2.31263,-1.864217 2.54952,-1.629054 0.23297,0.237195 1.03084,2.005401 -2.2354,3.216479 -1.30577,0.24142 -2.7921,-0.198681 -3.87148,-1.23877 -1.01383,-0.78818 -1.7735,-2.311143 -1.09049,-3.981784 0.12395,-0.18257 0.26125,-0.355471 0.40724,-0.506395 1.08403,-1.129624 2.6165,-1.350124 3.78302,-1.104934 0.6284,0.07619 1.2702,0.264416 1.86788,0.602135 0.54227,0.03482 0.96332,0.766465 0.84042,1.878565 -0.87358,1.215764 -2.11186,1.363948 -2.70116,1.409165 -1.61529,0.444509 -2.151,0.65663 -2.40004,0.531434 z"
       style="fill:#1b1f23;fill-opacity:1;fill-rule:nonzero;stroke:#f6f8fa;stroke-width:1;stroke-linecap:round;stroke-linejoin:round;stroke-dasharray:none;stroke-opacity:1;paint-order:stroke fill markers" />
    <path
       id="path14-9-6"
       d="m 53.266661,138.76795 c -0.37074,-0.19419 0.19727,-1.23793 1.90798,-1.8575 0.64111,-0.35355 1.55896,-0.60256 1.45568,-0.88842 0.12709,0.66136 -0.0637,0.81165 -0.0603,0.59588 -0.28695,-0.13745 -0.66193,-0.19451 -1.11442,-0.23912 -0.74897,0.022 -1.67102,0.09 -1.92191,0.43327 -0.0351,0.0523 -0.0602,0.10112 -0.067,0.16514 -0.33918,0.22475 0.13517,1.00067 0.55063,1.54524 0.76925,0.68287 1.4685,1.13587 2.09982,1.06869 1.10421,0.5189 2.31263,-1.86422 2.54952,-1.62906 0.23297,0.2372 1.03084,2.0054 -2.2354,3.21648 -1.30577,0.24142 -2.7921,-0.19868 -3.87148,-1.23877 -1.01383,-0.78818 -1.7735,-2.31114 -1.09049,-3.98178 0.12395,-0.18257 0.26125,-0.35547 0.40724,-0.5064 1.08403,-1.12962 2.6165,-1.35012 3.78302,-1.10493 0.6284,0.0762 1.2702,0.26442 1.86788,0.60213 0.54227,0.0348 0.96332,0.76647 0.84042,1.87857 -0.87358,1.21576 -2.11186,1.36395 -2.70116,1.40916 -1.61529,0.44451 -2.151,0.65663 -2.40004,0.53144 z"
       style="fill:#1b1f23;fill-opacity:1;fill-rule:nonzero;stroke:#f6f8fa;stroke-width:1;stroke-linecap:round;stroke-linejoin:round;stroke-dasharray:none;stroke-opacity:1;paint-order:stroke fill markers" />
    <path
       id="path14-9-4"
       d="m 366.93707,185.21948 c -0.37074,-0.1942 0.19727,-1.23794 1.90798,-1.8575 0.64111,-0.35355 1.55896,-0.60256 1.45568,-0.88842 0.12709,0.66136 -0.0637,0.81164 -0.0603,0.59587 -0.28695,-0.13744 -0.66193,-0.1945 -1.11442,-0.23912 -0.74897,0.022 -1.67102,0.09 -1.92191,0.43328 -0.0351,0.0523 -0.0602,0.10111 -0.067,0.16514 -0.33918,0.22475 0.13517,1.00066 0.55063,1.54523 0.76925,0.68288 1.4685,1.13588 2.09982,1.06869 1.10421,0.5189 2.31263,-1.86421 2.54952,-1.62905 0.23297,0.23719 1.03084,2.0054 -2.2354,3.21648 -1.30577,0.24142 -2.7921,-0.19868 -3.87148,-1.23877 -1.01383,-0.78818 -1.7735,-2.31115 -1.09049,-3.98179 0.12395,-0.18257 0.26125,-0.35547 0.40724,-0.50639 1.08403,-1.12963 2.6165,-1.35013 3.78302,-1.10494 0.6284,0.0762 1.2702,0.26442 1.86788,0.60214 0.54227,0.0348 0.96332,0.76646 0.84042,1.87856 -0.87358,1.21577 -2.11186,1.36395 -2.70116,1.40917 -1.61529,0.44451 -2.151,0.65663 -2.40004,0.53143 z"
       style="fill:#1b1f23;fill-opacity:1;fill-rule:nonzero;stroke:#f6f8fa;stroke-width:1;stroke-linecap:round;stroke-linejoin:round;stroke-dasharray:none;stroke-opacity:1;paint-order:stroke fill markers" />
    <path
       id="path14-9-48"
       d="m 363.40497,301.86276 c -0.37074,-0.1942 0.19727,-1.23794 1.90798,-1.8575 0.64111,-0.35355 1.55896,-0.60256 1.45568,-0.88842 0.12709,0.66136 -0.0637,0.81164 -0.0603,0.59587 -0.28695,-0.13744 -0.66193,-0.1945 -1.11442,-0.23912 -0.74897,0.022 -1.67102,0.09 -1.92191,0.43328 -0.0351,0.0523 -0.0602,0.10111 -0.067,0.16514 -0.33918,0.22475 0.13517,1.00066 0.55063,1.54523 0.76925,0.68288 1.4685,1.13588 2.09982,1.06869 1.10421,0.5189 2.31263,-1.86421 2.54952,-1.62905 0.23297,0.23719 1.03084,2.0054 -2.2354,3.21648 -1.30577,0.24142 -2.7921,-0.19868 -3.87148,-1.23877 -1.01383,-0.78818 -1.7735,-2.31115 -1.09049,-3.98179 0.12395,-0.18257 0.26125,-0.35547 0.40724,-0.50639 1.08403,-1.12963 2.6165,-1.35013 3.78302,-1.10494 0.6284,0.0762 1.2702,0.26442 1.86788,0.60214 0.54227,0.0348 0.96332,0.76646 0.84042,1.87856 -0.87358,1.21577 -2.11186,1.36395 -2.70116,1.40917 -1.61529,0.44451 -2.151,0.65663 -2.40004,0.53143 z"
       style="fill:#1b1f23;fill-opacity:1;fill-rule:nonzero;stroke:#f6f8fa;stroke-width:1;stroke-linecap:round;stroke-linejoin:round;stroke-dasharray:none;stroke-opacity:1;paint-order:stroke fill markers" />
    <path
       id="path110"
       d="m 62.465461,108.78082 c 0.0015,0.17237 -0.772174,0.2965 -1.968199,0.54777 -0.346445,0.0744 -0.767666,0.1619 -1.103965,0.30959 -0.168714,0.10207 -0.302483,0.14021 -0.251004,0.16078 0.03231,-0.0995 0.06613,-0.12302 0.05298,-0.13461 0.02781,0.0718 0.140908,0.1548 0.288955,0.29651 0.195392,0.16638 0.419717,0.31856 0.67523,0.48495 0.601958,0.38998 1.20354,0.71715 1.9186,1.1262 0.171719,0.0976 0.04547,0.0262 0.217186,0.12264 0.565133,0.32118 1.106595,0.63676 1.636408,1.01066 0.213053,0.1462 0.441887,0.32119 0.663582,0.55338 0.07928,0.0774 0.16721,0.19443 0.252506,0.35072 0.07928,0.11554 0.118739,0.31109 0.101078,0.57394 -0.06876,0.27183 -0.187877,0.45579 -0.337427,0.55226 -0.184871,0.12675 -0.339306,0.19107 -0.452032,0.21163 -0.424226,0.10207 -0.802986,0.10207 -1.102462,0.0875 -2.617127,-0.0759 -4.221221,-0.65844 -4.191912,-0.91419 0.03081,-0.25538 1.765668,-0.12414 4.167112,-0.298 0.293464,-0.0262 0.57077,-0.0408 0.761653,-0.11666 0.04697,-0.0266 0.05298,-0.0221 0.003,0 -0.06313,0.0292 -0.110096,0.11815 -0.161574,0.27893 0,0.14882 0.0015,0.22771 0.0263,0.2408 0.01202,0.0135 -0.0056,0.006 -0.04096,-0.0348 -0.110095,-0.11254 -0.272797,-0.21611 -0.471195,-0.35072 -0.482844,-0.31707 -0.986354,-0.59451 -1.557125,-0.92018 -0.07365,-0.0422 -0.146919,-0.083 -0.220191,-0.12563 -0.698903,-0.40157 -1.348957,-0.78408 -1.978721,-1.23687 -0.272797,-0.19443 -0.538831,-0.40457 -0.789459,-0.64873 -0.190883,-0.17087 -0.391911,-0.41316 -0.54334,-0.74182 -0.143914,-0.30398 -0.11423,-0.67789 0.0898,-1.03123 0.311124,-0.36642 0.642539,-0.50963 0.883398,-0.54777 0.508019,-0.13872 0.990863,-0.1619 1.366617,-0.16339 1.309127,-0.0146 2.065144,0.18246 2.065144,0.35633 z"
       style="fill:#1b1f23;fill-opacity:1;fill-rule:nonzero;stroke:#f6f8fa;stroke-width:1;stroke-linecap:round;stroke-linejoin:round;stroke-dasharray:none;stroke-opacity:1;paint-order:stroke fill markers"
       inkscape:export-filename="hw_modules.svg"
       inkscape:export-xdpi="300"
       inkscape:export-ydpi="300" />
  </g>
</svg>
